<svg width="161" height="161" viewBox="0 0 161 161" fill="none" xmlns="http://www.w3.org/2000/svg">
<g clip-path="url(#clip0)" filter="url(#filter0_d)">
<path d="M70.5505 17.2219C70.0071 17.1842 69.4759 17.395 69.1057 17.7938L22.731 67.7863C22.1541 68.4081 22.0894 69.3481 22.5753 70.0433L78.2983 149.774C78.9456 150.7 80.3265 150.796 81.0953 149.967L127.47 99.9743C128.047 99.3524 128.112 98.4123 127.626 97.7173L71.903 17.987C71.591 17.5406 71.094 17.2594 70.5505 17.2219Z" fill="#DA6C84"/>
<path d="M87.9853 22.1305L23.0199 67.5345C22.2046 68.1044 22.0055 69.2275 22.5754 70.0429L78.2984 149.773C78.8683 150.589 79.9914 150.788 80.8068 150.218L145.772 104.814C146.588 104.244 146.787 103.121 146.217 102.305L90.4937 22.5751C89.9239 21.7597 88.8007 21.5607 87.9853 22.1305Z" fill="#FFDCCE"/>
<path d="M82.7279 146.677L27.0048 66.9472C26.435 66.1318 26.634 65.0086 27.4494 64.4388L23.0199 67.5345C22.2046 68.1044 22.0055 69.2275 22.5754 70.0429L78.2984 149.773C78.8683 150.589 79.9914 150.788 80.8068 150.218L85.2362 147.122C84.4207 147.692 83.2977 147.493 82.7279 146.677Z" fill="#F4A39B"/>
<path d="M92.1196 61.4238C88.528 61.4662 85.3054 62.9694 82.8016 65.7709C80.3968 68.4614 78.7638 72.2091 77.9354 76.9304C73.217 76.0858 69.1363 76.3313 65.7832 77.6649C62.2916 79.0536 59.7725 81.5628 58.4986 84.9214C55.6748 92.3652 59.6895 101.575 67.6385 105.888C82.287 113.837 98.8566 109.066 99.5549 108.859C99.9265 108.749 100.258 108.517 100.489 108.206C100.923 107.622 111.098 93.7008 108.668 77.2129C107.35 68.2658 100.08 61.3303 92.1196 61.4238Z" fill="#F4A39B"/>
<path d="M71.9855 102.85C64.0365 98.5364 60.0218 89.3267 62.8455 81.8829C63.4249 80.3558 64.2643 79.0063 65.3329 77.8558C62.0762 79.2771 59.7172 81.7092 58.4988 84.9208C55.675 92.3647 59.6897 101.574 67.6387 105.888C82.2872 113.836 98.8568 109.065 99.5551 108.858C99.9267 108.748 100.258 108.517 100.489 108.206C100.575 108.089 101.05 107.441 101.733 106.351C96.6747 107.424 83.7151 109.214 71.9855 102.85Z" fill="#F66C83"/>
<path d="M77.6338 51.3422L54.01 67.8527C53.1946 68.4226 52.0715 68.2235 51.5016 67.4081C50.9318 66.5927 51.1308 65.4696 51.9462 64.8997L75.57 48.3892C76.3854 47.8193 77.5085 48.0184 78.0784 48.8338C78.6483 49.6492 78.4492 50.7723 77.6338 51.3422Z" fill="#C78686"/>
<path d="M74.3792 62.4073L65.5203 68.5988C64.7049 69.1687 63.5818 68.9696 63.0119 68.1542C62.442 67.3388 62.6411 66.2157 63.4565 65.6458L72.3154 59.4544C73.1308 58.8845 74.2539 59.0836 74.8238 59.899C75.3936 60.7143 75.1946 61.8375 74.3792 62.4073Z" fill="#C78686"/>
<path d="M113.449 112.021L98.6839 122.34C97.8685 122.91 96.7453 122.711 96.1755 121.895C95.6056 121.08 95.8047 119.957 96.62 119.387L111.385 109.068C112.2 108.498 113.323 108.697 113.893 109.513C114.463 110.328 114.264 111.451 113.449 112.021Z" fill="#C78686"/>
</g>
<defs>
<filter id="filter0_d" x="-4" y="0" width="168.537" height="168.537" filterUnits="userSpaceOnUse" color-interpolation-filters="sRGB">
<feFlood flood-opacity="0" result="BackgroundImageFix"/>
<feColorMatrix in="SourceAlpha" type="matrix" values="0 0 0 0 0 0 0 0 0 0 0 0 0 0 0 0 0 0 127 0"/>
<feOffset dy="4"/>
<feGaussianBlur stdDeviation="2"/>
<feColorMatrix type="matrix" values="0 0 0 0 0 0 0 0 0 0 0 0 0 0 0 0 0 0 0.25 0"/>
<feBlend mode="normal" in2="BackgroundImageFix" result="effect1_dropShadow"/>
<feBlend mode="normal" in="SourceGraphic" in2="effect1_dropShadow" result="shape"/>
</filter>
<clipPath id="clip0">
<rect width="115.286" height="115.286" fill="white" transform="translate(0 66.042) rotate(-34.9495)"/>
</clipPath>
</defs>
</svg>
