<svg width="153" height="146" viewBox="0 0 153 146" fill="none" xmlns="http://www.w3.org/2000/svg">
<g filter="url(#filter0_d)">
<path d="M116.539 84.4062H106.809C105.506 84.4062 104.45 84.9485 104.45 85.6173V117.104H118.898V85.6173C118.898 84.9485 117.841 84.4062 116.539 84.4062Z" fill="#D5AFAF"/>
<path d="M106.731 84.4062H88.481C87.2211 84.4062 86.1997 84.9485 86.1997 85.6173V117.104H109.012V85.6173C109.012 84.9485 107.991 84.4062 106.731 84.4062Z" fill="#C78686"/>
<path d="M118.803 86.6875C118.803 85.4277 117.781 84.4062 116.521 84.4062H107.111C105.852 84.4062 104.83 85.4277 104.83 86.6875V93.4363H118.803V86.6875Z" fill="#C78686"/>
<path d="M108.632 86.6875C108.632 85.4277 107.611 84.4062 106.351 84.4062H88.1011C86.8413 84.4062 85.8198 85.4277 85.8198 86.6875V93.4363H108.632V86.6875Z" fill="#B46E6E"/>
<path d="M79.7363 86.6875H6.73633C5.47651 86.6875 4.45508 85.6661 4.45508 84.4062C4.45508 83.1464 5.47651 82.125 6.73633 82.125H79.7363C80.9961 82.125 82.0176 83.1464 82.0176 84.4062C82.0176 85.6661 80.9961 86.6875 79.7363 86.6875Z" fill="#C78686"/>
<path d="M125.361 20.5312H54.6426C42.0435 20.5312 31.8301 30.7447 31.8301 43.3438V86.6875H54.6426H77.4551H145.893C147.152 86.6875 148.174 85.6661 148.174 84.4062V43.3438C148.174 30.7447 137.96 20.5312 125.361 20.5312Z" fill="#C78686"/>
<path d="M77.4551 34.2188H22.7051C21.4453 34.2188 20.4238 35.2402 20.4238 36.5V79.8438C20.4238 81.1036 21.4453 82.125 22.7051 82.125H77.4551C78.7149 82.125 79.7363 81.1036 79.7363 79.8438V36.5C79.7363 35.2402 78.7149 34.2188 77.4551 34.2188Z" fill="#FFDCCE"/>
<path d="M77.4551 34.2188H72.8926V68.4375C72.8926 73.4771 68.8071 77.5625 63.7676 77.5625H20.4238V79.8438C20.4238 81.1036 21.4453 82.125 22.7051 82.125H77.4551C78.7149 82.125 79.7363 81.1036 79.7363 79.8438V36.5C79.7363 35.2402 78.7149 34.2188 77.4551 34.2188Z" fill="#D5AFAF" fill-opacity="0.85"/>
<path d="M61.1512 46.9438C58.5372 45.1621 54.3967 44.7931 50.08 48.5056C45.7627 44.7931 41.6223 45.1627 39.0088 46.9438C35.1486 49.5746 33.9518 55.2891 36.2838 59.9529C40.2775 67.941 48.9896 70.9211 49.3585 71.0443C49.8242 71.1994 50.3358 71.1994 50.8014 71.0443C51.1701 70.9211 59.8822 67.941 63.8761 59.9532C66.2081 55.2891 65.0111 49.5746 61.1512 46.9438Z" fill="#F4A39B"/>
<path d="M125.361 20.5312H54.6426C67.2416 20.5312 77.4551 30.7447 77.4551 43.3438V86.6875H145.893C147.152 86.6875 148.174 85.6661 148.174 84.4062V43.3438C148.174 30.7447 137.96 20.5312 125.361 20.5312Z" fill="white"/>
<path d="M93.4238 77.5625C89.6441 77.5625 86.5801 74.4985 86.5801 70.7188V41.0625C86.5801 32.0319 81.3318 24.228 73.7195 20.5312H54.6426C67.2416 20.5312 77.4551 30.7447 77.4551 43.3438V86.6875H145.893C147.152 86.6875 148.174 85.6661 148.174 84.4062V77.5625H93.4238Z" fill="#E5E5E5"/>
<path d="M109.393 0H93.4238C92.164 0 91.1426 1.02143 91.1426 2.28125V73C91.1426 74.2598 92.164 75.2812 93.4238 75.2812H97.9863C99.2461 75.2812 100.268 74.2598 100.268 73V9.125H109.393C110.652 9.125 111.674 8.10357 111.674 6.84375V2.28125C111.674 1.02143 110.652 0 109.393 0Z" fill="#FDE8A3"/>
<path d="M95.7051 73V2.28125C95.7051 1.02143 96.7265 0 97.9863 0H93.4238C92.164 0 91.1426 1.02143 91.1426 2.28125V73C91.1426 74.2598 92.164 75.2812 93.4238 75.2812H97.9863C96.7265 75.2812 95.7051 74.2598 95.7051 73Z" fill="#FDDA6B"/>
<path d="M136.768 75.2812H107.111C105.852 75.2812 104.83 74.2598 104.83 73C104.83 71.7402 105.852 70.7188 107.111 70.7188H136.768C138.027 70.7188 139.049 71.7402 139.049 73C139.049 74.2598 138.027 75.2812 136.768 75.2812Z" fill="#C78686"/>
<path d="M129.924 63.875H107.111C105.852 63.875 104.83 62.8536 104.83 61.5938C104.83 60.3339 105.852 59.3125 107.111 59.3125H129.924C131.184 59.3125 132.205 60.3339 132.205 61.5938C132.205 62.8536 131.184 63.875 129.924 63.875Z" fill="#C78686"/>
</g>
<defs>
<filter id="filter0_d" x="-0.685547" y="0" width="154" height="154" filterUnits="userSpaceOnUse" color-interpolation-filters="sRGB">
<feFlood flood-opacity="0" result="BackgroundImageFix"/>
<feColorMatrix in="SourceAlpha" type="matrix" values="0 0 0 0 0 0 0 0 0 0 0 0 0 0 0 0 0 0 127 0"/>
<feOffset dy="4"/>
<feGaussianBlur stdDeviation="2"/>
<feColorMatrix type="matrix" values="0 0 0 0 0 0 0 0 0 0 0 0 0 0 0 0 0 0 0.25 0"/>
<feBlend mode="normal" in2="BackgroundImageFix" result="effect1_dropShadow"/>
<feBlend mode="normal" in="SourceGraphic" in2="effect1_dropShadow" result="shape"/>
</filter>
</defs>
</svg>
