<svg xmlns="http://www.w3.org/2000/svg" xmlns:xlink="http://www.w3.org/1999/xlink" viewBox="0 0 576.44 401.52"><defs><style>.cls-1{fill:url(#Безымянный_градиент_45);}.cls-2{fill:url(#Безымянный_градиент_72);}.cls-3{fill:#f0ecf0;}.cls-4{fill:#9e9e9e;}.cls-5{fill:#ffe8a0;}.cls-6{fill:#ffda63;}.cls-7{fill:#fff;}</style><linearGradient id="Безымянный_градиент_45" x1="-1276.65" y1="-931.08" x2="-823.07" y2="-931.08" gradientTransform="translate(1041.35 1396.34) rotate(15.61)" gradientUnits="userSpaceOnUse"><stop offset="0" stop-color="#ffacac"/><stop offset="1" stop-color="#ff667a"/></linearGradient><linearGradient id="Безымянный_градиент_72" x1="-1276.65" y1="-931.08" x2="-1014.58" y2="-931.08" gradientTransform="translate(1041.35 1396.34) rotate(15.61)" gradientUnits="userSpaceOnUse"><stop offset="0" stop-color="#ff97b3"/><stop offset="1" stop-color="#ff7565"/></linearGradient></defs><title>Ресурс 8</title><g id="Слой_2" data-name="Слой 2"><g id="Слой_1-2" data-name="Слой 1"><path class="cls-1" d="M491.16,97.15c-15.06-17.87-70.27-68.89-173.35-13C258.65-17,185-2,162.84,5.45,98.73,27.11,59.89,102.92,74.44,178c26.27,135.71,144.05,216.63,149.05,220a20.42,20.42,0,0,0,12.35,3.45c6-.3,148.69-8.47,241.49-110.92C528.7,233.87,534.77,148.91,491.16,97.15Z"/><path class="cls-2" d="M134.92,190.78c-14.54-75.11,24.29-150.92,88.41-172.59a106.66,106.66,0,0,1,25.77-5.13c-38.16-20-72.36-12.31-86.25-7.62C98.73,27.11,59.89,102.92,74.44,178c26.27,135.72,144.05,216.64,149.05,220a20.42,20.42,0,0,0,12.35,3.45,299.21,299.21,0,0,0,31-3.65C232.12,369.67,155.49,297,134.92,190.78Z"/><path class="cls-3" d="M41.87,371.4a64.66,64.66,0,0,1-2.58-11.21l-1.2-7.82a92.22,92.22,0,0,1,.83-34A120.94,120.94,0,0,1,49.5,289.06a167.24,167.24,0,0,1,16.42-25.75c5.7-7.37,11.53-15,17.34-22.6,4.42-5.76,8.61-11.26,12.47-16.38A150.66,150.66,0,0,0,105,210.58a47.68,47.68,0,0,0,5-11.07,18.43,18.43,0,0,0,.63-8c-.56-3.69-1.82-8.38-4.64-9.82a18.92,18.92,0,0,0-8.85-1.95,31.06,31.06,0,0,0-4.76.38,36.38,36.38,0,0,0-12,3.92,72.79,72.79,0,0,0-11.12,7.39,74.39,74.39,0,0,0-8.39,7.84c-3,3.29-4.44,5.15-5.16,6.14l-8.67,11.79L0,168.64l6.73-8.5a137.2,137.2,0,0,1,33-29.81,112,112,0,0,1,44.48-16.75,151.91,151.91,0,0,1,22.66-1.84A103.82,103.82,0,0,1,123,112.93c11.74,1.86,22,5.6,30.45,11.13a63.16,63.16,0,0,1,20.84,22.5,90.87,90.87,0,0,1,9.92,30.36,73,73,0,0,1-1.52,29.52,123.62,123.62,0,0,1-10.38,26.61,195.22,195.22,0,0,1-15.48,24.63c-5.55,7.56-11.16,14.91-16.67,21.87a108.56,108.56,0,0,0-8.76,11.54,89.65,89.65,0,0,0-4.75,8.45l10.73,14c5.44,7.58,11.73,15.65,19,23.93s14.58,15.81,21.45,22.28L45.27,381.23Z"/><path class="cls-4" d="M137,313.31l-37,5.12q.48-3.4,3.78-9.09T111.41,297q4.31-6.66,9.15-13.24t9-11.89q8.11-10.25,16.4-21.52a181.79,181.79,0,0,0,14.5-23.07,110.85,110.85,0,0,0,9.36-23.95,60.33,60.33,0,0,0,1.25-24.55,78.14,78.14,0,0,0-8.5-26.23,50.63,50.63,0,0,0-16.78-18.12q-10.56-6.9-25.61-9.27t-34.93.66a99.14,99.14,0,0,0-39.61,14.89,124.54,124.54,0,0,0-30.06,27.11l29.31,30.23c1.28-1.75,3.26-4.12,5.93-7.08a87.51,87.51,0,0,1,9.77-9.17,85,85,0,0,1,13-8.66,48.81,48.81,0,0,1,16-5.29q12.06-1.83,21.11,2.79t11.24,19a30.87,30.87,0,0,1-1,13.33,60.41,60.41,0,0,1-6.21,14,163.77,163.77,0,0,1-10.07,14.88Q99,239.52,92.28,248.21q-8.62,11.32-17.39,22.67a153.45,153.45,0,0,0-15.21,23.84A108,108,0,0,0,50.18,321a79.6,79.6,0,0,0-.68,29.47c.24,1.52.63,4.13,1.2,7.82a52.6,52.6,0,0,0,2,9L167.18,348.9q-8.79-9.52-17.79-20.27Q142.9,320.88,137,313.31Z"/><path class="cls-5" d="M298.79,185.87l-5.36,19.49a12.13,12.13,0,1,0,23.39,6.44l5.37-19.49,15.59,4.29-7.51,27.29a12.13,12.13,0,1,0,23.39,6.44L361.18,203l92.68,25.51c2.25,13.76,9.45,42,31.92,62.22C503.83,307,531,308.63,547.65,294.5a36.32,36.32,0,0,0,12.72-26.73c.28-7.51-1.44-15.46-5.11-23.66,7.35-5.17,12.89-11.11,16.5-17.71a36.34,36.34,0,0,0,2.75-29.47c-7.07-20.66-31.26-33.16-55.07-28.46-29.36,5.8-50,26.15-58.93,36.74l-174.78-48.1a12.13,12.13,0,1,0-6.43,23.39Zm230,60.32c4,6.32,12.46,21.89,3.13,29.81-6.54,5.55-20.12,5.56-30-3.27-17.95-16.14-23.11-40.64-24.46-50,5.92-7.35,22.79-25.72,46.61-30.42,13-2.56,24.62,4.4,27.4,12.5a11.38,11.38,0,0,1,.22,6.9c-1.47,5.34-6.73,10.74-14.95,15.41-1.48.84-3.07,1.51-4.48,2.44a12.36,12.36,0,0,0-3.26,3.19,12.12,12.12,0,0,0-.26,13.47Z"/><path class="cls-6" d="M275.92,179a12.11,12.11,0,0,1,2.18-7.5,12.24,12.24,0,0,1,13.13-4.69L466,214.88c9-10.59,29.56-30.94,58.93-36.74,19.1-3.77,38.43,3.53,49,17.24-7.73-19.73-31.28-31.49-54.49-26.91-29.36,5.8-50,26.15-58.93,36.74l-174.78-48.1a12.13,12.13,0,0,0-13.15,18.66A12,12,0,0,0,275.92,179Z"/><path class="cls-7" d="M127.51,56.74c10.7-9.76,21.68-17.93,35.69-22.23a88.36,88.36,0,0,1,40.36-2.64c26.92,4.53,50.22,20.67,67.12,41.67,3.63,4.52,10-1.89,6.37-6.36-18.47-23-44.74-40.35-74.27-44.47a97.09,97.09,0,0,0-43.49,3.6c-14.89,4.87-26.69,13.62-38.14,24.07-4.29,3.91,2.09,10.26,6.36,6.36Z"/><path class="cls-7" d="M292.42,106.72c5.8,0,5.8-9,0-9s-5.8,9,0,9Z"/><path class="cls-7" d="M305.43,154.42q60.18,14,119.18,32.48c5.54,1.74,7.91-6.94,2.39-8.67q-59-18.49-119.18-32.49c-5.63-1.31-8,7.36-2.39,8.68Z"/><path class="cls-7" d="M413.78,84.17a89.76,89.76,0,0,1,45.07,21.18c4.33,3.82,10.72-2.52,6.36-6.36a98.24,98.24,0,0,0-49-23.5c-5.67-.94-8.1,7.73-2.39,8.68Z"/><path class="cls-7" d="M479.32,126.52c5.79,0,5.8-9,0-9s-5.81,9,0,9Z"/><path class="cls-7" d="M192.41,206.92a74.26,74.26,0,0,1-18.21,48.43c-3.79,4.35,2.55,10.74,6.36,6.36a83.87,83.87,0,0,0,20.85-54.79c0-5.79-9-5.8-9,0Z"/><path class="cls-7" d="M199.19,195.83c5.79,0,5.8-9,0-9s-5.8,9,0,9Z"/></g></g></svg>