<svg xmlns="http://www.w3.org/2000/svg" xmlns:xlink="http://www.w3.org/1999/xlink" viewBox="0 0 549.03 420.54"><defs><style>.cls-1{fill:url(#Безымянный_градиент_72);}.cls-2{fill:url(#Безымянный_градиент_72-2);}.cls-3{fill:url(#Безымянный_градиент_72-3);}.cls-4{fill:url(#Безымянный_градиент_72-4);}.cls-5{fill:#f0ecf1;}.cls-6{fill:#e2dae3;}.cls-7{fill:#ffe8a0;}.cls-8{fill:#ffda63;}.cls-9{fill:url(#Безымянный_градиент_45);}.cls-10{fill:#ff7e8e;}.cls-11{fill:#fff;}</style><linearGradient id="Безымянный_градиент_72" x1="41.52" y1="-100.53" x2="645.52" y2="-100.53" gradientTransform="translate(5.81 457.43) rotate(-25.04)" gradientUnits="userSpaceOnUse"><stop offset="0" stop-color="#ff97b3"/><stop offset="1" stop-color="#ff7565"/></linearGradient><linearGradient id="Безымянный_градиент_72-2" x1="332.64" y1="-278.3" x2="354.4" y2="-278.3" xlink:href="#Безымянный_градиент_72"/><linearGradient id="Безымянный_градиент_72-3" x1="484.99" y1="-234.77" x2="528.52" y2="-234.77" xlink:href="#Безымянный_градиент_72"/><linearGradient id="Безымянный_градиент_72-4" x1="158.52" y1="-234.77" x2="202.05" y2="-234.77" xlink:href="#Безымянный_градиент_72"/><linearGradient id="Безымянный_градиент_45" x1="254.05" y1="-89.3" x2="432.99" y2="-89.3" gradientTransform="translate(5.81 457.43) rotate(-25.04)" gradientUnits="userSpaceOnUse"><stop offset="0" stop-color="#ffacac"/><stop offset="1" stop-color="#ff667a"/></linearGradient></defs><title>Ресурс 7</title><g id="Слой_2" data-name="Слой 2"><g id="Слой_1-2" data-name="Слой 1"><path class="cls-1" d="M545,89.43c-1.79-1.24-44.44-30.7-109-50.56-38-11.69-75.67-17.56-112-17.45A305.71,305.71,0,0,0,194.64,50,318,318,0,0,0,86.12,132.51c-23.79,28-43.36,60.64-58.16,97C2.78,291.41.11,342.21,0,344.34a9.46,9.46,0,0,0,4,8.19c1.78,1.24,44.44,30.7,109,50.56,38,11.69,75.67,17.56,112,17.45A303.78,303.78,0,0,0,459.32,311.1c23.4-27.79,43.08-60.45,58.5-97.08C544,151.79,548.8,100.17,549,98A9.45,9.45,0,0,0,545,89.43Z"/><path class="cls-2" d="M210.8,84.57a10.88,10.88,0,0,1-14.46-5.26L182.52,49.73a10.88,10.88,0,0,1,19.72-9.21L216.05,70.1A10.88,10.88,0,0,1,210.8,84.57Z"/><path class="cls-3" d="M367.25,59.54a10.77,10.77,0,0,1-6.23.89A10.88,10.88,0,0,1,351.89,48L357.8,9.25a10.88,10.88,0,0,1,21.52,3.27l-5.91,38.79A10.87,10.87,0,0,1,367.25,59.54Z"/><path class="cls-4" d="M91.19,188.47a10.87,10.87,0,0,1-10.26-.55L47.39,167.55A10.88,10.88,0,1,1,58.69,149l33.54,20.37a10.87,10.87,0,0,1-1,19.15Z"/><path class="cls-5" d="M503.79,109.47c-1.51-1-37.67-26-92.37-42.86-32.2-9.91-64.14-14.89-94.94-14.79A259,259,0,0,0,206.8,76a269.53,269.53,0,0,0-92,70c-20.17,23.72-36.76,51.4-49.31,82.25-21.34,52.44-23.6,95.5-23.69,97.31a8,8,0,0,0,3.42,6.94c1.51,1.05,37.67,26,92.37,42.86,32.2,9.91,64.14,14.89,94.93,14.79a257.49,257.49,0,0,0,198.63-92.77c19.84-23.55,36.52-51.24,49.59-82.29,22.2-52.75,26.26-96.51,26.42-98.35A8,8,0,0,0,503.79,109.47Z"/><path class="cls-6" d="M493.79,174.42c-13.66,32.44-31.09,61.37-51.81,86a269.09,269.09,0,0,1-207.54,96.93c-32.17.1-65.54-5.1-99.18-15.46a392.59,392.59,0,0,1-90.47-40.82,225.7,225.7,0,0,0-3,24.5,8,8,0,0,0,3.42,6.94c1.51,1.05,37.67,26,92.37,42.86,32.2,9.91,64.14,14.89,94.93,14.79a257.49,257.49,0,0,0,198.63-92.77c19.84-23.55,36.52-51.24,49.59-82.29A385.51,385.51,0,0,0,498.38,163C496.94,166.74,495.42,170.55,493.79,174.42Z"/><path class="cls-7" d="M220.35,105a128,128,0,1,0,170.14,61.8A128.14,128.14,0,0,0,220.35,105Z"/><path class="cls-8" d="M338.75,309.23A127.93,127.93,0,0,1,160.1,163.72,127.95,127.95,0,1,0,399,250.51,127.36,127.36,0,0,1,338.75,309.23Z"/><path class="cls-9" d="M311.44,141.16c-9.1-1.48-38.74-2.57-55.22,40.66-43.72-15.1-61.91,8.31-66.62,16.25-13.63,23-5.77,55.63,17.88,74.37,42.74,33.88,98.79,27.84,101.15,27.57a8,8,0,0,0,4.59-2.15c1.72-1.63,42.33-40.74,43.78-95.25C357.81,172.44,337.79,145.44,311.44,141.16Z"/><path class="cls-10" d="M224.35,256.57c-23.65-18.74-31.5-51.4-17.89-74.36a43,43,0,0,0-16.86,15.86c-13.63,23-5.77,55.63,17.88,74.37,42.74,33.88,98.79,27.84,101.15,27.57a8,8,0,0,0,4.59-2.15,131.87,131.87,0,0,0,12.1-13.71C321.19,284.6,266.35,289.86,224.35,256.57Z"/><path class="cls-11" d="M325.71,143.89c-1.42,7-2,15.64,5,20,5.95,3.69,12.34.23,16.52-4.4s8.58-12,3.61-17.73c-4.16-4.79-11.7-3.74-16.43-.51A18.13,18.13,0,0,0,326.67,156c.05,6.12,4.34,13.32,11.28,12.5,5.56-.66,8.26-6.34,8.06-11.47-.27-6.86-5.64-12.86-11.52-15.75-3.26-1.6-6.4.41-6.77,3.89-1,9.83,3.93,22.86,16.08,20.24,4.34-.93,7.83-4.1,8.35-8.63.68-5.89-3.87-11.93-7.93-15.79-7.9-7.53-22.18-6.33-23.14,6.46-.74,10,4.78,21.07,16,20,11.1-1,16.36-12.48,12.13-22.21-4.52-10.41-18.19-14.89-25.35-4.29-6.67,9.89-.25,23.69,7.78,30.79s21.16,7.3,24.12-4.86c2.42-10-3.21-24.62-13.18-28.35-11.53-4.3-20,6.27-19.73,17.18.29,10.54,9.47,20.71,20.68,18,11.55-2.83,14.4-16.48,10.51-26.24-3.53-8.85-13.34-22.47-24.42-16.88-10.44,5.27-10.08,20-6.66,29.58,3.53,9.82,15.34,18,25.21,10.94,9.19-6.57,6-20.87,0-28.41-6.27-7.82-17.2-7.5-24.07-.46-7.63,7.84-5.45,19.61,2.78,26,7.33,5.73,23.34,8,25.45-4.24,1.71-10-6.86-19.05-16.1-21.1-22-4.89-32.56,26.12-15.51,38.45,8.35,6,20.54,6.27,28.77-.09,10.1-7.8,6.68-21.22.31-30.36-5.78-8.29-17.77-14.37-25.29-4.58-5.8,7.54-3.54,19.22,5.95,22.38s20-3,21.2-13a18.56,18.56,0,0,0-16-20.39c-27.08-3.35-33.13,36.73-11.23,47.82,9.18,4.65,21.72,2,26.36-7.73,4-8.42,1.06-19.28-5.58-25.52-7.09-6.66-21.65-8.67-25.16,2.92C316.94,163,324.43,175,335.39,175c10.14,0,17.83-10.28,12.84-19.71-5.57-10.54-19.59-7.28-25.29,1.36-5.83,8.85-2.3,20.89,8.14,24.14,10.05,3.13,19.05-4.92,18.91-15.06S338.24,144,327.55,146.57c-9.06,2.22-12.53,13.92-8.53,21.69,4.94,9.59,17.26,11,26.67,8.64,5.62-1.39,3.24-10.08-2.39-8.68-4.48,1.12-10,1.43-14-1.49-3-2.21-4.57-8.07-1-10.73,4-3,10.7,3.39,12.05,6.93,1.81,4.74-1.18,11.2-6.92,9.16-4.83-1.72-5.59-7.05-2.76-10.92,1.4-1.9,4.27-4,6.82-3.67a4.15,4.15,0,0,1,3,5.72c-2.37,5.35-9.57,2.17-11.35-1.7-1-2.17-1.66-6.31.86-7.79,2.29-1.35,6,.37,7.88,1.8,6.48,4.87,8.77,17.65-.77,20.51-12.68,3.8-20.17-12.82-16.41-22.85a13.5,13.5,0,0,1,12.09-9,9.63,9.63,0,0,1,10,9.13,7,7,0,0,1-7.76,7.24c-4.57-.32-6.33-5.33-3.44-8.78,5.84-7,21.89,15.17,12.18,22.63-7.32,5.61-20.48,2-22.58-7.32-2-8.86,5.63-18.55,15-14.77,3.29,1.33,7.81,5.15,7.34,9.2-.7,6.1-11.12.45-13.27-2.36-2.82-3.69-2.59-8.34,1.06-11.34,4.48-3.68,8.78-1.92,11.38,2.89,1.82,3.37,4.37,10.92-.14,13.41-6,3.3-10.62-4.6-11.74-9.19-1-4.15-2.41-13.19,2.17-15.88,5-2.94,10.5,6.85,12.2,10.48,2,4.33,2.94,10.82-1.36,14.26-5.43,4.36-11.38-1.94-11.92-7.28-.6-5.89,3.57-13.34,9.87-8.12,3.68,3,7.34,12.74,5,17.42-3.47,6.92-11.7-3.09-13.64-6.45-1.84-3.16-3.87-7.26-2.84-11,.94-3.45,3.85-5.72,7.23-3.7,4.47,2.66,6.55,11,.73,13.46-6.08,2.54-9.93-5.8-8.1-10.78,3-8.3,15,6.58,12.89,8.89-1.57,1.77-4.46-.29-5.32-1.61-1.73-2.66-1.3-6.44-1-9.4L330,149.07c2.55,1.26,9,6,7,9.64-.7,1.25-1.24-2.51-1.21-3.35A9,9,0,0,1,338,150c.77-.87,3.34-3.07,4.68-2.52,2.54,1-1,4.68-1.8,5.64-1.61,1.82-4,4.51-6.2,2.24-2-2.08-.76-6.66-.28-9.06,1.15-5.66-7.53-8.08-8.67-2.39Z"/><path class="cls-11" d="M250,193.43c-11.19-8.71-27.07-8.24-36.44,3-10.1,12.14-5.64,28.14,2.31,40.07,3.2,4.8,11,.3,7.78-4.54-5.28-7.91-10.21-18.71-4.64-27.78a16.84,16.84,0,0,1,24.62-4.41c4.52,3.52,10.93-2.81,6.37-6.36Z"/><path class="cls-11" d="M265.27,205.94c5.79,0,5.8-9,0-9s-5.8,9,0,9Z"/></g></g></svg>