<svg xmlns="http://www.w3.org/2000/svg" xmlns:xlink="http://www.w3.org/1999/xlink" viewBox="0 0 507.08 438.27"><defs><style>.cls-1{fill:url(#Безымянный_градиент_72);}.cls-2{fill:url(#Безымянный_градиент_84);}.cls-3{fill:url(#Безымянный_градиент_99);}.cls-4{fill:#f0ecf0;}.cls-5{fill:url(#Безымянный_градиент_45);}.cls-6{fill:url(#Безымянный_градиент_72-2);}.cls-7{fill:url(#Безымянный_градиент_72-3);}.cls-8{fill:url(#Безымянный_градиент_72-4);}.cls-9{fill:#fff;}</style><linearGradient id="Безымянный_градиент_72" x1="-3.2" y1="154.5" x2="482.34" y2="154.5" gradientTransform="matrix(1, 0.01, -0.01, 1, 26.08, 39.03)" gradientUnits="userSpaceOnUse"><stop offset="0" stop-color="#ff97b3"/><stop offset="1" stop-color="#ff7565"/></linearGradient><linearGradient id="Безымянный_градиент_84" x1="1051.83" y1="708.27" x2="1331.79" y2="708.27" gradientTransform="translate(-972.5 329.04) rotate(-31.51)" gradientUnits="userSpaceOnUse"><stop offset="0" stop-color="#db9cbf"/><stop offset="1" stop-color="#e0a4c9"/></linearGradient><linearGradient id="Безымянный_градиент_99" x1="1052.5" y1="711.45" x2="1331.79" y2="711.45" gradientTransform="translate(-972.5 329.04) rotate(-31.51)" gradientUnits="userSpaceOnUse"><stop offset="0" stop-color="#ffacac"/><stop offset="1" stop-color="#972cc5"/></linearGradient><linearGradient id="Безымянный_градиент_45" x1="698.19" y1="429.78" x2="925.6" y2="429.78" gradientTransform="translate(-795.78 110.52) rotate(-27.53)" gradientUnits="userSpaceOnUse"><stop offset="0" stop-color="#ffacac"/><stop offset="1" stop-color="#ff667a"/></linearGradient><linearGradient id="Безымянный_градиент_72-2" x1="698.19" y1="429.78" x2="829.58" y2="429.78" gradientTransform="translate(-795.78 110.52) rotate(-27.53)" xlink:href="#Безымянный_градиент_72"/><linearGradient id="Безымянный_градиент_72-3" x1="251.72" y1="357.11" x2="284.18" y2="357.11" gradientTransform="matrix(1, 0, 0, 1, 0, 0)" xlink:href="#Безымянный_градиент_72"/><linearGradient id="Безымянный_градиент_72-4" x1="-52.2" y1="37.54" x2="603.24" y2="37.54" gradientTransform="matrix(1, 0, 0, 1, 0, 0)" xlink:href="#Безымянный_градиент_72"/></defs><title>Ресурс 10</title><g id="Слой_2" data-name="Слой 2"><g id="Слой_1-2" data-name="Слой 1"><path class="cls-1" d="M177.11,379.39a4.76,4.76,0,0,1-.17-9.51c7.65-.37,15.53-1,23.42-1.89a4.75,4.75,0,1,1,1.06,9.45c-8.09.91-16.17,1.56-24,1.94Zm-43.56-.86-.4,0a216.16,216.16,0,0,1-24.05-3.67,4.76,4.76,0,0,1,2-9.3,206.48,206.48,0,0,0,23,3.5,4.76,4.76,0,0,1-.52,9.49Zm-64-19.13a4.76,4.76,0,0,1-2.47-.73,81.43,81.43,0,0,1-16.38-13.45c-.89-1-1.78-2-2.64-3a4.76,4.76,0,1,1,7.24-6.17c.78.9,1.57,1.8,2.37,2.66a72.45,72.45,0,0,0,14.48,11.87,4.76,4.76,0,0,1-2.6,8.78Zm238.4-9.73a4.76,4.76,0,0,1-1.78-9.15c7.15-3,14.37-6.26,21.44-9.7a4.76,4.76,0,0,1,4.16,8.56c-7.23,3.51-14.61,6.85-21.92,9.91A5,5,0,0,1,307.93,349.67Zm59.93-30.77a4.76,4.76,0,0,1-2.43-8.81c6.7-4.11,13.33-8.44,19.71-12.86a4.76,4.76,0,0,1,5.42,7.82c-6.53,4.52-13.3,8.94-20.15,13.15A4.84,4.84,0,0,1,367.86,318.9ZM31.28,305.68a4.75,4.75,0,0,1-4.48-3.35,160.76,160.76,0,0,1-5.36-23.91A4.76,4.76,0,1,1,30.85,277a151,151,0,0,0,5,22.49,4.76,4.76,0,0,1-3.14,6A4.67,4.67,0,0,1,31.28,305.68Zm391-26.51a4.75,4.75,0,0,1-3.06-8.34c6-5.22,11.77-10.6,17.17-16a4.76,4.76,0,1,1,6.73,6.73c-5.56,5.55-11.5,11.08-17.66,16.44A4.74,4.74,0,0,1,422.25,279.17ZM24.94,239l-.41,0a4.75,4.75,0,0,1-4.26-5.21,160.81,160.81,0,0,1,4.31-24.1A4.76,4.76,0,1,1,33.79,212a150.75,150.75,0,0,0-4.05,22.68A4.77,4.77,0,0,1,24.94,239Zm443.22-9a4.71,4.71,0,0,1-2.75-.92,4.77,4.77,0,0,1-1-6.65A219.67,219.67,0,0,0,477.16,203a4.76,4.76,0,1,1,8.23,4.77,227.82,227.82,0,0,1-13.33,20.3A4.74,4.74,0,0,1,468.16,230ZM45.67,175.36a4.74,4.74,0,0,1-4.05-7.14A167.49,167.49,0,0,1,55.39,148a4.76,4.76,0,1,1,7.45,5.92,157,157,0,0,0-13,19.08A4.74,4.74,0,0,1,45.67,175.36Zm452.56-5.23a4.78,4.78,0,0,1-4.53-6,121.46,121.46,0,0,0,3.87-22.51,4.76,4.76,0,1,1,9.49.7,130.4,130.4,0,0,1-4.17,24.28A4.77,4.77,0,0,1,498.23,170.13ZM497,103.7a4.77,4.77,0,0,1-4.47-3.3,102.34,102.34,0,0,0-9.29-20.69,4.76,4.76,0,0,1,8.19-4.85A113.2,113.2,0,0,1,501.6,97.47a4.75,4.75,0,0,1-3.06,6A4.83,4.83,0,0,1,497,103.7ZM457.74,50.42a4.73,4.73,0,0,1-2.66-.86,120.45,120.45,0,0,0-19.92-11.18A4.76,4.76,0,0,1,439,29.69a129.65,129.65,0,0,1,21.51,12.07,4.76,4.76,0,0,1-2.8,8.66ZM248.15,43.06a4.76,4.76,0,0,1-1.82-9.1c7.39-3.31,15-6.3,22.53-8.88a4.76,4.76,0,1,1,3.08,9c-7.29,2.49-14.59,5.37-21.71,8.57A4.8,4.8,0,0,1,248.15,43.06ZM304.42,27a4.75,4.75,0,0,1-.72-9.44c6.89-1.16,13.91-2,20.86-2.58l3.19-.25a4.76,4.76,0,0,1,.72,9.49c-1.17.08-2.21.17-3.12.24-6.71.53-13.45,1.37-20.07,2.48A4.2,4.2,0,0,1,304.42,27Zm90.85-.38a4.49,4.49,0,0,1-.73-.06c-7.38-1.24-15.17-2.15-23.17-2.68a4.76,4.76,0,0,1,.64-9.5c8.31.56,16.42,1.5,24.11,2.79a4.76,4.76,0,0,1-.85,9.45Z"/><path class="cls-2" d="M260,327,327.2,436.75a3.19,3.19,0,0,0,5.35.12L502,186.16Z"/><path class="cls-3" d="M328.79,438.06a3.18,3.18,0,0,0,3.76-1.19L502,186.16,291.63,330Z"/><path class="cls-4" d="M291.63,330,414.72,355.1a6.36,6.36,0,0,0,7-3.46L502,186.16Z"/><path class="cls-4" d="M260,327l-77.22-18.53a3.19,3.19,0,0,1-.34-6.09L502,186.16Z"/><path class="cls-5" d="M158.71.34C147.07-1,109.38-.78,90.85,55,34.49,38.25,12.69,69,7.15,79.33c-16,29.9-4.25,71,26.82,93.45,56.14,40.65,127,29.88,130,29.4a10.19,10.19,0,0,0,5.7-3c2.11-2.17,51.5-54.07,50.34-123.37C219.31,37.49,192.41,4.32,158.71.34Z"/><path class="cls-6" d="M60.47,156.71C29.4,134.21,17.62,93.16,33.65,63.26a53.37,53.37,0,0,1,7.67-10.71A55.24,55.24,0,0,0,7.15,79.33c-16,29.9-4.25,71,26.82,93.45,56.13,40.65,127,29.88,130,29.4a10.25,10.25,0,0,0,5.7-3,150.16,150.16,0,0,0,10.09-12C157.35,188.84,104.41,188.53,60.47,156.71Z"/><path class="cls-7" d="M256.47,365a4.76,4.76,0,0,1-1.09-9.39c6.57-1.56,13-3.27,19-5.08l3.61-1.1a4.76,4.76,0,0,1,2.82,9.09l-3.71,1.12c-6.22,1.87-12.8,3.62-19.55,5.23A5.25,5.25,0,0,1,256.47,365Z"/><path class="cls-8" d="M235.24,4.21h0a4.83,4.83,0,0,1,3,6.14L225,49a1.73,1.73,0,0,0,1.2,2.24l39.51,10.4a4.83,4.83,0,0,1,3.44,5.9h0a4.82,4.82,0,0,1-5.9,3.43l-46.32-12.2a4.83,4.83,0,0,1-3.33-6.24L229.12,7.21A4.82,4.82,0,0,1,235.24,4.21Z"/><path class="cls-9" d="M115.53,41.79a49.22,49.22,0,0,1,29.7-22c16-4.16,32.14,1.63,42.52,14.22,3.68,4.48,10-1.92,6.36-6.36-23.77-28.84-68-20.56-86.36,9.63-3,5,4.77,9.49,7.78,4.54Z"/><path class="cls-9" d="M203,51.29c5.79,0,5.8-9,0-9s-5.81,9,0,9Z"/><path class="cls-9" d="M88.41,59.83a84,84,0,0,0-35-5.28c-5.75.36-5.79,9.36,0,9a77.66,77.66,0,0,1,32.65,5c5.42,2.06,7.77-6.64,2.39-8.68Z"/><path class="cls-9" d="M102.52,73.49c5.79,0,5.8-9,0-9s-5.8,9,0,9Z"/></g></g></svg>