<svg width="125" height="140" viewBox="0 0 125 140" fill="none" xmlns="http://www.w3.org/2000/svg">
<g clip-path="url(#clip0)" filter="url(#filter0_d)">
<path d="M80.4652 130.869L45.4382 110.278L6.43403 98.897C5.58576 98.5306 5.19 97.5402 5.55457 96.696L20.1244 75.6714L26.1032 49.1155L79.2439 32.0006L103.219 82.4194L87.9863 104.979L82.6704 130C82.3058 130.844 81.3135 131.235 80.4652 130.869Z" fill="#C78686"/>
<path d="M98.4235 72.3354L90.1394 54.9173L55.0903 39.7806L36.7308 45.6923L13.2657 100.026L19.4349 102.691L45.4377 110.278L68.789 124.005L74.9583 126.669L98.4235 72.3354Z" fill="#B46E6E"/>
<path d="M105.923 25.3115L58.1108 4.66309L25.6308 79.8711L81.1542 103.85L110.32 36.3162C112.151 32.0762 110.183 27.1516 105.923 25.3115Z" fill="#FFDCCE"/>
<path d="M25.6307 79.8708L60.2364 94.8159L35.1924 57.7305L25.6307 79.8708Z" fill="#FFCBB6"/>
<path d="M89.3359 43.484C88.3016 41.8535 84.3305 37.0654 75.2619 40.479C71.5293 31.5369 65.3211 31.929 63.425 32.2938C57.9215 33.3316 53.8955 39.1051 54.2611 45.4092C54.9217 56.8034 63.6894 64.733 64.0665 65.0779C64.1959 65.2021 64.3611 65.2962 64.5153 65.3628C64.6696 65.4294 64.8514 65.4852 65.0304 65.4942C65.5401 65.5323 77.3238 66.4782 86.0713 59.1471C90.9001 55.0635 92.3344 48.1935 89.3359 43.484Z" fill="#FFACAC"/>
<path d="M69.7213 75.2374L54.2981 68.5766C53.4499 68.2103 53.0541 67.2198 53.4187 66.3757C53.7833 65.5315 54.7756 65.1406 55.6239 65.5069L71.047 72.1677C71.8953 72.534 72.291 73.5245 71.9265 74.3686C71.5619 75.2128 70.5696 75.6037 69.7213 75.2374Z" fill="#999999"/>
<path d="M67.0699 81.3771L51.6468 74.7163C50.7985 74.3499 50.4027 73.3595 50.7673 72.5153C51.1319 71.6712 52.1242 71.2802 52.9725 71.6465L68.3956 78.3073C69.2439 78.6737 69.6397 79.6641 69.2751 80.5083C68.9105 81.3524 67.9182 81.7434 67.0699 81.3771Z" fill="#999999"/>
<path d="M58.1105 4.66243C53.8499 2.82238 48.9158 4.76627 47.0846 9.00632L45.7589 12.076C45.3943 12.9202 45.7901 13.9106 46.6384 14.277L91.3655 33.5933C92.2138 33.9596 93.2061 33.5687 93.5707 32.7245L94.8964 29.6548C96.7276 25.4147 101.662 23.4708 105.922 25.3109L58.1105 4.66243Z" fill="#FFF5F2"/>
<path d="M5.59931 98.1265C5.76979 98.4733 6.0671 98.7383 6.4334 98.8965L45.4376 110.278L80.4646 130.868C81.3128 131.235 82.3052 130.844 82.6697 130L103.218 82.419L5.59931 98.1265Z" fill="#F4A39B"/>
<path d="M56.8853 89.8631L5.59972 98.1272C5.77019 98.474 6.0675 98.739 6.4338 98.8972L45.438 110.279L80.465 130.869C81.3132 131.235 82.3056 130.844 82.6701 130L83.2336 128.696L56.8853 89.8631Z" fill="#C78686"/>
<path d="M26.103 49.1152L5.55444 96.6958C5.18986 97.54 5.58562 98.5304 6.43389 98.8967L80.4651 130.869C80.8314 131.027 81.2364 131.042 81.5974 130.948L26.103 49.1152Z" fill="#F4A39B"/>
</g>
<defs>
<filter id="filter0_d" x="0.891602" y="0" width="127.539" height="139.535" filterUnits="userSpaceOnUse" color-interpolation-filters="sRGB">
<feFlood flood-opacity="0" result="BackgroundImageFix"/>
<feColorMatrix in="SourceAlpha" type="matrix" values="0 0 0 0 0 0 0 0 0 0 0 0 0 0 0 0 0 0 127 0"/>
<feOffset dy="4"/>
<feGaussianBlur stdDeviation="2"/>
<feColorMatrix type="matrix" values="0 0 0 0 0 0 0 0 0 0 0 0 0 0 0 0 0 0 0.25 0"/>
<feBlend mode="normal" in2="BackgroundImageFix" result="effect1_dropShadow"/>
<feBlend mode="normal" in="SourceGraphic" in2="effect1_dropShadow" result="shape"/>
</filter>
<clipPath id="clip0">
<rect width="84" height="107" fill="white" transform="translate(47.3145) rotate(23.358)"/>
</clipPath>
</defs>
</svg>
