<svg xmlns="http://www.w3.org/2000/svg" xmlns:xlink="http://www.w3.org/1999/xlink" viewBox="0 0 561.54 484.4"><defs><style>.cls-1{fill:#f0ecf1;}.cls-2{fill:url(#Безымянный_градиент_45);}.cls-3{fill:url(#Безымянный_градиент_45-2);}.cls-4{fill:#ff7e8e;}.cls-5{fill:#9b9b9b;}.cls-6{fill:#ffe8a0;}.cls-7{fill:#ffda63;}.cls-8{fill:#fff5d9;}.cls-9{fill:#e9daea;}.cls-10{fill:url(#Безымянный_градиент_72);}.cls-11{fill:#fff;}</style><linearGradient id="Безымянный_градиент_45" x1="214.05" y1="333.24" x2="280.86" y2="333.24" gradientUnits="userSpaceOnUse"><stop offset="0" stop-color="#ffacac"/><stop offset="1" stop-color="#ff667a"/></linearGradient><linearGradient id="Безымянный_градиент_45-2" x1="58.82" y1="155.87" x2="429.64" y2="155.87" xlink:href="#Безымянный_градиент_45"/><linearGradient id="Безымянный_градиент_72" x1="-22.51" y1="191.96" x2="537.55" y2="191.96" gradientTransform="matrix(1, 0.01, -0.01, 1, 25.73, 29.18)" gradientUnits="userSpaceOnUse"><stop offset="0" stop-color="#ff97b3"/><stop offset="1" stop-color="#ff7565"/></linearGradient></defs><title>Ресурс 9</title><g id="Слой_2" data-name="Слой 2"><g id="Слой_1-2" data-name="Слой 1"><path class="cls-1" d="M417.42,434.23a6.4,6.4,0,0,1-1.69-7.52l12.91-23.81L341.81,272.5a6.41,6.41,0,0,1,10.67-7.1l86.83,130.39,28.47-1.52A6.4,6.4,0,0,1,471.51,406l-46.39,28.68A6.4,6.4,0,0,1,417.42,434.23Z"/><path class="cls-2" d="M280.86,341.57c-19.09,22.22-47.72,22.22-66.81,0,7.95-11.11,22.27-18.51,22.27-33.33h23.86C260.18,323.06,274.5,330.46,280.86,341.57Z"/><path class="cls-3" d="M383.57,15.09C367.78,4.33,313.08-23.7,244.23,43,175.37-23.69,120.68,4.33,104.88,15.09c-45.72,31.16-59.62,99.4-31.65,155.34C123.77,271.51,234.3,309.33,239,310.89a16.62,16.62,0,0,0,10.48,0c4.68-1.56,115.22-39.38,165.76-140.46C443.2,114.49,429.3,46.25,383.57,15.09Z"/><path class="cls-4" d="M122.42,168.31C94.45,112.37,108.35,44.13,154.07,13A87.46,87.46,0,0,1,175.5,2.48c-35.27-8.12-61.14,5.75-71.21,12.61C58.57,46.25,44.67,114.48,72.64,170.43c50.54,101.08,161.07,138.9,165.75,140.46a16.8,16.8,0,0,0,10.49,0c1.21-.41,9.51-3.24,22-9C236.89,287,161.62,246.71,122.42,168.31Z"/><path class="cls-5" d="M261,317H234.63c-2.92,0-4.39-1.46-4.39-4.39s1.47-4.4,4.39-4.4H261q4.39,0,4.4,4.4C263.93,315.57,262.47,317,261,317Z"/><path class="cls-5" d="M221.45,346.33c-1.47,0-4.39-1.46-4.39-2.93,0-2.93,1.46-4.39,2.92-5.86,4.4-1.46,7.33-2.93,7.33-8.79C228.77,318.5,239,311.17,239,311.17c1.46-1.46,4.39-1.46,5.86,1.47,1.46,1.46,1.46,4.39-1.47,5.86s-8.79,7.32-8.79,11.72c0,8.79-4.39,14.65-13.18,16.11Z"/><path class="cls-5" d="M263.93,481.1c0,4.4,8.79,4.4,8.79,0,5.86-24.9,8.79-54.2-4.39-76.17-23.44-41-13.19-90.83-13.19-90.83v-1.46h-8.79c-1.46,4.39-8.79,54.2,14.65,96.68C272.72,429.83,269.79,457.66,263.93,481.1Z"/><path class="cls-1" d="M399.12,244.52,350,159.79a6.12,6.12,0,0,0-8.37-2.23l-84.73,49.09a6.11,6.11,0,0,0-2.22,8.36l49.08,84.73a55.08,55.08,0,0,0,95.32-55.22Z"/><path class="cls-6" d="M393.91,235.53H266.6l37.2,64.21a55.08,55.08,0,0,0,95.32-55.22Z"/><path class="cls-7" d="M316.52,289.61l-31.33-54.08H266.6l37.2,64.21a55.07,55.07,0,0,0,88,9.93,55.09,55.09,0,0,1-75.24-20.06Z"/><circle class="cls-8" cx="320.3" cy="260.4" r="5.74"/><circle class="cls-8" cx="351.67" cy="267.28" r="5.74"/><circle class="cls-8" cx="339.43" cy="291" r="5.74"/><path class="cls-1" d="M31.26,440.66a6.42,6.42,0,0,1,5.4-5.52l27-2.12,62.19-143.78a6.41,6.41,0,0,1,11.77,5.09L75.42,438.11l16.77,23.06a6.41,6.41,0,0,1-7.82,9.52l-49.3-23.33A6.4,6.4,0,0,1,31.26,440.66Z"/><path class="cls-1" d="M91.73,208.06,138.4,100.17a7.34,7.34,0,0,1,9.66-3.82L256,143a7.35,7.35,0,0,1,3.82,9.66L213.1,260.56a66.12,66.12,0,1,1-121.37-52.5Z"/><path class="cls-9" d="M226.31,181.41l16.89-39a7.35,7.35,0,0,0,.37-4.72L256,143a7.35,7.35,0,0,1,3.82,9.66l-11.3,26.14Z"/><path class="cls-6" d="M96.68,196.62l151.79-17.81L213.1,260.56a66.12,66.12,0,1,1-121.37-52.5Z"/><path class="cls-7" d="M196.53,250.26l29.78-68.85,22.16-2.6L213.1,260.56a66.1,66.1,0,0,1-103.48,24.15,66.16,66.16,0,0,0,86.91-34.45Z"/><circle class="cls-8" cx="156.69" cy="264.94" r="6.89"/><circle class="cls-8" cx="135.94" cy="222.06" r="6.89"/><circle class="cls-8" cx="188.84" cy="231.58" r="6.89"/><path class="cls-1" d="M342.34,79c-6.79-7.6-19.45-12-35.82-3.7-10.62-15-23.85-17-33.4-13.46C259,67.05,250.85,84,254.53,100.37c6.29,28.07,31.22,44.13,32.27,44.81a7.4,7.4,0,0,0,4.51,1.11c1.25-.1,30.79-2.66,49.47-24.54C351.68,109,352.37,90.19,342.34,79Z"/><path class="cls-10" d="M180.94,435.28a5.49,5.49,0,0,1-.19-11c8.82-.43,17.91-1.16,27-2.18A5.49,5.49,0,0,1,209,433c-9.33,1-18.65,1.79-27.7,2.23Zm-50.25-1-.46,0A246.86,246.86,0,0,1,102.5,430a5.49,5.49,0,1,1,2.3-10.73,238.94,238.94,0,0,0,26.49,4.05,5.48,5.48,0,0,1-.6,10.94ZM56.85,412.23a5.53,5.53,0,0,1-2.85-.85,94.56,94.56,0,0,1-18.9-15.51c-1-1.1-2.05-2.25-3-3.42a5.49,5.49,0,0,1,8.36-7.11c.89,1,1.8,2.07,2.73,3.07a83.64,83.64,0,0,0,16.7,13.69,5.49,5.49,0,0,1-3,10.13Zm275-11.23a5.49,5.49,0,0,1-2.05-10.55c8.25-3.46,16.57-7.22,24.73-11.19a5.49,5.49,0,0,1,4.8,9.88C351,393.19,342.46,397,334,400.57A5.45,5.45,0,0,1,331.83,401ZM12.73,350.26a5.48,5.48,0,0,1-5.17-3.86,183.53,183.53,0,0,1-6.18-27.58,5.49,5.49,0,1,1,10.86-1.6,172,172,0,0,0,5.81,25.93A5.5,5.5,0,0,1,14.43,350,5.59,5.59,0,0,1,12.73,350.26Zm451-30.57a5.49,5.49,0,0,1-3.53-9.63c6.91-6,13.58-12.22,19.81-18.44a5.48,5.48,0,1,1,7.75,7.76c-6.41,6.4-13.26,12.78-20.36,19A5.51,5.51,0,0,1,463.7,319.69ZM5.42,273.31a3.87,3.87,0,0,1-.48,0,5.48,5.48,0,0,1-4.91-6,185.1,185.1,0,0,1,5-27.8,5.49,5.49,0,1,1,10.63,2.75A173.73,173.73,0,0,0,11,268.37,5.48,5.48,0,0,1,5.42,273.31ZM516.65,263a5.5,5.5,0,0,1-4.34-8.74A250.48,250.48,0,0,0,527,231.8a5.49,5.49,0,0,1,9.5,5.5,265.41,265.41,0,0,1-15.37,23.42A5.49,5.49,0,0,1,516.65,263ZM29.32,200a5.43,5.43,0,0,1-2.67-.74,5.49,5.49,0,0,1-2-7.5,192.5,192.5,0,0,1,15.89-23.34,5.49,5.49,0,0,1,8.59,6.83,180.58,180.58,0,0,0-15,22A5.5,5.5,0,0,1,29.32,200Zm522-6a4.84,4.84,0,0,1-1.35-.19,5.48,5.48,0,0,1-3.88-6.72,139.27,139.27,0,0,0,4.47-26,5.49,5.49,0,1,1,10.95.8,150.11,150.11,0,0,1-4.82,28A5.48,5.48,0,0,1,551.34,193.9Zm-1.41-76.62a5.49,5.49,0,0,1-5.15-3.8,118.64,118.64,0,0,0-10.72-23.87A5.49,5.49,0,0,1,543.5,84a129.43,129.43,0,0,1,11.72,26.09,5.47,5.47,0,0,1-3.53,6.91A5.38,5.38,0,0,1,549.93,117.28ZM504.64,55.83a5.57,5.57,0,0,1-3.07-1,138.52,138.52,0,0,0-23-12.9,5.49,5.49,0,1,1,4.47-10,149,149,0,0,1,24.8,13.92,5.49,5.49,0,0,1-3.22,10ZM432.58,28.38a6.25,6.25,0,0,1-.85-.08c-8.5-1.43-17.49-2.47-26.71-3.09a5.49,5.49,0,0,1,.73-11c9.59.65,18.94,1.73,27.8,3.22a5.49,5.49,0,0,1-1,10.9Z"/><path class="cls-11" d="M280.55,39.69a99.15,99.15,0,0,1,71.8-18c5.66.82,8.11-7.85,2.39-8.68A108.13,108.13,0,0,0,276,31.92c-4.66,3.36-.17,11.17,4.54,7.77Z"/><path class="cls-11" d="M193.81,15.32C165.26,3,132.93,4.28,105.89,20c-5,2.91-.48,10.69,4.54,7.77a87.9,87.9,0,0,1,78.84-4.66c5.26,2.27,9.85-5.48,4.54-7.77Z"/></g></g></svg>