<svg viewBox="0 0 113 98" fill="none" xmlns="http://www.w3.org/2000/svg">
<g clip-path="url(#clip0)">
<path d="M98.0904 11.7647C89.3517 4.83892 74.8778 2.5247 58.8019 14.5337C44.5517 0.406341 29.9964 0.692778 20.3797 6.33638C6.17172 14.5663 0.5813 34.3248 7.61857 51.2563C19.6264 80.2636 49.5201 92.8773 50.7891 93.367C52.3504 93.9772 54.146 94.1027 55.8767 93.7223C57.2014 93.4139 88.4587 85.0717 104.483 58.0226C113.706 42.2269 110.916 21.883 98.0904 11.7647Z" fill="url(#paint0_linear)"/>
<path d="M66.1058 87.9208C64.8368 87.4312 35.0429 74.8244 22.9353 45.8102C16.4129 30.1176 20.7945 11.8786 32.8636 2.69725C28.1402 2.86853 23.9387 4.17894 20.3867 6.23643C6.1717 14.5661 0.581277 34.3246 7.61854 51.2561C19.6264 80.2634 49.5201 92.8771 50.7891 93.3668C52.3504 93.977 54.146 94.1025 55.8767 93.7221C56.3894 93.5575 62.1082 92.0523 69.5764 88.464C68.3654 88.5799 67.1753 88.3965 66.1058 87.9208Z" fill="url(#paint1_linear)"/>
</g>
<defs>
<linearGradient id="paint0_linear" x1="3.80695" y1="45.5641" x2="108.977" y2="52.9106" gradientUnits="userSpaceOnUse">
<stop stop-color="#FFACAC"/>
<stop offset="1" stop-color="#FF667A"/>
</linearGradient>
<linearGradient id="paint1_linear" x1="3.80096" y1="45.6351" x2="72.2259" y2="50.4147" gradientUnits="userSpaceOnUse">
<stop stop-color="#FF97B3"/>
<stop offset="1" stop-color="#FF7565"/>
</linearGradient>
<clipPath id="clip0">
<rect width="105.4" height="89.8" fill="white" transform="translate(6.93359 0.786133) rotate(3.99578)"/>
</clipPath>
</defs>
</svg>
