<svg width="164" height="898" viewBox="0 0 164 898" fill="none" xmlns="http://www.w3.org/2000/svg">
<g clip-path="url(#clip0)">
<rect width="375" height="14183" transform="translate(-211 -6385)" fill="white"/>
<path d="M46.7376 174.086C55.347 166.634 112.749 115.705 104.169 57.2652C102.663 46.9727 98.5669 19.1066 77.0986 7.63055C74.6292 6.3431 60.9437 -0.698523 46.2152 4.62487C29.4471 10.6391 21.2855 28.9425 20.4535 42.4964C18.8564 68.3104 41.277 86.7205 49.699 93.6883C98.9601 134.231 175.685 115.567 189.922 112.094C287.351 88.3875 342.355 7.36629 372.663 -37.3748C410.634 -93.3339 421.557 -137.098 424.802 -151.405C430.844 -178.263 449.891 -262.911 407.656 -295.562C392.98 -306.907 372.152 -311.014 355.609 -305.243C320.579 -292.968 313.542 -239.334 318.548 -208.006C319.63 -201.359 324.294 -172.2 339.082 -169.381C346.346 -168.001 354.552 -173.161 358.647 -179.543C368.534 -195.168 354.101 -219.527 346.989 -231.429C342.613 -238.815 304.799 -300.725 260.267 -293.028C247.156 -290.773 231.522 -282.174 223.881 -268.586C190.606 -209.644 292.969 -47.7955 437.547 6.30652C458.904 14.3363 528.171 39.1593 606.112 16.7856C613.777 14.605 668.212 -1.11267 703.263 -45.2664C718.839 -64.9424 720.49 -77.3784 719.029 -86.4991C716.776 -100.87 705.865 -114.43 692.646 -118.555C668.537 -126.101 642.09 -100.338 630.172 -88.6237C579.403 -38.6145 530.743 94.7144 587.587 215.637C630.621 307.13 731.249 385.596 789.006 363.55C810.503 355.354 831.264 331.342 834.398 305.185C835.081 299.219 837.329 273.239 804.943 236.631C746.335 170.284 632.786 134.91 523.712 155.719C460.002 167.883 413.322 195.736 388.335 213.178C235.142 320.095 168.85 542.453 230.396 618.472C234.367 623.315 257.268 651.613 291.659 653.611C318.657 655.151 345.047 639.954 358.777 622.322C402.489 566.019 340.6 454.216 314.167 406.481C288.972 360.974 219.045 234.605 141.771 244.041C116.364 247.134 90.2395 264.926 82.4539 288.637C70.8534 324.095 103.563 361.77 127.976 377.684C133.69 381.472 161.573 399.643 175.378 388.722C183.694 382.173 185.052 366.439 179.263 355.94C170.893 340.707 149.333 339.493 141.967 339.103C95.3203 336.579 33.7286 381.875 37.3228 431.733C39.4146 460.593 62.5675 480.313 68.7886 485.654C90.2189 503.962 115.975 509.776 141.193 511.433C263.085 519.318 464.398 434.585 471.656 373.97C472.374 368.308 474.535 350.289 464.818 343.255C457.955 338.314 445.754 339.195 439.502 344.489C418.477 362.338 452.433 440.292 481.009 486.98C501.785 520.995 524.365 557.896 568.765 587.035C665.375 650.449 793.427 629.688 836.976 587.24C843.945 580.486 859.236 565.516 856.784 547.257C854.922 533.293 843.066 520.17 828.58 516.681C813.311 513.011 798.093 520.819 790.301 528.756C762.479 557.178 776.49 642.187 829.01 683.798C888.873 731.199 970.236 699.606 974.696 697.763" stroke="url(#paint0_linear)" stroke-width="5" stroke-miterlimit="10" stroke-linecap="round" stroke-linejoin="round" stroke-dasharray="15 15"/>
<path d="M1064.97 802.804C1060.25 813.166 1029.28 883.381 1061.43 932.931C1067.09 941.66 1082.43 965.285 1106.72 966.773C1109.5 966.914 1124.88 967.613 1136.05 956.637C1148.79 944.183 1148.58 924.144 1143.69 911.476C1134.39 887.344 1106.33 879.95 1095.77 877.125C1034.1 860.794 972.129 909.729 960.633 918.818C881.942 980.965 865.698 1077.54 856.789 1130.84C845.587 1197.53 853.892 1241.86 856.904 1256.22C862.602 1283.15 880.557 1368.04 932.556 1380.12C950.624 1384.32 971.269 1379.38 983.903 1367.24C1010.63 1341.48 994.683 1289.8 977.079 1263.4C973.325 1257.81 956.937 1233.25 942.318 1236.85C935.14 1238.62 929.83 1246.73 928.767 1254.24C926.289 1272.56 949.56 1288.69 960.984 1296.55C968.039 1301.44 1028.21 1341.96 1065.49 1316.41C1076.46 1308.9 1087.09 1294.57 1088.38 1279.03C1094.07 1211.58 933.578 1107.1 779.605 1118.16C756.845 1119.76 683.534 1126.06 622.003 1178.87C615.944 1184.05 573.008 1221.02 559.542 1275.76C553.58 1300.14 557.261 1312.13 562.389 1319.81C570.426 1331.94 585.994 1339.72 599.73 1337.96C624.791 1334.77 638.098 1300.33 644.052 1284.72C669.366 1218.1 658.048 1076.63 555.989 990.384C478.747 925.143 354.576 895.74 311.257 939.847C295.13 956.255 286.262 986.734 294.312 1011.82C296.177 1017.52 304.958 1042.08 349.652 1061.86C430.574 1097.76 548.537 1082.6 639.021 1018.24C691.869 980.636 722.699 935.866 738.146 909.599C832.859 748.574 800.474 518.817 712.85 475.355C707.223 472.606 674.613 456.424 642.518 468.937C617.334 478.786 599.675 503.597 594.54 525.346C578.263 594.742 681.108 670.592 725.027 702.972C766.892 733.843 883.113 819.583 949.427 778.808C971.236 765.41 987.571 738.351 984.769 713.552C980.541 676.485 935.108 655.865 906.285 651.571C899.511 650.508 866.593 645.607 858.593 661.287C853.762 670.705 859.084 685.574 868.721 692.706C882.677 703.067 902.782 695.187 909.641 692.472C953.097 675.331 990.215 608.491 966.173 564.665C952.246 539.3 922.983 531.021 915.102 528.758C887.992 521.044 862.156 526.49 838.541 535.492C724.448 579.111 576.747 740.019 595.405 798.146C597.112 803.592 602.656 820.873 614.42 823.219C622.717 824.851 633.442 818.966 636.919 811.549C648.596 786.562 585.247 729.846 539.816 699.31C506.757 677.045 470.854 652.908 418.351 644.919C304.105 627.526 196.348 699.754 174.446 756.486C170.924 765.53 163.262 785.509 173.099 801.087C180.609 813.005 196.856 819.995 211.478 817.131C226.887 814.105 237.468 800.666 241.245 790.205C254.694 752.774 206.537 681.334 141.455 665.39C67.2855 647.243 6.48607 709.864 3.19895 713.397" stroke="url(#paint1_linear)" stroke-width="5" stroke-miterlimit="10" stroke-linecap="round" stroke-linejoin="round" stroke-dasharray="15 15"/>
<path d="M118.567 834.986C111.929 829.725 100.935 827.967 88.7245 837.089C77.9005 826.358 66.8446 826.576 59.5401 830.863C48.748 837.114 44.5017 852.122 49.847 864.983C58.9679 887.016 81.6743 896.597 82.6382 896.969C83.8241 897.432 85.188 897.528 86.5026 897.239C87.5088 897.004 111.251 890.668 123.422 870.122C130.428 858.124 128.309 842.671 118.567 834.986Z" fill="url(#paint2_linear)"/>
<path d="M94.2724 893.109C93.3086 892.737 70.6779 883.161 61.4812 861.123C56.527 849.203 59.8552 835.349 69.0226 828.375C65.4348 828.505 62.2434 829.501 59.5454 831.063C48.7481 837.391 44.5018 852.399 49.8471 865.259C58.9679 887.292 81.6744 896.873 82.6383 897.245C83.8242 897.709 85.1881 897.804 86.5027 897.515C86.8921 897.39 91.236 896.247 96.9086 893.521C95.9887 893.609 95.0848 893.47 94.2724 893.109Z" fill="url(#paint3_linear)"/>
</g>
<defs>
<linearGradient id="paint0_linear" x1="29.7389" y1="423.833" x2="804.182" y2="131.416" gradientUnits="userSpaceOnUse">
<stop stop-color="#FF97B3"/>
<stop offset="1" stop-color="#FF7565"/>
</linearGradient>
<linearGradient id="paint1_linear" x1="976.359" y1="568.686" x2="394.183" y2="1157.19" gradientUnits="userSpaceOnUse">
<stop stop-color="#FF97B3"/>
<stop offset="1" stop-color="#FF7565"/>
</linearGradient>
<linearGradient id="paint2_linear" x1="46.9518" y1="860.659" x2="126.837" y2="866.239" gradientUnits="userSpaceOnUse">
<stop stop-color="#FFACAC"/>
<stop offset="1" stop-color="#FF667A"/>
</linearGradient>
<linearGradient id="paint3_linear" x1="46.9473" y1="860.99" x2="98.9211" y2="864.62" gradientUnits="userSpaceOnUse">
<stop stop-color="#FF97B3"/>
<stop offset="1" stop-color="#FF7565"/>
</linearGradient>
<clipPath id="clip0">
<rect width="375" height="14183" fill="white" transform="translate(-211 -6385)"/>
</clipPath>
</defs>
</svg>
