<svg viewBox="0 0 1920 561" fill="none" xmlns="http://www.w3.org/2000/svg">
<g clip-path="url(#clip0)">
<path opacity="0.2" d="M-141.983 319.649C-97.2568 294.499 -27.5075 263.891 59.049 261.235C167.166 257.992 210.822 301.746 295.25 317.211C477.615 350.505 516.123 190.492 744.153 158.036C969.101 125.839 1051.62 264.348 1267.05 190.774C1339.48 166.054 1349.67 143.751 1422.29 107.034C1537.11 48.8196 1720.47 -1.56124 2011.16 54.6459L2005.54 416.396L-141.983 416.396L-141.983 319.649Z" fill="white"/>
<path opacity="0.6" d="M-144.153 261.155C-96.1749 244.671 -22.6248 227.044 62.4615 239.751C182.566 257.616 201.912 320.377 294.772 347.972C471.3 400.252 545.844 219.569 807.981 211.334C978.016 205.976 980.548 280.782 1139.65 265.716C1324.04 248.273 1373.1 142.269 1561.23 81.5013C1659.95 49.4972 1807.16 26.5542 2010.83 76.1787L2005.06 447.157L-144.153 447.157L-144.153 261.155Z" fill="white"/>
<path d="M-141.683 379.652C-99.5648 344 -35.4823 301.612 46.2113 294.881C147.326 286.606 180.978 340.051 279.095 366.19C494.639 423.999 587.79 234.682 881.091 261.699C1001.3 272.797 985.721 304.554 1086.7 304.893C1291.13 305.607 1373.8 176.125 1560.61 121.491C1656.8 93.4474 1803.89 78.5022 2011.76 154.96L2004.44 487.146L-141.683 487.146L-141.683 379.652Z" fill="white"/>
</g>
<defs>
<clipPath id="clip0">
<rect width="2154" height="527" fill="white" transform="translate(-140.101 0.301758) rotate(0.890062)"/>
</clipPath>
</defs>
</svg>
