<svg viewBox="0 0 1920 4279" fill="none" xmlns="http://www.w3.org/2000/svg">
<rect x="0.675781" y="1610" width="1920" height="2669" fill="url(#paint0_linear)"/>
<path opacity="0.2" d="M-30.1673 267.945C16.5989 279.088 87.5638 292.134 173.755 292.405C450.545 293.221 522.87 160.862 793.679 113.028C1082.7 61.9323 1104.73 194.291 1348.35 115.746C1498.16 67.368 1581.36 -12.2648 1737.16 1.59624C1831.51 10.0215 1906.01 48.6149 1954.68 80.4137C1956.58 364.972 1952.77 1333.44 1954.68 1618C1290.43 1618 625.918 1618 -38.3242 1618C-37.5085 1395.95 -30.983 489.992 -30.1673 267.945Z" fill="url(#paint1_linear)"/>
<path opacity="0.6" d="M-32.8867 363.07C49.226 371.223 174.57 375.3 320.578 344.045C571.267 290.232 620.208 188.041 853.495 153.796C1064.76 122.812 1056.06 201.902 1264.06 164.395C1476.41 126.074 1558.25 30.4059 1737.16 50.5179C1832.05 61.1175 1906.55 99.1673 1954.68 129.335C1956.58 413.893 1958.21 1325.44 1960.11 1610C1295.87 1610 631.356 1610 -32.8867 1610C-32.8867 1403.44 -32.8867 569.626 -32.8867 363.07Z" fill="url(#paint2_linear)"/>
<path d="M-32.8867 362.798C44.0599 376.93 166.141 390.52 309.703 365.515C567.732 320.399 621.024 198.096 853.495 177.984C1057.96 160.318 1051.98 251.91 1264.06 229.623C1476.95 207.065 1558.52 107.049 1737.16 134.499C1838.3 149.991 1914.43 197.825 1960.11 232.341C1960.11 504.125 1960.11 1343.91 1960.11 1615.97C1295.87 1615.97 631.356 1615.97 -32.8867 1615.97C-32.8867 1387.67 -32.8867 591.368 -32.8867 362.798Z" fill="url(#paint3_linear)"/>
<defs>
<linearGradient id="paint0_linear" x1="960.676" y1="1610" x2="960.676" y2="4279" gradientUnits="userSpaceOnUse">
<stop stop-color="#F0F0F0"/>
<stop offset="1" stop-color="#D5AFAF"/>
</linearGradient>
<linearGradient id="paint1_linear" x1="958.451" y1="0" x2="958.451" y2="1618" gradientUnits="userSpaceOnUse">
<stop stop-color="#E3C8C8"/>
<stop offset="1" stop-color="#F0F0F0"/>
</linearGradient>
<linearGradient id="paint2_linear" x1="963.613" y1="47.7715" x2="963.613" y2="1610" gradientUnits="userSpaceOnUse">
<stop stop-color="#E3C8C8"/>
<stop offset="1" stop-color="#F0F0F0"/>
</linearGradient>
<linearGradient id="paint3_linear" x1="963.613" y1="129.769" x2="963.613" y2="1615.97" gradientUnits="userSpaceOnUse">
<stop stop-color="#E3C8C8"/>
<stop offset="1" stop-color="#F0F0F0"/>
</linearGradient>
</defs>
</svg>
