<svg viewBox="0 0 1920 2450" fill="none" xmlns="http://www.w3.org/2000/svg">
<path d="M-61.3242 526H2078.68V2485H-61.3242V526Z" fill="url(#paint0_linear)"/>
<path opacity="0.2" d="M-114.473 319.196C-68.4031 296.601 2.95724 269.964 89.526 272.182C197.655 275.024 238.78 321.164 322.205 341.353C502.409 384.851 549.856 227.257 779.35 207.677C1005.75 188.183 1080.35 331.114 1299.57 269.772C1373.28 249.164 1384.72 227.471 1459.28 194.896C1577.19 143.231 1763.1 103.243 2050.17 175.71L2050.17 536.571L-114.473 536.571L-114.473 319.196Z" fill="white"/>
<path opacity="0.6" d="M-113.35 260.674C-64.5209 246.913 9.90405 233.452 94.141 250.923C213.051 275.515 228.836 339.264 319.997 372.039C493.306 434.164 577.894 257.96 840.078 264.481C1010.15 268.694 1008.47 343.525 1168.16 337.431C1353.24 330.386 1408.18 227.309 1599.44 177.218C1699.8 150.817 1848.07 136.19 2048.62 197.19L2048.62 567.257L-113.35 567.257L-113.35 260.674Z" fill="white"/>
<path d="M-117.548 379.122C-73.4916 345.894 -7.12655 307.178 74.8163 305.052C176.236 302.477 206.83 357.73 303.321 389.346C515.272 459.186 618.923 275.407 910.241 318.878C1029.64 336.719 1012.3 367.55 1113.1 373.567C1317.16 385.777 1406.98 261.151 1596.57 217.109C1694.18 194.52 1841.88 187.871 2045.12 275.899L2045.12 607.148L-117.548 607.148L-117.548 379.122Z" fill="url(#paint1_linear)"/>
<path opacity="0.3" d="M-118.148 416.583C-71.3693 395.494 0.817603 371.187 87.2689 376.211C195.248 382.56 234.856 430.01 317.581 452.895C496.279 502.216 548.814 346.245 778.823 334.12C1005.74 321.981 1075.66 467.257 1296.76 413.059C1371.09 394.854 1383.23 373.543 1458.81 343.404C1578.34 295.592 1765.44 261.655 2050.01 343.397L2050.01 2481L-118.149 2481L-118.148 416.583Z" fill="white"/>
<defs>
<linearGradient id="paint0_linear" x1="1008.68" y1="526" x2="1008.68" y2="1366" gradientUnits="userSpaceOnUse">
<stop offset="0.497238" stop-color="#D5AFAF"/>
<stop offset="1" stop-color="#D5AFAF"/>
</linearGradient>
<linearGradient id="paint1_linear" x1="976.765" y1="147.078" x2="990.676" y2="496" gradientUnits="userSpaceOnUse">
<stop stop-color="white"/>
<stop offset="1" stop-color="#D5AFAF"/>
</linearGradient>
</defs>
</svg>
