<svg viewBox="0 0 911 1240" fill="none" xmlns="http://www.w3.org/2000/svg">
<g clip-path="url(#clip0)">
<path d="M162.562 371.208C173.5 368.041 246.945 345.801 263.602 289.132C266.54 279.153 274.478 252.129 259.781 232.724C258.077 230.522 248.593 218.4 232.988 217.073C215.242 215.52 200.171 228.73 193.744 240.692C181.494 263.47 194.155 289.572 198.889 299.424C226.669 356.858 304.165 372.007 318.549 374.809C416.96 394.04 500.816 343.464 547.063 315.507C604.963 280.567 633.195 245.388 642.128 233.751C658.852 211.885 711.568 142.97 686.867 95.6437C678.284 79.199 661.085 66.7547 643.645 65.0747C606.693 61.5681 577.861 107.338 569.301 137.887C567.503 144.377 559.539 172.812 571.791 181.56C577.812 185.852 587.424 184.599 593.813 180.516C609.331 170.46 606.413 142.297 604.933 128.511C604.049 119.972 595.606 47.9204 551.938 36.2802C539.086 32.8429 521.289 34.1118 508.664 43.2563C453.781 82.8705 479.039 272.699 587.719 382.328C603.758 398.556 656.285 450.082 736.438 462.371C744.312 463.597 800.329 472.096 850.638 446.657C873.018 435.303 879.72 424.698 882.21 415.803C886.176 401.808 881.939 384.927 871.658 375.649C852.918 358.709 818.118 371.043 802.392 376.697C735.357 400.878 635.378 501.618 636.415 635.231C637.223 736.336 695.79 849.705 757.473 853.846C780.428 855.396 809.331 842.273 823.121 819.827C826.237 814.694 839.148 792.037 825.05 745.237C799.577 660.456 711.243 580.819 603.468 554.085C540.513 538.478 486.462 544.245 456.469 549.633C272.596 582.649 119.355 756.875 143.45 851.671C145.03 857.731 153.991 893.014 184.391 909.218C208.268 921.911 238.596 919.15 258.443 908.88C321.701 876.03 312.267 748.589 308.23 694.173C304.386 642.3 293.744 498.266 219.61 474.507C195.24 466.686 164.068 471.916 147.076 490.194C121.705 517.546 135.651 565.45 151.166 590.118C154.771 595.95 172.495 624.12 189.602 619.977C199.895 617.508 207.711 603.785 206.846 591.827C205.617 574.49 186.543 564.367 180.016 560.931C138.704 539.122 63.8108 554.494 46.2157 601.282C36.0407 628.37 48.8195 655.967 52.2354 663.422C64.0398 689.017 85.0008 705.073 107.212 717.128C214.624 775.289 432.922 782.554 464.875 730.536C467.896 725.694 477.397 710.231 471.515 699.777C467.348 692.419 455.898 688.114 448.005 690.307C421.44 697.722 419.666 782.732 426.088 837.093C430.727 876.68 435.797 919.643 463.933 964.685C525.149 1062.7 650.141 1097.42 707.455 1077.09C716.61 1073.87 736.761 1066.67 742.174 1049.06C746.326 1035.6 741.047 1018.72 729.349 1009.49C717.017 999.767 699.928 1000.49 689.53 1004.44C652.369 1018.61 629.528 1101.69 659.821 1161.46C694.361 1229.55 781.478 1234.9 786.301 1235.09" stroke="url(#paint0_linear)" stroke-width="5" stroke-miterlimit="10" stroke-linecap="round" stroke-linejoin="round" stroke-dasharray="15 15"/>
</g>
<defs>
<linearGradient id="paint0_linear" x1="42.6325" y1="590.934" x2="868.379" y2="649.355" gradientUnits="userSpaceOnUse">
<stop stop-color="#FF97B3"/>
<stop offset="1" stop-color="#FF7565"/>
</linearGradient>
<clipPath id="clip0">
<rect width="827.796" height="1183.88" fill="white" transform="translate(84.4092 0.451172) rotate(4.04693)"/>
</clipPath>
</defs>
</svg>
