<svg viewBox="0 0 146 146" fill="none" xmlns="http://www.w3.org/2000/svg">
<path d="M120.176 48.746C116.675 44.5625 103.84 32.6182 79.8784 45.7026C66.126 22.0224 49.0052 25.534 43.8539 27.2781C28.9508 32.349 19.922 50.0969 23.3043 67.6739C29.411 99.445 56.7903 118.389 57.9526 119.178C58.7987 119.751 59.8053 120.034 60.8235 119.986C62.2183 119.916 95.3882 118.003 116.961 94.0183C128.902 80.7536 130.313 60.8636 120.176 48.746Z" fill="url(#paint0_linear)"/>
<path d="M37.3638 70.6658C33.9838 53.0817 43.0103 35.3338 57.9157 30.2606C59.8557 29.6132 61.8679 29.2098 63.9062 29.0597C55.0355 24.3774 47.0853 26.1778 43.8564 27.2757C28.951 32.3489 19.9222 50.0968 23.3045 67.6738C29.4113 99.4473 56.7906 118.391 57.9529 119.178C58.7989 119.751 59.8055 120.034 60.8238 119.986C63.239 119.827 65.6444 119.542 68.0301 119.131C59.959 112.546 42.1455 95.533 37.3638 70.6658Z" fill="url(#paint1_linear)"/>
<path d="M15.7332 112.951C15.4562 112.096 15.2555 111.217 15.1334 110.326L14.8545 108.496C14.4282 105.853 14.4936 103.154 15.0474 100.536C15.57 98.1513 16.3966 95.8449 17.5068 93.6741C18.5939 91.5516 19.8716 89.5337 21.3238 87.6457C22.6489 85.9203 24.0041 84.1341 25.3547 82.3548C26.3822 81.0063 27.3562 79.7187 28.2535 78.5201C29.03 77.4877 29.7494 76.4131 30.4084 75.3011C30.904 74.4906 31.2946 73.6197 31.5707 72.7095C31.7556 72.1036 31.8056 71.4641 31.7172 70.8366C31.587 69.9727 31.2941 68.8747 30.6386 68.5376C29.9997 68.2199 29.2936 68.0632 28.5813 68.0811C28.2107 68.0821 27.8408 68.1119 27.4748 68.1701C26.4989 68.3099 25.5549 68.6205 24.6852 69.0878C23.7728 69.5835 22.9075 70.1626 22.1003 70.8179C21.4042 71.3781 20.7521 71.9918 20.1499 72.6533C19.4525 73.4235 19.1178 73.859 18.9504 74.0907L16.935 76.8509L6 65.4825L7.56446 63.4925C9.72768 60.7616 12.3188 58.4044 15.2357 56.5137C18.3641 54.4767 21.8901 53.1394 25.5756 52.5924C27.3183 52.3165 29.0791 52.1725 30.8431 52.1616C32.0983 52.1561 33.352 52.2493 34.5927 52.4402C37.3218 52.8756 39.7069 53.7512 41.6712 55.0458C43.6912 56.3742 45.3551 58.1833 46.5157 60.3133C47.695 62.5268 48.4757 64.9332 48.8217 67.4209C49.1731 69.7247 49.0529 72.0766 48.4684 74.3319C47.9058 76.4953 47.096 78.5858 46.0554 80.5615C45 82.571 43.7971 84.4984 42.4569 86.3277C41.1667 88.0975 39.8626 89.8183 38.5818 91.4477C37.844 92.3015 37.1637 93.2041 36.5454 94.1493C36.1422 94.7882 35.7736 95.4486 35.4412 96.1275L37.9355 99.4051C39.2001 101.18 40.6623 103.069 42.3523 105.007C44.0423 106.946 45.7416 108.709 47.3386 110.223L16.5235 115.252L15.7332 112.951Z" fill="#F0ECF0"/>
<path d="M37.8473 99.3512L29.2462 100.55C29.3206 100.019 29.6135 99.3098 30.1249 98.4218C30.6363 97.5337 31.2276 96.5707 31.8986 95.5329C32.5665 94.4934 33.2755 93.4602 34.0256 92.4332C34.7757 91.4063 35.4731 90.4784 36.1178 89.6497C37.3746 88.0499 38.6454 86.3706 39.9301 84.6116C41.1863 82.8988 42.313 81.0934 43.3008 79.2107C44.2396 77.433 44.9698 75.5514 45.4767 73.6037C45.9641 71.7283 46.0631 69.7719 45.7672 67.8563C45.4752 65.7076 44.8062 63.6284 43.7913 61.7156C42.8587 59.999 41.5186 58.5416 39.8906 57.4735C38.2541 56.3966 36.2696 55.6732 33.9373 55.3033C31.6049 54.9334 28.8983 54.9849 25.8174 55.4578C22.5348 55.9389 19.394 57.128 16.6096 58.9437C13.9523 60.6614 11.5918 62.8053 9.62183 65.2905L16.4353 72.3676C16.7328 71.9579 17.1931 71.4031 17.8138 70.7101C18.5152 69.9371 19.2745 69.2194 20.0849 68.5633C21.0283 67.7956 22.0399 67.1169 23.1069 66.5359C24.266 65.9091 25.5246 65.49 26.8263 65.2975C28.6953 65.0119 30.331 65.2296 31.7335 65.9507C33.1361 66.6717 34.007 68.1544 34.3464 70.3988C34.4962 71.4436 34.4168 72.5088 34.1139 73.5195C33.7728 74.6692 33.2877 75.7706 32.6704 76.797C31.954 78.0005 31.1725 79.1634 30.3295 80.2806C29.4523 81.4777 28.493 82.7543 27.4516 84.1106C26.1157 85.8774 24.7682 87.6465 23.4091 89.4179C22.0625 91.1647 20.8789 93.0331 19.8734 94.9991C18.8758 96.9449 18.1334 99.013 17.665 101.152C17.1862 103.421 17.1326 105.761 17.5069 108.051C17.5627 108.407 17.6534 109.018 17.7859 109.881C17.8793 110.596 18.0349 111.301 18.2508 111.988L44.863 107.683C43.5007 106.197 42.1222 104.616 40.7275 102.938C39.7217 101.728 38.7616 100.533 37.8473 99.3512Z" fill="#9E9E9E"/>
<path d="M75.457 69.5163L74.211 74.0791C74.1127 74.4387 74.0857 74.8142 74.1315 75.1843C74.1773 75.5543 74.295 75.9117 74.478 76.2359C74.6609 76.5602 74.9055 76.8449 75.1977 77.074C75.4899 77.303 75.8241 77.4719 76.1811 77.5709C76.5381 77.6699 76.911 77.6971 77.2785 77.6509C77.6459 77.6048 78.0008 77.4862 78.3227 77.302C78.6447 77.1178 78.9274 76.8715 79.1549 76.5772C79.3823 76.2829 79.55 75.9463 79.6483 75.5868L80.8966 71.024L84.5207 72.0283L82.7749 78.4172C82.5763 79.1433 82.6724 79.9192 83.0418 80.574C83.4113 81.2288 84.0239 81.709 84.745 81.9089C85.466 82.1089 86.2364 82.0122 86.8866 81.6401C87.5368 81.268 88.0136 80.651 88.2121 79.9249L89.9602 73.5266L111.505 79.4988C112.028 82.7201 113.702 89.3314 118.925 94.0651C123.121 97.8741 129.437 98.2557 133.307 94.9477C134.209 94.1722 134.938 93.2142 135.448 92.136C135.957 91.0578 136.235 89.8836 136.264 88.6899C136.329 86.9318 135.929 85.0706 135.076 83.1509C136.785 81.9406 138.073 80.5499 138.912 79.0048C139.493 77.9644 139.851 76.8124 139.961 75.6237C140.071 74.4351 139.931 73.2364 139.551 72.1056C137.908 67.2689 132.284 64.3425 126.75 65.4428C119.925 66.8006 115.127 71.5648 113.051 74.044L72.421 62.7833C72.0622 62.6786 71.6864 62.6468 71.3153 62.6896C70.9441 62.7325 70.5852 62.8491 70.2592 63.0329C69.9332 63.2166 69.6468 63.4638 69.4165 63.7599C69.1861 64.0561 69.0165 64.3954 68.9175 64.7582C68.8185 65.1209 68.792 65.4998 68.8397 65.873C68.8873 66.2461 69.0081 66.606 69.195 66.9317C69.3819 67.2574 69.6312 67.5425 69.9284 67.7704C70.2256 67.9983 70.5648 68.1644 70.9263 68.2591L75.457 69.5163ZM128.923 83.6379C129.853 85.1174 131.82 88.7625 129.651 90.6167C128.13 91.916 124.974 91.9183 122.677 89.8511C118.504 86.0726 117.305 80.3369 116.991 78.1456C118.367 76.4249 122.289 72.1243 127.826 71.024C130.848 70.4247 133.549 72.0541 134.195 73.9504C134.378 74.4705 134.396 75.0349 134.246 75.5657C133.905 76.8159 132.682 78.0801 130.771 79.1734C130.427 79.37 130.058 79.5269 129.73 79.7446C129.433 79.944 129.176 80.1973 128.972 80.4914C128.653 80.952 128.477 81.4976 128.467 82.0589C128.456 82.6202 128.611 83.1722 128.911 83.6449L128.923 83.6379Z" fill="#FFE8A0"/>
<path d="M70.1406 67.9079C70.1123 67.2823 70.2905 66.6649 70.6474 66.1521C70.9847 65.678 71.4577 65.3188 72.0031 65.1226C72.5485 64.9264 73.1403 64.9025 73.6996 65.0541L114.327 76.3078C116.419 73.8285 121.198 69.0644 128.026 67.7066C132.466 66.824 136.959 68.533 139.416 71.7426C137.619 67.1236 132.145 64.3705 126.75 65.4427C119.925 66.8005 115.127 71.5647 113.051 74.0439L72.421 62.7832C71.8614 62.6281 71.2678 62.6507 70.7214 62.8479C70.1749 63.0452 69.7023 63.4075 69.3679 63.8853C69.0335 64.3632 68.8537 64.9333 68.853 65.5179C68.8524 66.1025 69.0309 66.6731 69.3642 67.1517C69.5716 67.4523 69.8354 67.7092 70.1406 67.9079V67.9079Z" fill="#FFDA63"/>
<path d="M35.6412 39.2856C38.1285 37.0006 40.6809 35.0879 43.9377 34.0813C46.9756 33.1475 50.1871 32.9359 53.3199 33.4632C59.5777 34.5237 64.9941 38.3023 68.9227 43.2186C69.7665 44.2768 71.2473 42.7761 70.4034 41.7297C66.1099 36.3451 60.0031 32.2833 53.1385 31.3188C49.7488 30.8235 46.2916 31.1117 43.0288 32.1616C39.5675 33.3017 36.8244 35.3502 34.1627 37.7966C33.1655 38.712 34.6486 40.1986 35.6412 39.2856V39.2856Z" fill="white"/>
<path d="M73.9763 50.9864C75.3246 50.9864 75.3246 48.8794 73.9763 48.8794C72.628 48.8794 72.628 50.9864 73.9763 50.9864Z" fill="white"/>
<path d="M77.0008 62.1534C86.3272 64.3384 95.5621 66.873 104.706 69.7573C105.993 70.1646 106.544 68.1325 105.261 67.7275C96.1177 64.8417 86.8828 62.3063 77.5564 60.1213C76.2477 59.8146 75.6967 61.8443 77.0008 62.1534Z" fill="white"/>
<path d="M102.188 45.7073C106.075 46.3319 109.707 48.0508 112.665 50.6658C113.671 51.5601 115.157 50.0758 114.143 49.1768C110.936 46.3008 106.988 44.394 102.753 43.6752C101.435 43.4552 100.87 45.4849 102.197 45.7073H102.188Z" fill="white"/>
<path d="M117.423 55.6218C118.769 55.6218 118.772 53.5148 117.423 53.5148C116.075 53.5148 116.073 55.6218 117.423 55.6218Z" fill="white"/>
<path d="M50.728 74.4443C50.7122 78.6124 49.2099 82.6362 46.4948 85.7822C45.6138 86.8006 47.0876 88.2966 47.9733 87.2712C51.0684 83.7219 52.7892 79.1679 52.8201 74.4443C52.8201 73.0888 50.728 73.0864 50.728 74.4443Z" fill="white"/>
<path d="M52.3039 71.848C53.6499 71.848 53.6522 69.741 52.3039 69.741C50.9557 69.741 50.9557 71.848 52.3039 71.848Z" fill="white"/>
<defs>
<linearGradient id="paint0_linear" x1="20.4894" y1="62.5401" x2="122.143" y2="90.7415" gradientUnits="userSpaceOnUse">
<stop stop-color="#FFACAC"/>
<stop offset="1" stop-color="#FF667A"/>
</linearGradient>
<linearGradient id="paint1_linear" x1="20.4896" y1="62.5401" x2="79.2234" y2="78.8343" gradientUnits="userSpaceOnUse">
<stop stop-color="#FF97B3"/>
<stop offset="1" stop-color="#FF7565"/>
</linearGradient>
</defs>
</svg>
