<svg viewBox="0 0 146 146" fill="none" xmlns="http://www.w3.org/2000/svg">
<path d="M136.056 44.8399C135.635 44.551 125.614 37.6858 110.445 33.0578C101.517 30.3336 92.6657 28.9657 84.1296 28.9913C73.6291 28.9813 63.254 31.2547 53.7352 35.6514C43.9344 40.1572 35.2352 46.7171 28.2373 54.879C22.6476 61.404 18.0495 69.0102 14.5721 77.4833C8.65578 91.9081 8.02844 103.746 8.00259 104.243C7.98451 104.613 8.06118 104.983 8.22548 105.317C8.38978 105.65 8.63639 105.937 8.94243 106.151C9.36066 106.44 19.384 113.305 34.5531 117.933C43.4815 120.657 52.3325 122.025 60.8685 122C71.3721 122.028 81.7527 119.758 91.2695 115.349C100.786 110.941 109.205 104.503 115.924 96.4965C121.422 90.0205 126.046 82.4096 129.669 73.8736C135.821 59.3719 136.949 47.3427 136.996 46.837C137.03 46.4516 136.961 46.0641 136.796 45.7135C136.631 45.3629 136.375 45.0616 136.056 44.8399V44.8399Z" fill="url(#paint0_linear)"/>
<path d="M57.5321 43.7073C57.2279 43.8481 56.8986 43.9281 56.5633 43.9427C56.2279 43.9573 55.8929 43.9062 55.5774 43.7924C55.2619 43.6785 54.9721 43.5042 54.7245 43.2793C54.477 43.0544 54.2765 42.7833 54.1346 42.4816L50.8874 35.5884C50.6005 34.9791 50.5693 34.2816 50.8009 33.6494C51.0324 33.0173 51.5077 32.5022 52.1221 32.2176C52.7366 31.933 53.4398 31.9021 54.0772 32.1318C54.7146 32.3614 55.2339 32.8328 55.5208 33.4422L58.7656 40.3353C58.908 40.6371 58.9891 40.9636 59.0041 41.2964C59.0192 41.6292 58.968 41.9617 58.8534 42.2749C58.7389 42.588 58.5632 42.8757 58.3365 43.1215C58.1098 43.3673 57.8364 43.5664 57.5321 43.7073V43.7073Z" fill="url(#paint1_linear)"/>
<path d="M94.2914 37.8745C93.8352 38.0866 93.3255 38.1588 92.8276 38.0819C92.4947 38.0321 92.1749 37.9176 91.8867 37.745C91.5985 37.5723 91.3475 37.3448 91.1482 37.0757C90.9488 36.8065 90.8051 36.501 90.7252 36.1766C90.6452 35.8522 90.6307 35.5153 90.6824 35.1853L92.0711 26.1552C92.1729 25.4902 92.537 24.8926 93.0832 24.4938C93.6294 24.095 94.3129 23.9277 94.9834 24.0288C95.6539 24.1298 96.2565 24.4909 96.6586 25.0326C97.0606 25.5743 97.2293 26.2522 97.1274 26.9172L95.7388 35.9566C95.6758 36.3699 95.5107 36.7613 95.2581 37.096C95.0056 37.4306 94.6735 37.6981 94.2914 37.8745V37.8745Z" fill="url(#paint2_linear)"/>
<path d="M29.4287 67.9194C29.0474 68.0969 28.6277 68.1781 28.2071 68.1557C27.7865 68.1333 27.378 68.0081 27.018 67.7913L19.1374 63.0444C18.8294 62.8825 18.5579 62.6599 18.3398 62.3902C18.1217 62.1205 17.9615 61.8093 17.869 61.4759C17.7766 61.1425 17.7539 60.7939 17.8024 60.4515C17.8508 60.1091 17.9694 59.7801 18.1508 59.4848C18.3321 59.1895 18.5725 58.9341 18.857 58.7344C19.1416 58.5346 19.4643 58.3947 19.8054 58.3232C20.1465 58.2517 20.4988 58.2502 20.8405 58.3187C21.1822 58.3872 21.5062 58.5243 21.7925 58.7216L29.673 63.4685C30.0692 63.7055 30.393 64.0447 30.6099 64.45C30.8268 64.8553 30.9286 65.3114 30.9045 65.7697C30.8803 66.2279 30.7312 66.671 30.4729 67.0517C30.2146 67.4324 29.857 67.7363 29.4381 67.9311L29.4287 67.9194Z" fill="url(#paint3_linear)"/>
<path d="M126.373 49.5098C126.018 49.2768 117.522 43.4509 104.67 39.522C97.104 37.2126 89.5994 36.0521 82.3626 36.0754C73.4603 36.0616 64.6634 37.985 56.5922 41.7102C48.282 45.533 40.907 51.0985 34.9759 58.0225C30.2368 63.5501 26.3388 70.0005 23.39 77.1896C18.376 89.4098 17.845 99.4443 17.8238 99.8661C17.809 100.181 17.8749 100.495 18.0154 100.777C18.1559 101.06 18.3665 101.303 18.6274 101.483C18.9822 101.728 27.4783 107.542 40.3306 111.471C47.8963 113.781 55.401 114.941 62.6354 114.918C71.5392 114.942 80.3387 113.018 88.406 109.281C96.4733 105.544 103.61 100.087 109.305 93.2992C113.967 87.8112 117.886 81.3585 120.957 74.1228C126.173 61.8303 127.127 51.6327 127.165 51.204C127.195 50.8775 127.137 50.5489 126.998 50.2515C126.859 49.954 126.643 49.6982 126.373 49.5098V49.5098Z" fill="#F0ECF1"/>
<path d="M124.023 64.6454C120.814 72.205 116.719 78.9467 111.85 84.6863C105.898 91.7776 98.4418 97.4788 90.0128 101.383C81.5837 105.288 72.3897 107.299 63.0867 107.274C55.528 107.298 47.6874 106.086 39.7833 103.672C32.3205 101.405 25.1778 98.209 18.5265 94.1591C18.1867 96.048 17.9514 97.954 17.8216 99.8684C17.8068 100.183 17.8727 100.497 18.0132 100.78C18.1537 101.063 18.3643 101.305 18.6252 101.486C18.98 101.73 27.4761 107.545 40.3284 111.473C47.8942 113.783 55.3988 114.943 62.6332 114.92C71.537 114.945 80.3365 113.02 88.4038 109.283C96.4712 105.546 103.607 100.089 109.303 93.3015C113.965 87.8136 117.884 81.3609 120.955 74.1252C122.627 70.1813 124.013 66.1239 125.102 61.9841C124.764 62.8557 124.406 63.7435 124.023 64.6454Z" fill="#E2DAE3"/>
<path d="M59.7761 48.4681C54.3867 50.9648 49.8648 54.9904 46.7822 60.036C43.6997 65.0815 42.1949 70.9203 42.4582 76.8141C42.7215 82.7078 44.741 88.3918 48.2614 93.1471C51.7818 97.9025 56.645 101.516 62.2358 103.53C67.8267 105.544 73.8943 105.869 79.6712 104.463C85.4481 103.057 90.6748 99.9831 94.6905 95.6309C98.7062 91.2787 101.33 85.8431 102.231 80.0117C103.132 74.1802 102.27 68.2147 99.7521 62.8696C96.3696 55.7083 90.2611 50.1702 82.7667 47.4703C75.2723 44.7704 67.004 45.1293 59.7761 48.4681V48.4681Z" fill="#FFE8A0"/>
<path d="M87.5952 96.0606C82.4746 98.4358 76.7825 99.3309 71.1723 98.6429C65.5621 97.9549 60.2612 95.7118 55.8782 92.1711C51.4951 88.6304 48.2076 83.9356 46.3931 78.6257C44.5785 73.3158 44.3104 67.606 45.6196 62.1519C43.719 65.9131 42.6425 70.0306 42.4607 74.2339C42.279 78.4371 42.9961 82.631 44.5651 86.5397C46.1341 90.4485 48.5193 93.9837 51.564 96.913C54.6087 99.8424 58.244 102.099 62.231 103.536C66.218 104.973 70.4663 105.556 74.6968 105.248C78.9273 104.94 83.0443 103.748 86.777 101.749C90.5098 99.7507 93.7738 96.9913 96.3547 93.6525C98.9356 90.3137 100.775 86.4709 101.752 82.3768C98.7318 88.3968 93.7406 93.2214 87.5952 96.0606V96.0606Z" fill="#FFDA63"/>
<path d="M81.1785 56.8947C79.0404 56.5498 72.0761 56.2958 68.204 66.3699C57.9316 62.8511 53.6576 68.3064 52.551 70.1567C49.3485 75.5164 51.1953 83.1203 56.7521 87.4874C66.7942 95.3826 79.9638 93.975 80.5183 93.9121C80.923 93.8655 81.3015 93.6896 81.5967 93.4111C82.0009 93.0312 91.5426 83.9173 91.8833 71.2146C92.0736 64.184 87.3697 57.8921 81.1785 56.8947Z" fill="url(#paint4_linear)"/>
<path d="M60.7158 83.7892C55.159 79.4221 53.3146 71.8113 56.5124 66.4608C54.8761 67.3105 53.506 68.5888 52.551 70.1567C49.3485 75.5165 51.1953 83.1204 56.7521 87.4874C66.7942 95.3826 79.9637 93.9751 80.5183 93.9122C80.923 93.8655 81.3015 93.6897 81.5967 93.4112C82.6178 92.4127 83.5677 91.3452 84.4397 90.2163C83.4693 90.3211 70.5841 91.5469 60.7158 83.7892Z" fill="#FF7E8E"/>
<path d="M84.5313 57.5309C84.1977 59.1622 84.0614 61.1756 85.7061 62.1916C87.1041 63.0515 88.6055 62.2452 89.5877 61.1663C90.5698 60.0873 91.6036 58.3699 90.4359 57.0346C89.4584 55.9184 87.6869 56.163 86.5755 56.9157C86.0174 57.3028 85.561 57.8169 85.2446 58.415C84.9282 59.013 84.761 59.6776 84.7569 60.353C84.7687 61.7792 85.7766 63.457 87.4073 63.2659C88.7136 63.1121 89.348 61.7885 89.301 60.593C89.2376 58.9944 87.9759 57.5962 86.5943 56.9227C85.8283 56.5499 85.0905 57.0183 85.0036 57.8292C84.7687 60.12 85.927 63.1564 88.7818 62.5458C89.8015 62.3291 90.6215 61.5904 90.7437 60.5348C90.9035 59.1622 89.8344 57.7547 88.8804 56.8552C87.0243 55.1004 83.669 55.38 83.4435 58.3605C83.2696 60.6909 84.5666 63.2706 87.2028 63.0212C89.8109 62.7882 91.0468 60.113 90.0529 57.8455C88.9909 55.4197 85.779 54.3757 84.0967 56.8458C82.5295 59.1505 84.0379 62.3664 85.9247 64.0209C87.8114 65.6755 90.8964 65.7221 91.5919 62.8884C92.1605 60.5581 90.8377 57.1511 88.4951 56.2819C85.786 55.2798 83.7959 57.743 83.8594 60.2854C83.9275 62.7416 86.0844 65.1115 88.7183 64.48C91.4321 63.8205 92.1017 60.6396 91.1878 58.3652C90.3583 56.3029 88.0534 53.1289 85.45 54.4316C82.9971 55.6597 83.0816 59.0923 83.8852 61.3247C84.7146 63.6131 87.4895 65.5193 89.8085 63.8741C91.9678 62.3431 91.2183 59.0107 89.8085 57.2536C88.3353 55.4313 85.7672 55.5059 84.1531 57.1464C82.3603 58.9734 82.8725 61.7162 84.8062 63.2053C86.5285 64.5406 90.2902 65.0696 90.786 62.2173C91.1878 59.8869 89.1742 57.778 87.0031 57.3002C81.834 56.1607 79.3528 63.3871 83.3589 66.2604C85.3208 67.6586 88.185 67.7215 90.1187 66.2394C92.4918 64.4218 91.6882 61.2944 90.1915 59.1645C88.8335 57.2327 86.0163 55.8158 84.2494 58.0972C82.8866 59.8543 83.4176 62.5761 85.6474 63.3125C87.8772 64.0489 90.3466 62.6134 90.6286 60.2831C90.7507 59.1612 90.426 58.0364 89.7236 57.1487C89.0213 56.261 87.9969 55.6806 86.8692 55.5315C80.5065 54.7509 79.085 64.0909 84.2306 66.6752C86.3875 67.7588 89.3339 67.1413 90.4241 64.8738C91.364 62.9117 90.6732 60.381 89.1131 58.9268C87.4472 57.3748 84.0262 56.9064 83.2015 59.6073C82.4707 61.9842 84.2306 64.7806 86.8058 64.7806C89.1882 64.7806 90.9951 62.385 89.8226 60.1875C88.5139 57.7314 85.2198 58.491 83.8805 60.5045C82.5107 62.5668 83.3401 65.3725 85.7931 66.1299C88.1544 66.8593 90.2691 64.9834 90.2362 62.6204C90.2033 60.2574 87.4754 57.5566 84.9637 58.1555C82.8349 58.6728 82.0196 61.3993 82.9595 63.21C84.1202 65.4448 87.0149 65.7734 89.2258 65.2234C90.5463 64.8995 89.9871 62.8744 88.6643 63.2007C87.6117 63.4617 86.3147 63.5339 85.3748 62.8534C84.67 62.3384 84.3011 60.9729 85.1399 60.353C86.0797 59.6539 87.654 61.143 87.9712 61.9679C88.3964 63.0725 87.6939 64.5779 86.3452 64.1025C85.2104 63.7017 85.0318 62.4596 85.6967 61.5578C86.0257 61.115 86.7 60.6256 87.2992 60.7025C87.4419 60.7306 87.5765 60.7901 87.6931 60.8765C87.8096 60.9629 87.9052 61.0741 87.9728 61.2019C88.0404 61.3298 88.0783 61.471 88.0837 61.6152C88.0891 61.7594 88.0619 61.903 88.004 62.0355C87.4472 63.2822 85.7555 62.5412 85.3373 61.6393C85.1023 61.1337 84.9472 60.1689 85.5393 59.824C86.0774 59.5094 86.9491 59.9102 87.3908 60.2435C88.9133 61.3783 89.4514 64.3565 87.2099 65.023C84.2306 65.9085 82.4707 62.0355 83.3542 59.6982C83.5637 59.1081 83.9459 58.5933 84.4519 58.2197C84.9579 57.8461 85.5648 57.6307 86.1949 57.6009C86.79 57.5774 87.3705 57.7876 87.8104 58.1859C88.2502 58.5842 88.514 59.1385 88.5445 59.7285C88.554 59.9631 88.5124 60.197 88.4224 60.4142C88.3324 60.6314 88.1962 60.8267 88.0231 60.9869C87.85 61.1471 87.644 61.2683 87.4193 61.3423C87.1946 61.4163 86.9565 61.4413 86.7212 61.4156C85.6474 61.3411 85.2339 60.1736 85.9129 59.3696C87.2851 57.7383 91.0562 62.9047 88.7747 64.6431C87.0548 65.9505 83.9627 65.1092 83.4693 62.9373C82.9994 60.8727 84.7921 58.6146 86.9937 59.4954C87.7667 59.8054 88.8288 60.6955 88.7183 61.6393C88.5539 63.0608 86.1056 61.7442 85.6004 61.0894C84.9378 60.2295 84.9919 59.1459 85.8495 58.4468C86.9021 57.5892 87.9124 57.9993 88.5233 59.1202C88.9509 59.9056 89.5501 61.665 88.4904 62.2452C87.0807 63.0142 85.9951 61.1733 85.732 60.1036C85.497 59.1366 85.1657 57.0299 86.2418 56.4031C87.4166 55.7179 88.7089 57.9993 89.1084 58.8453C89.5783 59.8543 89.7991 61.3667 88.7888 62.1683C87.513 63.1843 86.115 61.7162 85.9881 60.4718C85.8471 59.0993 86.8269 57.3632 88.3071 58.5796C89.1718 59.2787 90.0318 61.5485 89.4819 62.639C88.6666 64.2516 86.7329 61.919 86.2771 61.136C85.8448 60.3996 85.3678 59.4442 85.6098 58.5726C85.8307 57.7686 86.5144 57.2397 87.3086 57.7104C88.3588 58.3303 88.8476 60.2738 87.4801 60.847C86.0515 61.4389 85.1469 59.4954 85.5769 58.3349C86.2818 56.4007 89.1013 59.8683 88.6055 60.4066C88.2367 60.8191 87.5576 60.339 87.3556 60.0314C86.9491 59.4115 87.0501 58.5307 87.1206 57.8409L85.5393 58.7381C86.1385 59.0317 87.654 60.1363 87.184 60.9845C87.0196 61.2758 86.8927 60.3996 86.8997 60.2038C86.9292 59.7421 87.1117 59.3029 87.419 58.9548C87.5999 58.752 88.2038 58.2394 88.5186 58.3675C89.1154 58.6006 88.2837 59.4581 88.0957 59.6818C87.7174 60.106 87.1558 60.7328 86.6389 60.2038C86.169 59.7191 86.4604 58.6518 86.5731 58.0926C86.8433 56.7736 84.8039 56.2096 84.536 57.5356L84.5313 57.5309Z" fill="white"/>
<path d="M66.7425 69.0754C64.1133 67.0457 60.3822 67.1552 58.1806 69.7745C55.8075 72.6035 56.8554 76.3321 58.7233 79.1122C59.4752 80.2307 61.3079 79.1821 60.5513 78.0542C59.3107 76.2109 58.1524 73.6941 59.4611 71.5805C59.7538 71.114 60.1419 70.7136 60.6005 70.4053C61.059 70.097 61.5777 69.8876 62.123 69.7908C62.6683 69.6939 63.2281 69.7117 63.766 69.8429C64.3039 69.9742 64.8081 70.2161 65.2458 70.5528C66.3078 71.3731 67.8139 69.898 66.7425 69.0707V69.0754Z" fill="white"/>
<path d="M70.3304 71.9906C71.6908 71.9906 71.6932 69.8933 70.3304 69.8933C68.9677 69.8933 68.9677 71.9906 70.3304 71.9906Z" fill="white"/>
<defs>
<linearGradient id="paint0_linear" x1="8.20894" y1="105.276" x2="136.405" y2="44.8932" gradientUnits="userSpaceOnUse">
<stop stop-color="#FF97B3"/>
<stop offset="1" stop-color="#FF7565"/>
</linearGradient>
<linearGradient id="paint1_linear" x1="2831.34" y1="-3298.09" x2="3013.24" y2="-3298.09" gradientUnits="userSpaceOnUse">
<stop stop-color="#FF97B3"/>
<stop offset="1" stop-color="#FF7565"/>
</linearGradient>
<linearGradient id="paint2_linear" x1="3245.19" y1="-3289.03" x2="3528.32" y2="-3289.03" gradientUnits="userSpaceOnUse">
<stop stop-color="#FF97B3"/>
<stop offset="1" stop-color="#FF7565"/>
</linearGradient>
<linearGradient id="paint3_linear" x1="2099.2" y1="-2263.82" x2="2670.77" y2="-2263.82" gradientUnits="userSpaceOnUse">
<stop stop-color="#FF97B3"/>
<stop offset="1" stop-color="#FF7565"/>
</linearGradient>
<linearGradient id="paint4_linear" x1="54.5684" y1="86.6849" x2="92.5476" y2="68.7959" gradientUnits="userSpaceOnUse">
<stop stop-color="#FFACAC"/>
<stop offset="1" stop-color="#FF667A"/>
</linearGradient>
</defs>
</svg>
