<svg viewBox="0 0 146 146" fill="none" xmlns="http://www.w3.org/2000/svg">
<path d="M55.5601 110.427C55.2721 110.421 54.9979 110.305 54.7948 110.104C54.5918 109.903 54.4755 109.633 54.4704 109.35C54.4652 109.068 54.5716 108.794 54.7672 108.586C54.9628 108.378 55.2326 108.253 55.5202 108.236C57.3155 108.151 59.1647 108.005 61.0163 107.8C61.3104 107.768 61.6055 107.852 61.8368 108.033C62.0681 108.214 62.2165 108.478 62.2495 108.767C62.2825 109.056 62.1973 109.346 62.0127 109.573C61.8281 109.8 61.5591 109.946 61.2651 109.978C59.3665 110.188 57.4703 110.338 55.6328 110.425L55.5601 110.427ZM45.3375 110.229H45.2437C43.3477 110.052 41.4634 109.769 39.5997 109.384C39.3201 109.313 39.0791 109.139 38.9273 108.898C38.7755 108.657 38.7246 108.367 38.7853 108.09C38.8459 107.813 39.0135 107.57 39.2528 107.411C39.4922 107.253 39.7847 107.192 40.069 107.24C41.8514 107.609 43.6534 107.878 45.4666 108.047C45.75 108.078 46.0104 108.215 46.1945 108.429C46.3786 108.643 46.4724 108.917 46.4568 109.197C46.4412 109.477 46.3173 109.74 46.1105 109.932C45.9038 110.125 45.6297 110.233 45.3446 110.234L45.3375 110.229ZM30.3182 105.821C30.1129 105.818 29.9124 105.76 29.7386 105.653C28.3252 104.788 27.0329 103.746 25.8946 102.553C25.6857 102.322 25.4768 102.092 25.275 101.862C25.1729 101.753 25.0943 101.625 25.0437 101.486C24.9931 101.347 24.9716 101.199 24.9806 101.052C24.9896 100.904 25.0288 100.76 25.0959 100.628C25.163 100.496 25.2566 100.378 25.3711 100.282C25.4856 100.187 25.6186 100.115 25.7622 100.07C25.9058 100.026 26.057 100.011 26.2067 100.026C26.3564 100.041 26.5015 100.085 26.6334 100.156C26.7652 100.227 26.8811 100.324 26.9741 100.44C27.1571 100.647 27.3425 100.855 27.5303 101.053C28.5377 102.105 29.6799 103.025 30.9284 103.788C31.1336 103.916 31.2908 104.106 31.3762 104.329C31.4615 104.553 31.4704 104.797 31.4014 105.026C31.3324 105.255 31.1893 105.455 30.9938 105.597C30.7984 105.739 30.5612 105.814 30.3182 105.812V105.821ZM86.2652 103.578C86.0084 103.575 85.7605 103.485 85.5633 103.324C85.3661 103.162 85.2316 102.939 85.1826 102.691C85.1335 102.443 85.1729 102.187 85.294 101.964C85.4151 101.742 85.6106 101.567 85.8475 101.47C87.5254 100.778 89.2198 100.027 90.8789 99.2344C91.1442 99.1154 91.4464 99.103 91.7209 99.1998C91.9954 99.2967 92.2204 99.4951 92.3479 99.7527C92.4754 100.01 92.4952 100.307 92.4032 100.578C92.3111 100.85 92.1144 101.076 91.8552 101.207C90.1585 102.016 88.4266 102.786 86.7111 103.491C86.5682 103.549 86.4151 103.579 86.2605 103.578H86.2652ZM100.329 96.4874C100.088 96.4839 99.8538 96.4036 99.6626 96.2584C99.4714 96.1132 99.3333 95.9111 99.269 95.6823C99.2048 95.4535 99.2178 95.2104 99.3062 94.9895C99.3945 94.7686 99.5535 94.5818 99.7591 94.4572C101.331 93.51 102.887 92.5122 104.385 91.4936C104.628 91.3394 104.923 91.2842 105.207 91.3396C105.492 91.3951 105.743 91.5568 105.908 91.7907C106.073 92.0246 106.139 92.3123 106.092 92.5931C106.045 92.8739 105.889 93.1258 105.657 93.2957C104.124 94.3373 102.535 95.3559 100.928 96.3261C100.746 96.4342 100.537 96.4901 100.325 96.4874H100.329ZM21.3371 93.4409C21.1012 93.438 20.8724 93.3617 20.6834 93.223C20.4945 93.0842 20.3553 92.8902 20.2858 92.6689C19.7243 90.8663 19.3038 89.0242 19.0279 87.1588C19.0017 87.0145 19.0051 86.8665 19.0381 86.7236C19.071 86.5807 19.1328 86.4457 19.2198 86.3266C19.3068 86.2075 19.4172 86.1068 19.5444 86.0303C19.6717 85.9538 19.8133 85.9031 19.9609 85.8812C20.1084 85.8594 20.259 85.8668 20.4036 85.903C20.5482 85.9392 20.6839 86.0035 20.8028 86.092C20.9217 86.1806 21.0213 86.2917 21.0957 86.4187C21.1702 86.5457 21.2179 86.6861 21.2362 86.8315C21.4924 88.586 21.8846 90.3186 22.4096 92.0144C22.4546 92.1527 22.4712 92.2983 22.4584 92.4429C22.4457 92.5876 22.4038 92.7283 22.3353 92.8569C22.2667 92.9855 22.1729 93.0995 22.0591 93.1922C21.9454 93.2849 21.8141 93.3546 21.6727 93.3971C21.5638 93.4287 21.4506 93.4434 21.3371 93.4409V93.4409ZM113.096 87.3316C112.87 87.3293 112.649 87.2594 112.465 87.1312C112.28 87.003 112.139 86.8227 112.061 86.6141C111.983 86.4055 111.972 86.1785 112.028 85.9634C112.085 85.7483 112.207 85.5551 112.378 85.4096C113.786 84.2067 115.14 82.9669 116.407 81.7224C116.51 81.6168 116.633 81.5325 116.77 81.4744C116.906 81.4162 117.053 81.3854 117.202 81.3838C117.351 81.3822 117.498 81.4098 117.636 81.4649C117.774 81.5201 117.899 81.6017 118.004 81.705C118.109 81.8083 118.193 81.9312 118.249 82.0665C118.305 82.2018 118.333 82.3468 118.331 82.4929C118.33 82.6389 118.298 82.7832 118.239 82.9173C118.18 83.0513 118.094 83.1724 117.986 83.2734C116.682 84.5524 115.288 85.8268 113.842 87.062C113.634 87.2407 113.365 87.3368 113.089 87.3316H113.096ZM19.8493 78.0744H19.7531C19.607 78.0603 19.4653 78.018 19.3359 77.9499C19.2066 77.8819 19.0922 77.7895 18.9993 77.6779C18.9064 77.5664 18.8369 77.4379 18.7947 77.2999C18.7525 77.1619 18.7384 77.0171 18.7533 76.8737C18.9463 74.9999 19.2844 73.1432 19.7648 71.3198C19.7913 71.1714 19.8487 71.0299 19.9334 70.9042C20.018 70.7785 20.1282 70.6713 20.2569 70.5892C20.3856 70.5072 20.5302 70.4521 20.6816 70.4273C20.833 70.4026 20.9879 70.4087 21.1368 70.4454C21.2857 70.482 21.4252 70.5484 21.5468 70.6404C21.6684 70.7324 21.7694 70.848 21.8434 70.98C21.9175 71.112 21.9631 71.2576 21.9773 71.4076C21.9915 71.5577 21.9741 71.709 21.9262 71.8522C21.474 73.568 21.1563 75.3154 20.9757 77.0788C20.9493 77.3532 20.8188 77.6079 20.6101 77.7923C20.4015 77.9766 20.1299 78.0773 19.8493 78.0744ZM123.863 76.0003C123.63 75.998 123.404 75.9239 123.217 75.7883C122.98 75.6151 122.822 75.3567 122.778 75.0696C122.734 74.7824 122.808 74.4899 122.983 74.2558C124.06 72.8161 125.059 71.3215 125.975 69.7781C126.045 69.6474 126.141 69.532 126.258 69.4388C126.375 69.3456 126.51 69.2765 126.654 69.2356C126.799 69.1948 126.95 69.1831 127.1 69.2011C127.249 69.2192 127.393 69.2667 127.523 69.3408C127.653 69.4149 127.767 69.514 127.857 69.6323C127.947 69.7505 128.012 69.8854 128.048 70.0289C128.084 70.1724 128.09 70.3216 128.065 70.4674C128.041 70.6131 127.987 70.7526 127.906 70.8774C126.949 72.4903 125.905 74.0519 124.778 75.5555C124.673 75.6961 124.535 75.8098 124.375 75.8872C124.216 75.9645 124.04 76.0033 123.863 76.0003V76.0003ZM24.7141 63.4084C24.5189 63.4069 24.3276 63.355 24.1593 63.2579C23.991 63.1607 23.8517 63.0218 23.7554 62.8551C23.659 62.6883 23.6091 62.4996 23.6106 62.3079C23.612 62.1163 23.6648 61.9283 23.7637 61.763C24.7237 60.1345 25.8038 58.5771 26.9952 57.1033C27.0847 56.9856 27.1973 56.8868 27.3263 56.8127C27.4554 56.7386 27.5983 56.6907 27.7466 56.6718C27.8948 56.6529 28.0455 56.6635 28.1895 56.7028C28.3336 56.7422 28.4681 56.8095 28.5852 56.9008C28.7022 56.9922 28.7994 57.1057 28.871 57.2346C28.9425 57.3635 28.987 57.5052 29.0018 57.6513C29.0166 57.7974 29.0013 57.9449 28.957 58.0851C28.9126 58.2254 28.84 58.3554 28.7435 58.4676C27.6181 59.8577 26.5984 61.3274 25.6927 62.8646C25.5935 63.0324 25.4506 63.1713 25.2786 63.2669C25.1066 63.3625 24.9117 63.4113 24.7141 63.4084V63.4084ZM130.92 62.2032C130.75 62.2 130.583 62.1589 130.431 62.0831C130.28 62.0073 130.148 61.8987 130.046 61.7656C129.943 61.6324 129.873 61.4781 129.84 61.3144C129.808 61.1507 129.813 60.9818 129.856 60.8205C130.324 59.1232 130.629 57.3863 130.765 55.633C130.771 55.4863 130.808 55.3425 130.872 55.2099C130.936 55.0773 131.027 54.9588 131.138 54.8612C131.25 54.7637 131.381 54.6892 131.522 54.6421C131.664 54.595 131.814 54.5763 131.963 54.5871C132.112 54.5979 132.257 54.638 132.39 54.705C132.523 54.7719 132.641 54.8645 132.737 54.977C132.833 55.0896 132.905 55.22 132.949 55.3603C132.993 55.5007 133.007 55.6483 132.992 55.7943C132.846 57.6856 132.518 59.5591 132.013 61.3897C131.949 61.6252 131.806 61.833 131.608 61.9802C131.41 62.1275 131.168 62.2059 130.92 62.2032V62.2032ZM130.631 46.8943C130.397 46.891 130.17 46.8159 129.982 46.6795C129.794 46.5431 129.654 46.3523 129.582 46.1338C129.037 44.47 128.306 42.8709 127.402 41.3657C127.257 41.1158 127.219 40.8202 127.294 40.5425C127.369 40.2648 127.552 40.0271 127.804 39.8807C128.056 39.7343 128.356 39.6907 128.64 39.7594C128.925 39.8281 129.17 40.0036 129.324 40.2481C130.311 41.8938 131.112 43.6412 131.71 45.4586C131.756 45.5956 131.774 45.7402 131.762 45.884C131.751 46.0278 131.711 46.168 131.644 46.2965C131.577 46.425 131.485 46.5393 131.374 46.6328C131.262 46.7263 131.132 46.7971 130.992 46.8413C130.876 46.878 130.753 46.8959 130.631 46.8943V46.8943ZM121.417 34.6158C121.194 34.613 120.976 34.5439 120.793 34.4176C119.322 33.4153 117.756 32.5526 116.118 31.8412C115.867 31.7125 115.674 31.4944 115.58 31.2313C115.486 30.9682 115.498 30.6798 115.612 30.4248C115.727 30.1698 115.937 29.9672 116.198 29.8583C116.459 29.7494 116.753 29.7424 117.02 29.8386C118.788 30.6061 120.479 31.5375 122.068 32.6201C122.263 32.7547 122.41 32.9474 122.486 33.1699C122.562 33.3925 122.564 33.6331 122.49 33.8565C122.417 34.0798 122.272 34.2741 122.078 34.4108C121.883 34.5475 121.649 34.6194 121.41 34.6158H121.417ZM72.2315 32.9197C71.9787 32.9129 71.7356 32.8219 71.5422 32.6618C71.3488 32.5017 71.2165 32.2819 71.1669 32.0383C71.1173 31.7947 71.1533 31.5418 71.2691 31.321C71.385 31.1001 71.5737 30.9244 71.8044 30.8226C73.5387 30.0598 75.3246 29.3707 77.0917 28.7762C77.232 28.7228 77.3818 28.6978 77.5321 28.7027C77.6825 28.7076 77.8303 28.7422 77.9667 28.8046C78.1031 28.867 78.2252 28.9557 78.3258 29.0656C78.4264 29.1754 78.5034 29.3041 78.5521 29.4439C78.6008 29.5836 78.6203 29.7316 78.6093 29.879C78.5983 30.0263 78.5572 30.17 78.4883 30.3013C78.4194 30.4327 78.3242 30.549 78.2084 30.6433C78.0926 30.7376 77.9587 30.808 77.8145 30.8502C76.1037 31.4241 74.3905 32.0878 72.7196 32.8252C72.5661 32.892 72.3994 32.9243 72.2315 32.9197V32.9197ZM85.4368 29.2186C85.1571 29.2168 84.8884 29.1118 84.6839 28.9244C84.4794 28.7371 84.3541 28.4811 84.3328 28.2073C84.3115 27.9334 84.3959 27.6617 84.5691 27.4461C84.7423 27.2305 84.9917 27.0867 85.2678 27.0432C86.8848 26.7759 88.5322 26.5823 90.1632 26.4486L90.9118 26.391C91.203 26.3762 91.4886 26.4738 91.7076 26.663C91.9265 26.8522 92.0614 27.1179 92.0835 27.4035C92.1056 27.6891 92.013 27.9718 91.8257 28.1912C91.6383 28.4107 91.371 28.5495 91.0808 28.578C90.8062 28.5964 90.5621 28.6172 90.3486 28.6333C88.7739 28.7554 87.1922 28.949 85.6386 29.2048C85.572 29.2162 85.5044 29.2208 85.4368 29.2186V29.2186ZM106.757 29.1311C106.7 29.1311 106.643 29.1264 106.586 29.1172C104.854 28.8315 103.026 28.6218 101.148 28.4996C101.002 28.4899 100.859 28.452 100.728 28.3881C100.596 28.3241 100.479 28.2354 100.382 28.1269C100.187 27.9078 100.089 27.6216 100.109 27.3312C100.129 27.0409 100.265 26.7703 100.488 26.5788C100.712 26.3874 101.003 26.2908 101.299 26.3103C103.249 26.4394 105.152 26.656 106.957 26.9533C107.233 27.0003 107.481 27.1477 107.652 27.3661C107.823 27.5846 107.904 27.8581 107.879 28.1324C107.853 28.4067 107.724 28.6617 107.516 28.8467C107.309 29.0317 107.038 29.1332 106.757 29.1311V29.1311Z" fill="url(#paint0_linear)"/>
<path d="M75.0127 98.3541L90.783 123.646C90.8486 123.75 90.9397 123.837 91.048 123.898C91.1563 123.959 91.2783 123.992 91.4031 123.995C91.5279 123.998 91.6513 123.97 91.7623 123.914C91.8733 123.858 91.9682 123.775 92.0385 123.674L131.805 65.8973L75.0127 98.3541Z" fill="url(#paint1_linear)"/>
<path d="M91.1559 123.948C91.3129 124.007 91.4855 124.011 91.6456 123.962C91.8057 123.912 91.9441 123.81 92.0383 123.674L131.804 65.8973L82.4353 99.0455L91.1559 123.948Z" fill="url(#paint2_linear)"/>
<path d="M82.4353 99.0455L111.322 104.83C111.647 104.895 111.985 104.852 112.282 104.708C112.58 104.563 112.82 104.326 112.964 104.032L131.804 65.8973L82.4353 99.0455Z" fill="#F0ECF0"/>
<path d="M75.0126 98.3541L56.8908 94.0839C56.7353 94.0462 56.5962 93.9605 56.4939 93.8394C56.3916 93.7183 56.3316 93.5682 56.3227 93.4111C56.3138 93.254 56.3564 93.0983 56.4443 92.9668C56.5322 92.8352 56.6608 92.7349 56.8111 92.6804L131.804 65.8973L75.0126 98.3541Z" fill="#F0ECF0"/>
<path d="M51.2422 23.0749C48.5105 22.7661 39.6656 22.8168 35.317 35.6714C22.0906 31.8113 16.9746 38.8977 15.6745 41.2782C11.9197 48.1688 14.6772 57.6403 21.9686 62.8139C35.1433 72.1818 51.7725 69.6998 52.4766 69.5892C52.9869 69.5069 53.4562 69.2643 53.8142 68.8979C54.3094 68.3978 65.9001 56.4374 65.6279 40.4671C65.4636 31.6362 59.1508 23.9921 51.2422 23.0749Z" fill="url(#paint3_linear)"/>
<path d="M28.1875 59.1105C20.8961 53.9254 18.1316 44.4653 21.8935 37.5748C22.3874 36.6823 22.992 35.8533 23.6934 35.1067C22.0017 35.5502 20.4189 36.3257 19.0407 37.3864C17.6625 38.4471 16.5174 39.771 15.6745 41.2782C11.9197 48.1687 14.6772 57.6402 21.9686 62.8139C35.141 72.1817 51.7725 69.6998 52.4766 69.5892C52.9865 69.5058 53.4556 69.2634 53.8142 68.8978C54.652 68.0171 55.4424 67.0941 56.1821 66.1324C50.923 66.5149 38.4992 66.4435 28.1875 59.1105Z" fill="url(#paint4_linear)"/>
<path d="M74.1842 107.111C73.9108 107.11 73.6472 107.011 73.4434 106.832C73.2395 106.653 73.1095 106.407 73.078 106.141C73.0465 105.874 73.1156 105.605 73.2723 105.385C73.4291 105.165 73.6625 105.01 73.9284 104.947C75.4702 104.588 76.9792 104.194 78.3872 103.777L79.2344 103.523C79.515 103.445 79.8157 103.477 80.0722 103.614C80.3287 103.75 80.5207 103.98 80.6072 104.253C80.6936 104.527 80.6676 104.823 80.5348 105.078C80.4019 105.333 80.1727 105.527 79.8962 105.618L79.0255 105.876C77.5659 106.307 76.0217 106.71 74.4376 107.081C74.3544 107.1 74.2695 107.11 74.1842 107.111V107.111Z" fill="url(#paint5_linear)"/>
<path d="M69.2021 23.9666C69.3429 24.0141 69.4729 24.0883 69.5846 24.1851C69.6962 24.282 69.7873 24.3994 69.8527 24.5308C69.9181 24.6622 69.9565 24.805 69.9656 24.951C69.9748 25.097 69.9546 25.2433 69.9061 25.3816L66.799 34.2885C66.7807 34.3405 66.7735 34.3957 66.7779 34.4505C66.7824 34.5053 66.7983 34.5587 66.8248 34.6071C66.8512 34.6556 66.8876 34.6982 66.9316 34.7322C66.9757 34.7662 67.0264 34.7909 67.0806 34.8048L76.3527 37.2015C76.6433 37.2767 76.8916 37.4622 77.043 37.7171C77.1944 37.9721 77.2365 38.2757 77.16 38.5611V38.5611C77.1221 38.7024 77.0562 38.8349 76.966 38.9511C76.8759 39.0674 76.7633 39.165 76.6347 39.2384C76.506 39.3118 76.3639 39.3596 76.2165 39.379C76.069 39.3985 75.9191 39.3891 75.7754 39.3516L64.9051 36.5401C64.7546 36.5009 64.6139 36.4317 64.4918 36.3367C64.3697 36.2417 64.2688 36.1231 64.1955 35.9882C64.1222 35.8532 64.0779 35.7049 64.0656 35.5525C64.0532 35.4 64.073 35.2467 64.1237 35.102L67.7658 24.658C67.863 24.3793 68.0688 24.1499 68.3382 24.0202C68.6075 23.8906 68.9183 23.8713 69.2021 23.9666V23.9666Z" fill="url(#paint6_linear)"/>
<path d="M41.1089 32.6271C42.6732 30.1121 45.173 28.2938 48.0788 27.5571C51.8336 26.5985 55.6213 27.9328 58.0572 30.8342C58.9208 31.8666 60.404 30.3917 59.5498 29.3685C53.9715 22.7223 43.5917 24.6304 39.2831 31.5877C38.579 32.74 40.4025 33.7747 41.1089 32.634V32.6271Z" fill="white"/>
<path d="M61.636 34.8163C62.9948 34.8163 62.9971 32.7422 61.636 32.7422C60.2749 32.7422 60.2725 34.8163 61.636 34.8163Z" fill="white"/>
<path d="M34.7444 36.7844C32.1256 35.8105 29.3255 35.3957 26.5307 35.5676C25.1813 35.6506 25.1719 37.7247 26.5307 37.6417C29.1394 37.4818 31.7525 37.8748 34.1929 38.794C35.4649 39.2687 36.0163 37.2638 34.7538 36.7937L34.7444 36.7844Z" fill="white"/>
<path d="M38.0555 39.9323C39.4143 39.9323 39.4166 37.8583 38.0555 37.8583C36.6944 37.8583 36.6944 39.9323 38.0555 39.9323Z" fill="white"/>
<defs>
<linearGradient id="paint0_linear" x1="19.0033" y1="67.5884" x2="132.948" y2="68.7487" gradientUnits="userSpaceOnUse">
<stop stop-color="#FF97B3"/>
<stop offset="1" stop-color="#FF7565"/>
</linearGradient>
<linearGradient id="paint1_linear" x1="83.0884" y1="111.291" x2="138.54" y2="76.6737" gradientUnits="userSpaceOnUse">
<stop stop-color="#DB9CBF"/>
<stop offset="1" stop-color="#E0A4C9"/>
</linearGradient>
<linearGradient id="paint2_linear" x1="83.6123" y1="111.835" x2="138.932" y2="77.3006" gradientUnits="userSpaceOnUse">
<stop stop-color="#FFACAC"/>
<stop offset="1" stop-color="#972CC5"/>
</linearGradient>
<linearGradient id="paint3_linear" x1="19.1602" y1="61.9251" x2="66.114" y2="37.0025" gradientUnits="userSpaceOnUse">
<stop stop-color="#FFACAC"/>
<stop offset="1" stop-color="#FF667A"/>
</linearGradient>
<linearGradient id="paint4_linear" x1="33001.3" y1="-22.4836" x2="37877.5" y2="-2610.72" gradientUnits="userSpaceOnUse">
<stop stop-color="#FF97B3"/>
<stop offset="1" stop-color="#FF7565"/>
</linearGradient>
<linearGradient id="paint5_linear" x1="1982.81" y1="1399.81" x2="2229.08" y2="1399.81" gradientUnits="userSpaceOnUse">
<stop stop-color="#FF97B3"/>
<stop offset="1" stop-color="#FF7565"/>
</linearGradient>
<linearGradient id="paint6_linear" x1="-621.6" y1="605.102" x2="7987.8" y2="605.102" gradientUnits="userSpaceOnUse">
<stop stop-color="#FF97B3"/>
<stop offset="1" stop-color="#FF7565"/>
</linearGradient>
</defs>
</svg>
