<svg viewBox="0 0 146 146" fill="none" xmlns="http://www.w3.org/2000/svg">
<path d="M105.378 117.297C105.131 117.087 104.958 116.802 104.887 116.486C104.816 116.169 104.85 115.838 104.984 115.543L107.995 109.988L87.7391 79.5689C87.5306 79.2388 87.4595 78.8403 87.541 78.4585C87.6224 78.0767 87.85 77.7418 88.175 77.5256C88.5001 77.3093 88.8968 77.2287 89.2805 77.301C89.6641 77.3734 90.0043 77.5929 90.2283 77.9126L110.485 108.33L117.126 107.975C117.451 107.965 117.769 108.062 118.034 108.249C118.299 108.437 118.495 108.706 118.594 109.015C118.692 109.324 118.687 109.657 118.579 109.963C118.471 110.269 118.267 110.532 117.996 110.712L107.174 117.402C106.904 117.582 106.583 117.669 106.258 117.65C105.934 117.632 105.625 117.507 105.378 117.297V117.297Z" fill="#F0ECF1"/>
<path d="M73.5202 95.6814C69.0668 100.865 62.3878 100.865 57.9343 95.6814C59.789 93.0897 63.1296 91.3634 63.1296 87.9062H68.6959C68.6959 91.3634 72.0365 93.0897 73.5202 95.6814Z" fill="url(#paint0_linear)"/>
<path d="M97.4812 19.5208C93.7976 17.0107 81.0368 10.4719 64.975 26.0316C48.9109 10.4742 36.1524 17.0107 32.4665 19.5208C21.8006 26.7897 18.5579 42.7086 25.0829 55.7582C36.8733 79.338 62.6585 88.1606 63.7549 88.5245C64.5486 88.7881 65.4062 88.7881 66.1998 88.5245C67.2916 88.1606 93.0791 79.338 104.869 55.7582C111.392 42.7086 108.149 26.7897 97.4812 19.5208Z" fill="url(#paint1_linear)"/>
<path d="M36.5583 55.2636C30.0332 42.2141 33.2759 26.2951 43.9418 19.0332C45.4882 17.9905 47.1703 17.1648 48.9411 16.5791C40.7131 14.6849 34.678 17.9204 32.3288 19.5207C21.6629 26.7897 18.4202 42.7063 24.9452 55.7582C36.7356 79.338 62.5208 88.1605 63.6126 88.5245C64.4074 88.7857 65.2649 88.7857 66.0597 88.5245C66.342 88.4288 68.2783 87.7686 71.1921 86.425C63.2626 82.9514 45.7031 73.5527 36.5583 55.2636Z" fill="#FF7E8E"/>
<path d="M68.8873 89.9498H62.7356C62.0544 89.9498 61.7114 89.6092 61.7114 88.9257C61.7114 88.2422 62.0544 87.8993 62.7356 87.8993H68.8873C69.5701 87.8993 69.9123 88.2414 69.9138 88.9257C69.5709 89.6162 69.2303 89.9498 68.8873 89.9498Z" fill="#9B9B9B"/>
<path d="M59.6608 96.7918C59.3179 96.7918 58.6367 96.4512 58.6367 96.1083C58.6367 95.4248 58.9773 95.0842 59.3179 94.7413C60.3444 94.4007 61.0279 94.0578 61.0279 92.6908C61.3685 90.2997 63.755 88.5898 63.755 88.5898C64.0956 88.2492 64.7792 88.2492 65.1221 88.9327C65.4627 89.2733 65.4627 89.9568 64.7792 90.2997C64.0956 90.6426 62.7286 92.0073 62.7286 93.0337C62.7286 95.0842 61.7044 96.4512 59.6538 96.7918H59.6608Z" fill="#9B9B9B"/>
<path d="M69.5708 128.231C69.5708 129.257 71.6214 129.257 71.6214 128.231C72.9885 122.422 73.672 115.587 70.5973 110.462C65.129 100.898 67.5202 89.2733 67.5202 89.2733V88.9327H65.4696C65.129 89.9568 63.419 101.576 68.8873 111.486C71.6214 116.271 70.9379 122.763 69.5708 128.231Z" fill="#9B9B9B"/>
<path d="M101.109 73.0417L89.6497 53.2761C89.5558 53.1136 89.4307 52.9712 89.2817 52.8571C89.1327 52.743 88.9626 52.6594 88.7813 52.6111C88.5999 52.5628 88.4108 52.5507 88.2248 52.5755C88.0387 52.6004 87.8594 52.6617 87.6971 52.7559L67.9307 64.2075C67.7685 64.3014 67.6264 64.4264 67.5125 64.5753C67.3987 64.7242 67.3153 64.894 67.2672 65.0752C67.2191 65.2563 67.2072 65.4452 67.2322 65.6309C67.2572 65.8167 67.3185 65.9957 67.4128 66.1577L78.8625 85.9234C80.5753 88.863 83.3842 91.0034 86.673 91.8751C89.9618 92.7467 93.462 92.2785 96.4061 90.573C99.3501 88.8676 101.498 86.0642 102.377 82.7777C103.257 79.4912 102.798 75.9899 101.099 73.0417H101.109Z" fill="#F0ECF1"/>
<path d="M99.8936 70.9447H70.1938L78.8721 85.9235C80.5849 88.8632 83.3938 91.0035 86.6826 91.8752C89.9714 92.7468 93.4716 92.2786 96.4157 90.5732C99.3597 88.8677 101.507 86.0643 102.387 82.7778C103.267 79.4913 102.807 75.99 101.109 73.0419L99.8936 70.9447Z" fill="#FFE8A0"/>
<path d="M81.8395 83.5604L74.5307 70.9447H70.1938L78.8721 85.9235C79.878 87.6627 81.2778 89.1417 82.9591 90.2417C84.6403 91.3418 86.5562 92.0322 88.5527 92.2575C90.5492 92.4827 92.5707 92.2366 94.4549 91.5389C96.339 90.8411 98.0332 89.7112 99.4014 88.2399C96.4528 89.9451 92.9478 90.41 89.6566 89.5326C86.3654 88.6551 83.5572 86.5071 81.8489 83.5604H81.8395Z" fill="#FFDA63"/>
<path d="M82.7211 78.0853C83.4607 78.0853 84.0602 77.4858 84.0602 76.7462C84.0602 76.0067 83.4607 75.4072 82.7211 75.4072C81.9816 75.4072 81.3821 76.0067 81.3821 76.7462C81.3821 77.4858 81.9816 78.0853 82.7211 78.0853Z" fill="#FFF5D9"/>
<path d="M90.0395 79.6902C90.7791 79.6902 91.3786 79.0907 91.3786 78.3512C91.3786 77.6117 90.7791 77.0122 90.0395 77.0122C89.3 77.0122 88.7004 77.6117 88.7004 78.3512C88.7004 79.0907 89.3 79.6902 90.0395 79.6902Z" fill="#FFF5D9"/>
<path d="M87.184 85.2236C87.9236 85.2236 88.5231 84.6241 88.5231 83.8845C88.5231 83.145 87.9236 82.5455 87.184 82.5455C86.4445 82.5455 85.845 83.145 85.845 83.8845C85.845 84.6241 86.4445 85.2236 87.184 85.2236Z" fill="#FFF5D9"/>
<path d="M15.292 118.797C15.3338 118.475 15.4794 118.175 15.7066 117.943C15.9338 117.71 16.2305 117.558 16.5517 117.509L22.8505 117.015L37.3586 83.474C37.5161 83.1099 37.8117 82.8233 38.1805 82.6772C38.5493 82.5311 38.9611 82.5374 39.3252 82.6949C39.6893 82.8524 39.976 83.148 40.1221 83.5168C40.2682 83.8856 40.2618 84.2973 40.1044 84.6614L25.5939 118.202L29.5062 123.582C29.6901 123.849 29.7822 124.169 29.7685 124.493C29.7547 124.817 29.6359 125.128 29.43 125.379C29.224 125.629 28.9421 125.806 28.6267 125.883C28.3114 125.959 27.9798 125.931 27.6819 125.802L16.1808 120.36C15.8829 120.231 15.6351 120.009 15.4747 119.727C15.3143 119.445 15.2502 119.119 15.292 118.797V118.797Z" fill="#F0ECF1"/>
<path d="M29.399 64.5366L40.2865 39.3682C40.3758 39.1616 40.505 38.9746 40.6666 38.818C40.8283 38.6614 41.0192 38.5382 41.2285 38.4554C41.4378 38.3727 41.6614 38.332 41.8864 38.3357C42.1115 38.3394 42.3336 38.3874 42.54 38.4771L67.7211 49.3595C68.1379 49.5404 68.4658 49.8793 68.6329 50.3018C68.8 50.7244 68.7926 51.1959 68.6122 51.613L57.713 76.7837C56.916 78.6533 55.7573 80.347 54.3036 81.7674C52.8498 83.1878 51.1297 84.3069 49.242 85.0604C47.3543 85.8139 45.3363 86.1868 43.304 86.1579C41.2717 86.129 39.2652 85.6987 37.3997 84.8918C35.5342 84.0849 33.8466 82.9173 32.4339 81.4561C31.0212 79.9949 29.9112 78.2689 29.1677 76.3773C28.4242 74.4858 28.0619 72.4659 28.1016 70.4339C28.1413 68.4018 28.5822 66.3977 29.399 64.5366Z" fill="#F0ECF1"/>
<path d="M60.7947 58.3195L64.7349 49.2217C64.8843 48.8742 64.9147 48.4871 64.8212 48.1206L67.721 49.3593C68.1378 49.5402 68.4658 49.8791 68.6329 50.3017C68.7999 50.7242 68.7925 51.1957 68.6121 51.6128L65.976 57.7107L60.7947 58.3195Z" fill="#E9DAEA"/>
<path d="M30.5538 61.8678L65.9644 57.7131L57.713 76.7836C56.916 78.6533 55.7573 80.347 54.3036 81.7674C52.8498 83.1878 51.1297 84.3069 49.242 85.0604C47.3543 85.8138 45.3363 86.1868 43.304 86.1579C41.2717 86.129 39.2652 85.6987 37.3997 84.8918C35.5342 84.0849 33.8466 82.9173 32.4339 81.4561C31.0212 79.9949 29.9112 78.2689 29.1677 76.3773C28.4242 74.4857 28.0619 72.4659 28.1016 70.4338C28.1413 68.4018 28.5822 66.3976 29.399 64.5365L30.5538 61.8678Z" fill="#FFE8A0"/>
<path d="M53.8472 74.3809L60.7945 58.3197L65.9642 57.7131L57.7128 76.7836C56.7567 78.9962 55.2951 80.9539 53.4454 82.4995C51.5958 84.045 49.4095 85.1355 47.0622 85.6833C44.7148 86.2311 42.2717 86.221 39.929 85.6538C37.5862 85.0866 35.4091 83.9781 33.5723 82.4173C37.327 84.0367 41.571 84.1 45.3723 82.5932C49.1737 81.0865 52.2217 78.1329 53.8472 74.3809V74.3809Z" fill="#FFDA63"/>
<path d="M44.5532 79.4126C45.4409 79.4126 46.1605 78.693 46.1605 77.8053C46.1605 76.9176 45.4409 76.198 44.5532 76.198C43.6654 76.198 42.9458 76.9176 42.9458 77.8053C42.9458 78.693 43.6654 79.4126 44.5532 79.4126Z" fill="#FFF5D9"/>
<path d="M39.7123 69.4096C40.6 69.4096 41.3197 68.69 41.3197 67.8024C41.3197 66.9147 40.6 66.1951 39.7123 66.1951C38.8246 66.1951 38.105 66.9147 38.105 67.8024C38.105 68.69 38.8246 69.4096 39.7123 69.4096Z" fill="#FFF5D9"/>
<path d="M52.0534 71.6305C52.9411 71.6305 53.6607 70.9109 53.6607 70.0232C53.6607 69.1355 52.9411 68.4159 52.0534 68.4159C51.1657 68.4159 50.446 69.1355 50.446 70.0232C50.446 70.9109 51.1657 71.6305 52.0534 71.6305Z" fill="#FFF5D9"/>
<path d="M87.8628 34.4295C86.2788 32.6566 83.3254 31.6302 79.5065 33.5664C77.029 30.0672 73.9426 29.6007 71.7147 30.4265C68.4207 31.6419 66.5194 35.5959 67.3779 39.4147C68.8453 45.9628 74.6611 49.7093 74.9061 49.8679C75.2199 50.0649 75.5888 50.1557 75.9582 50.1268C76.2498 50.1035 83.1411 49.5063 87.4989 44.4022C90.0417 41.4279 90.2027 37.0399 87.8628 34.4295Z" fill="#F0ECF1"/>
<path d="M50.2103 117.542C49.87 117.548 49.5414 117.418 49.2966 117.182C49.0518 116.945 48.911 116.621 48.9051 116.281C48.8992 115.941 49.0288 115.612 49.2652 115.367C49.5017 115.123 49.8257 114.982 50.166 114.976C52.2236 114.876 54.3442 114.705 56.4648 114.467C56.7948 114.443 57.1215 114.547 57.3765 114.758C57.6315 114.968 57.795 115.27 57.8327 115.599C57.8704 115.927 57.7794 116.258 57.5788 116.521C57.3781 116.784 57.0834 116.959 56.7564 117.01C54.5798 117.243 52.4056 117.428 50.2943 117.53L50.2103 117.542ZM38.4877 117.309H38.3804C36.2068 117.099 34.047 116.765 31.9113 116.31C31.7422 116.28 31.5809 116.216 31.437 116.122C31.2931 116.028 31.1696 115.906 31.0739 115.763C30.9781 115.621 30.912 115.46 30.8796 115.291C30.8471 115.123 30.849 114.949 30.885 114.781C30.921 114.613 30.9905 114.454 31.0892 114.314C31.188 114.173 31.314 114.054 31.4599 113.963C31.6057 113.872 31.7683 113.811 31.938 113.785C32.1078 113.758 32.2812 113.765 32.4479 113.807C34.4885 114.237 36.5517 114.553 38.6276 114.752C38.96 114.779 39.2687 114.934 39.488 115.185C39.7074 115.436 39.8199 115.763 39.8016 116.096C39.7834 116.429 39.6358 116.742 39.3903 116.967C39.1448 117.193 38.8209 117.314 38.4877 117.304V117.309ZM21.2618 112.165C21.0262 112.161 20.7962 112.092 20.5969 111.967C18.9768 110.956 17.4947 109.74 16.1878 108.348C15.9545 108.092 15.7095 107.824 15.4879 107.551C15.2804 107.291 15.1823 106.96 15.2143 106.629C15.2463 106.298 15.4059 105.992 15.6593 105.776C15.9128 105.561 16.2402 105.452 16.5722 105.474C16.9042 105.496 17.2148 105.645 17.4382 105.892C17.6458 106.125 17.8581 106.375 18.0751 106.608C19.2302 107.837 20.5398 108.91 21.9709 109.802C22.2066 109.951 22.3873 110.173 22.4854 110.434C22.5835 110.695 22.5938 110.981 22.5146 111.248C22.4354 111.515 22.2711 111.75 22.0467 111.915C21.8222 112.081 21.5499 112.168 21.2711 112.165H21.2618ZM85.4157 109.545C85.1216 109.541 84.8379 109.436 84.6123 109.247C84.3867 109.058 84.2329 108.798 84.1768 108.509C84.1207 108.22 84.1657 107.921 84.3042 107.661C84.4427 107.402 84.6663 107.198 84.9374 107.084C86.8621 106.277 88.803 105.4 90.7066 104.474C91.0123 104.325 91.3644 104.304 91.6855 104.415C92.0066 104.526 92.2705 104.761 92.419 105.066C92.5675 105.372 92.5885 105.724 92.4773 106.045C92.3662 106.366 92.1321 106.63 91.8264 106.778C89.8831 107.723 87.8909 108.612 85.9173 109.445C85.7571 109.513 85.5848 109.547 85.411 109.545H85.4157ZM10.9691 97.7086C10.6987 97.7054 10.4362 97.6165 10.2195 97.4547C10.0028 97.2929 9.84297 97.0665 9.76303 96.8082C9.11779 94.7038 8.63579 92.5528 8.32132 90.3743C8.29267 90.2062 8.29791 90.0339 8.33673 89.8678C8.37556 89.7017 8.44719 89.545 8.54741 89.4069C8.64763 89.2689 8.77443 89.1522 8.92036 89.0638C9.06629 88.9754 9.22841 88.9171 9.3972 88.8922C9.56599 88.8674 9.73804 88.8765 9.90326 88.919C10.0685 88.9616 10.2235 89.0367 10.3593 89.14C10.4951 89.2433 10.6089 89.3727 10.694 89.5205C10.7791 89.6684 10.8337 89.8318 10.8548 90.0011C11.1499 92.0493 11.6031 94.0717 12.2102 96.05C12.3088 96.3739 12.2753 96.7236 12.1171 97.0229C11.9589 97.3222 11.6888 97.5469 11.3657 97.648C11.2374 97.6885 11.1037 97.709 10.9691 97.7086V97.7086ZM116.182 90.5773C115.922 90.5738 115.67 90.4916 115.459 90.3416C115.247 90.1916 115.086 89.981 114.997 89.7375C114.907 89.494 114.894 89.2291 114.959 88.978C115.023 88.7268 115.162 88.5011 115.358 88.3308C116.97 86.9312 118.526 85.4802 119.979 84.0292C120.22 83.7894 120.545 83.6549 120.884 83.6551C121.224 83.6553 121.549 83.7903 121.789 84.0303C122.028 84.2704 122.163 84.5959 122.163 84.9351C122.163 85.2744 122.028 85.5997 121.787 85.8394C120.292 87.3324 118.694 88.8207 117.038 90.2717C116.797 90.4761 116.49 90.5848 116.175 90.5773H116.182ZM9.2638 79.7578C9.22651 79.7602 9.18911 79.7602 9.15182 79.7578C8.98468 79.7412 8.82245 79.6918 8.67441 79.6125C8.52637 79.5331 8.39543 79.4253 8.28905 79.2954C8.18267 79.1654 8.10296 79.0157 8.05446 78.8549C8.00595 78.6941 7.98962 78.5253 8.00638 78.3582C8.22944 76.1699 8.61939 74.0019 9.17282 71.873C9.21455 71.7098 9.28809 71.5564 9.38921 71.4216C9.49034 71.2868 9.61707 71.1733 9.76213 71.0876C9.9072 71.0019 10.0678 70.9457 10.2346 70.9221C10.4014 70.8986 10.5713 70.9082 10.7344 70.9504C10.8976 70.9926 11.0508 71.0665 11.1853 71.168C11.3197 71.2695 11.4329 71.3966 11.5182 71.5419C11.6035 71.6872 11.6593 71.8479 11.6823 72.0148C11.7054 72.1817 11.6953 72.3516 11.6527 72.5146C11.1356 74.5142 10.7722 76.5504 10.5655 78.6055C10.5339 78.9263 10.3821 79.2233 10.1407 79.437C9.89934 79.6507 9.58611 79.7653 9.2638 79.7578ZM128.527 77.3528C128.292 77.3483 128.063 77.2796 127.865 77.154C127.667 77.0284 127.507 76.8508 127.402 76.6406C127.298 76.4303 127.253 76.1954 127.273 75.9615C127.293 75.7276 127.376 75.5036 127.515 75.3139C128.75 73.6299 129.894 71.8809 130.942 70.0745C131.116 69.7886 131.395 69.5823 131.719 69.4997C132.044 69.4171 132.387 69.4647 132.677 69.6324C132.967 69.8001 133.179 70.0746 133.269 70.397C133.359 70.7194 133.319 71.0642 133.158 71.3575C132.06 73.2405 130.863 75.0641 129.572 76.8209C129.453 76.9863 129.296 77.1209 129.114 77.2135C128.932 77.306 128.731 77.3537 128.527 77.3528ZM14.8394 62.6562C14.6203 62.6535 14.4057 62.594 14.2165 62.4836C13.9227 62.3134 13.7085 62.0335 13.621 61.7054C13.5335 61.3773 13.5798 61.0279 13.7499 60.734C14.8506 58.8308 16.0896 57.011 17.4568 55.2893C17.672 55.0357 17.9774 54.8758 18.3084 54.8434C18.6394 54.811 18.9701 54.9086 19.2304 55.1156C19.4907 55.3225 19.6603 55.6227 19.7033 55.9524C19.7463 56.2822 19.6593 56.6158 19.4608 56.8826C18.1696 58.5048 17 60.2202 15.9615 62.0147C15.8479 62.2114 15.6842 62.3744 15.4871 62.4871C15.29 62.5998 15.0664 62.6582 14.8394 62.6562ZM136.615 61.2566C136.509 61.2567 136.403 61.2418 136.3 61.2122C136.138 61.1689 135.985 61.094 135.852 60.9917C135.718 60.8894 135.606 60.7618 135.522 60.6162C135.438 60.4706 135.384 60.3098 135.362 60.1431C135.34 59.9764 135.351 59.807 135.395 59.6446C135.934 57.6604 136.283 55.6295 136.438 53.5794C136.448 53.4102 136.492 53.2447 136.567 53.0926C136.641 52.9404 136.746 52.8046 136.873 52.6931C137.001 52.5815 137.149 52.4963 137.31 52.4426C137.471 52.3888 137.641 52.3675 137.81 52.3798C137.979 52.3922 138.144 52.438 138.295 52.5145C138.446 52.5911 138.581 52.6969 138.691 52.8258C138.801 52.9548 138.884 53.1043 138.936 53.2657C138.988 53.427 139.007 53.5971 138.992 53.766C138.825 55.9739 138.448 58.161 137.868 60.2978C137.792 60.5696 137.629 60.8087 137.403 60.9779C137.177 61.1471 136.902 61.2369 136.62 61.2332L136.615 61.2566ZM136.286 43.3828C136.018 43.3792 135.759 43.2917 135.543 43.1327C135.327 42.9737 135.167 42.7511 135.085 42.4963C134.459 40.5537 133.62 38.6862 132.584 36.928C132.407 36.6353 132.354 36.2845 132.436 35.9527C132.518 35.6208 132.729 35.3352 133.021 35.1585C133.314 34.9819 133.665 34.9288 133.997 35.0108C134.329 35.0928 134.614 35.3033 134.791 35.5959C135.924 37.5174 136.841 39.5587 137.525 41.6822C137.577 41.8421 137.597 42.0107 137.584 42.1784C137.571 42.3462 137.525 42.5096 137.449 42.6594C137.372 42.8092 137.267 42.9424 137.138 43.0514C137.01 43.1603 136.862 43.2428 136.702 43.2941C136.569 43.3386 136.43 43.3606 136.291 43.3594L136.286 43.3828ZM125.725 29.0245C125.469 29.0191 125.22 28.938 125.009 28.7912C123.32 27.6198 121.524 26.6121 119.644 25.7819C119.479 25.7215 119.328 25.6278 119.201 25.5067C119.073 25.3855 118.972 25.2395 118.904 25.0777C118.836 24.9159 118.801 24.7417 118.803 24.5661C118.805 24.3904 118.843 24.217 118.915 24.0567C118.986 23.8963 119.09 23.7524 119.22 23.6339C119.35 23.5154 119.502 23.4248 119.668 23.3678C119.835 23.3109 120.011 23.2887 120.186 23.3027C120.361 23.3166 120.531 23.3665 120.686 23.4491C122.714 24.3446 124.651 25.432 126.472 26.6964C126.698 26.8529 126.867 27.0779 126.955 27.338C127.043 27.5982 127.045 27.8797 126.961 28.1412C126.877 28.4026 126.711 28.63 126.487 28.7899C126.264 28.9498 125.995 29.0337 125.721 29.0292L125.725 29.0245ZM108.915 22.621C108.848 22.6193 108.782 22.6131 108.716 22.6023C106.733 22.2687 104.636 22.0261 102.485 21.8815C102.145 21.8589 101.828 21.7021 101.603 21.4455C101.378 21.1889 101.265 20.8536 101.287 20.5133C101.31 20.173 101.467 19.8557 101.723 19.631C101.98 19.4064 102.315 19.2929 102.656 19.3154C104.893 19.4671 107.074 19.719 109.141 20.0666C109.458 20.1213 109.744 20.2936 109.94 20.5492C110.136 20.8048 110.229 21.1249 110.199 21.4457C110.17 21.7666 110.02 22.0645 109.781 22.2802C109.542 22.4958 109.23 22.6134 108.908 22.6093L108.915 22.621Z" fill="url(#paint2_linear)"/>
<path d="M73.448 25.2594C78.2799 21.75 84.282 20.2454 90.198 21.0604C91.5184 21.2517 92.09 19.2292 90.7556 19.0355C84.2923 18.0712 77.707 19.6527 72.3866 23.4468C71.2994 24.2306 72.3469 26.0525 73.4457 25.2594H73.448Z" fill="white"/>
<path d="M53.2126 19.5744C46.5523 16.7004 39.0101 16.999 32.702 20.6662C31.5356 21.345 32.5901 23.1599 33.7612 22.4787C36.5296 20.8754 39.6347 19.9421 42.8284 19.7533C46.022 19.5646 49.2155 20.1256 52.1535 21.3917C53.3806 21.9212 54.4514 20.1133 53.2126 19.5791V19.5744Z" fill="white"/>
<defs>
<linearGradient id="paint0_linear" x1="57.9343" y1="93.7382" x2="73.5202" y2="93.7382" gradientUnits="userSpaceOnUse">
<stop stop-color="#FFACAC"/>
<stop offset="1" stop-color="#FF667A"/>
</linearGradient>
<linearGradient id="paint1_linear" x1="5110.19" y1="11351.2" x2="37189.5" y2="11351.2" gradientUnits="userSpaceOnUse">
<stop stop-color="#FFACAC"/>
<stop offset="1" stop-color="#FF667A"/>
</linearGradient>
<linearGradient id="paint2_linear" x1="8.30275" y1="67.5352" x2="138.957" y2="68.8418" gradientUnits="userSpaceOnUse">
<stop stop-color="#FF97B3"/>
<stop offset="1" stop-color="#FF7565"/>
</linearGradient>
</defs>
</svg>
