<svg viewBox="0 0 146 146" fill="none" xmlns="http://www.w3.org/2000/svg">
<path d="M45.6415 48.9094H36.3604V54.4592H45.6415V48.9094Z" fill="#FFDA63"/>
<path d="M85.416 47.9374V54.4592H69.0415H64.4666V47.9374H64.6002H85.2824H85.416Z" fill="url(#paint0_linear)"/>
<path d="M74.9414 77.5251C76.2896 77.5251 77.6076 77.9235 78.7286 78.67C79.8496 79.4164 80.7233 80.4773 81.2392 81.7185C81.7551 82.9598 81.8901 84.3256 81.6271 85.6433C81.3641 86.961 80.7149 88.1714 79.7615 89.1214C78.8082 90.0714 77.5936 90.7183 76.2713 90.9804C74.949 91.2426 73.5784 91.108 72.3328 90.5939C71.0872 90.0798 70.0226 89.2091 69.2736 88.092C68.5245 86.9749 68.1248 85.6616 68.1248 84.3181C68.1248 82.5165 68.8429 80.7887 70.1213 79.5147C71.3997 78.2408 73.1335 77.5251 74.9414 77.5251V77.5251Z" fill="#E2DAE3"/>
<path d="M74.9414 72.0339C77.3799 72.0339 79.7637 72.7545 81.7913 74.1046C83.8189 75.4547 85.3992 77.3736 86.3324 79.6187C87.2656 81.8637 87.5098 84.3342 87.034 86.7175C86.5583 89.1009 85.384 91.2902 83.6597 93.0085C81.9354 94.7268 79.7385 95.897 77.3468 96.371C74.9551 96.8451 72.476 96.6018 70.2231 95.6719C67.9701 94.7419 66.0445 93.1671 64.6897 91.1466C63.3349 89.1261 62.6118 86.7506 62.6118 84.3205C62.6124 81.0621 63.9116 77.9373 66.2237 75.6333C68.5359 73.3292 71.6716 72.0346 74.9414 72.0339ZM81.7604 84.3205C81.7609 82.9765 81.3613 81.6624 80.6123 80.5447C79.8633 79.4269 78.7985 78.5555 77.5525 78.0409C76.3066 77.5262 74.9354 77.3913 73.6125 77.6532C72.2896 77.9152 71.0743 78.5622 70.1204 79.5124C69.1666 80.4626 68.5169 81.6734 68.2536 82.9916C67.9903 84.3099 68.1252 85.6763 68.6412 86.9181C69.1573 88.1599 70.0313 89.2213 71.1527 89.9681C72.2741 90.7149 73.5926 91.1134 74.9414 91.1134C75.837 91.1138 76.7238 90.9382 77.5513 90.5968C78.3787 90.2554 79.1306 89.7549 79.7638 89.1238C80.3971 88.4928 80.8994 87.7436 81.242 86.919C81.5845 86.0944 81.7607 85.2106 81.7604 84.3182V84.3205Z" fill="url(#paint1_linear)"/>
<path d="M95.4921 54.4592V83.9209C95.5211 86.6285 95.011 89.315 93.9913 91.8249C92.9716 94.3347 91.4626 96.6182 89.5515 98.5431C87.6404 100.468 85.3652 101.996 82.8576 103.039C80.35 104.082 77.6597 104.619 74.9424 104.619C72.2252 104.619 69.5349 104.082 67.0273 103.039C64.5197 101.996 62.2445 100.468 60.3334 98.5431C58.4223 96.6182 56.9132 94.3347 55.8935 91.8249C54.8738 89.315 54.3637 86.6285 54.3928 83.9209V54.4592H95.4921ZM87.2732 84.3181C87.2736 81.8875 86.5508 79.5113 85.196 77.4901C83.8413 75.4689 81.9154 73.8934 79.6621 72.963C77.4088 72.0325 74.9292 71.7888 72.5369 72.2627C70.1446 72.7366 67.947 73.9068 66.2221 75.6254C64.4972 77.3439 63.3225 79.5336 62.8465 81.9175C62.3705 84.3014 62.6145 86.7724 63.5478 89.018C64.4811 91.2637 66.0618 93.1831 68.0898 94.5335C70.1178 95.8839 72.5021 96.6047 74.9413 96.6047C78.2115 96.6047 81.3478 95.3103 83.6604 93.0062C85.973 90.7021 87.2726 87.5769 87.2732 84.3181V84.3181Z" fill="#FFE8A0"/>
<path d="M123.598 70.8422V106.641C123.6 107.527 123.425 108.405 123.086 109.225C122.746 110.044 122.248 110.789 121.62 111.416C120.991 112.043 120.245 112.541 119.423 112.88C118.601 113.22 117.72 113.394 116.831 113.394H104.243V87.6901C104.243 83.2217 106.025 78.9364 109.195 75.7768C112.366 72.6172 116.666 70.8422 121.15 70.8422H123.598Z" fill="#FFE8A0"/>
<path d="M45.6417 113.121V113.394H33.0519C32.1624 113.394 31.2818 113.219 30.4603 112.879C29.6387 112.54 28.8924 112.042 28.2639 111.415C27.6355 110.788 27.1372 110.043 26.7975 109.224C26.4578 108.405 26.2835 107.527 26.2844 106.641V70.8422H28.7349C30.9551 70.8422 33.1536 71.2779 35.2048 72.1246C37.2561 72.9713 39.1199 74.2123 40.6898 75.7768C42.2598 77.3413 43.5051 79.1986 44.3548 81.2427C45.2044 83.2867 45.6417 85.4776 45.6417 87.6901V113.121Z" fill="#FFE8A0"/>
<path d="M123.598 61.2031V70.8421H121.15C116.666 70.8421 112.366 72.6172 109.195 75.7768C106.025 78.9364 104.243 83.2217 104.243 87.69V113.394H45.6415V87.69C45.6415 85.4775 45.2042 83.2867 44.3545 81.2426C43.5049 79.1985 42.2595 77.3412 40.6896 75.7768C39.1196 74.2123 37.2558 72.9713 35.2046 72.1246C33.1534 71.2779 30.9549 70.8421 28.7346 70.8421H26.2842V61.2031C26.2848 59.4147 26.998 57.6997 28.267 56.4351C29.536 55.1706 31.257 54.4598 33.0516 54.4592H54.3903V83.9209C54.3613 86.6285 54.8714 89.315 55.8911 91.8249C56.9108 94.3347 58.4199 96.6182 60.331 98.5431C62.2421 100.468 64.5172 101.996 67.0249 103.039C69.5325 104.082 72.2228 104.619 74.94 104.619C77.6573 104.619 80.3475 104.082 82.8552 103.039C85.3628 101.996 87.638 100.468 89.5491 98.5431C91.4602 96.6182 92.9692 94.3347 93.9889 91.8249C95.0086 89.315 95.5187 86.6285 95.4897 83.9209V54.4592H116.828C117.717 54.4589 118.598 54.6331 119.419 54.9719C120.24 55.3107 120.987 55.8074 121.615 56.4336C122.244 57.0599 122.743 57.8034 123.083 58.6218C123.423 59.4401 123.598 60.3173 123.598 61.2031V61.2031Z" fill="url(#paint2_linear)"/>
<path d="M115.536 59.6725H99.5911V68.7858H115.536V59.6725Z" fill="#E2DAE3"/>
<path d="M28.6433 77.6187C26.425 78.2426 19.5943 81.1238 20.4361 92.616C8.93196 93.8147 7.28818 101.028 7.0701 103.307C6.41118 109.924 11.645 116.474 18.987 118.213C32.2521 121.358 44.312 114.088 44.8162 113.773C45.1844 113.546 45.4697 113.206 45.6299 112.805C45.848 112.254 50.9106 99.1472 45.4775 86.6853C42.4549 79.7942 35.066 75.8078 28.6433 77.6187Z" fill="url(#paint3_linear)"/>
<path d="M22.5769 113.313C15.235 111.574 10.0012 105.024 10.6601 98.4041C10.7504 97.5451 10.9473 96.7005 11.2463 95.8898C10.0817 96.7797 9.10998 97.8954 8.3898 99.1697C7.66962 100.444 7.21588 101.85 7.05594 103.304C6.39702 109.924 11.6309 116.474 18.9728 118.213C32.238 121.358 44.2979 114.088 44.8021 113.773C45.1703 113.546 45.4555 113.206 45.6157 112.805C45.979 111.848 46.2921 110.872 46.5537 109.882C42.6025 111.854 32.9602 115.773 22.5769 113.313Z" fill="url(#paint4_linear)"/>
<path d="M67.5828 33.6272L66.4572 38.6722C66.2956 39.468 66.4537 40.2952 66.8974 40.9761C67.3412 41.657 68.0352 42.1374 68.8305 42.3139C69.6257 42.4905 70.4588 42.3492 71.1506 41.9203C71.8424 41.4915 72.3379 40.8094 72.5306 40.0205L73.6585 34.9778L77.7081 35.8752L76.13 42.9368C76.0322 43.3374 76.0155 43.7534 76.0809 44.1606C76.1464 44.5677 76.2927 44.9577 76.5112 45.3078C76.7297 45.6579 77.0161 45.9611 77.3536 46.1996C77.6911 46.438 78.073 46.6071 78.4768 46.6967C78.8807 46.7864 79.2984 46.7949 79.7056 46.7217C80.1128 46.6485 80.5012 46.4952 80.8482 46.2706C81.1952 46.0461 81.4938 45.7548 81.7265 45.4139C81.9592 45.0729 82.1213 44.6892 82.2033 44.2851L83.7815 37.2164L107.847 42.5606C108.595 46.0447 110.8 53.1694 116.812 58.0392C121.64 61.9532 128.623 62.0256 132.706 58.2097C133.656 57.3166 134.407 56.2342 134.91 55.0329C135.413 53.8316 135.657 52.5382 135.625 51.2369C135.602 49.3161 135.06 47.3088 134.017 45.2618C135.834 43.8598 137.178 42.2638 138.017 40.5346C138.601 39.3681 138.932 38.0923 138.989 36.79C139.046 35.4877 138.827 34.188 138.348 32.9753C136.275 27.7807 129.92 24.8948 123.882 26.3973C116.434 28.2504 111.419 33.7113 109.252 36.5154L63.8755 26.4511C63.2505 26.3163 62.5991 26.3747 62.0083 26.6185C61.4175 26.8624 60.9155 27.28 60.5692 27.8157C60.2316 28.3562 60.0674 28.9863 60.0984 29.6221C60.1294 30.258 60.3542 30.8693 60.7427 31.3746C61.1866 31.9438 61.8161 32.3406 62.5225 32.4962L67.5828 33.6272ZM127.27 46.1148C128.386 47.678 130.738 51.5453 128.443 53.6858C126.839 55.1837 123.359 55.3589 120.73 53.2185C115.933 49.3348 114.303 43.1471 113.836 40.7683C115.262 38.8171 119.347 33.917 125.39 32.4144C128.673 31.5966 131.751 33.2253 132.565 35.2606C132.795 35.8172 132.846 36.4312 132.71 37.0178C132.401 38.3988 131.123 39.8429 129.076 41.1398C128.71 41.3735 128.309 41.5628 127.96 41.8198C127.303 42.3028 126.862 43.0235 126.734 43.8268C126.605 44.6301 126.797 45.4517 127.27 46.1148V46.1148Z" fill="#FFE8A0"/>
<path d="M61.6361 32.1574C61.5886 31.6711 61.6576 31.1805 61.8376 30.7261C62.0176 30.2716 62.3033 29.8662 62.6713 29.5434C63.0393 29.2205 63.4789 28.9893 63.9541 28.869C64.4293 28.7486 64.9263 28.7424 65.4044 28.8509L110.783 38.9176C112.95 36.1018 117.963 30.6479 125.418 28.8042C130.262 27.6007 135.306 29.2201 138.184 32.585C135.951 27.6358 129.768 24.9322 123.882 26.3973C116.434 28.2504 111.419 33.7113 109.252 36.5154L63.8755 26.4511C63.2505 26.3163 62.5991 26.3747 62.0083 26.6185C61.4175 26.8624 60.9155 27.28 60.5692 27.8157C60.2316 28.3562 60.0674 28.9863 60.0984 29.6222C60.1294 30.258 60.3542 30.8693 60.7427 31.3746C60.9863 31.6912 61.2898 31.9571 61.6361 32.1574Z" fill="#FFDA63"/>
<defs>
<linearGradient id="paint0_linear" x1="64.4666" y1="51.1995" x2="85.416" y2="51.1995" gradientUnits="userSpaceOnUse">
<stop stop-color="#FFACAC"/>
<stop offset="1" stop-color="#FF667A"/>
</linearGradient>
<linearGradient id="paint1_linear" x1="5910.77" y1="6204.77" x2="8504.18" y2="6204.77" gradientUnits="userSpaceOnUse">
<stop stop-color="#FFACAC"/>
<stop offset="1" stop-color="#FF667A"/>
</linearGradient>
<linearGradient id="paint2_linear" x1="26.2842" y1="83.9232" x2="123.598" y2="83.9232" gradientUnits="userSpaceOnUse">
<stop stop-color="#FF97B3"/>
<stop offset="1" stop-color="#FF7565"/>
</linearGradient>
<linearGradient id="paint3_linear" x1="52334.3" y1="45249.9" x2="57331.4" y2="39260.9" gradientUnits="userSpaceOnUse">
<stop stop-color="#FFACAC"/>
<stop offset="1" stop-color="#FF667A"/>
</linearGradient>
<linearGradient id="paint4_linear" x1="28527.6" y1="25334.3" x2="31315.2" y2="21993.5" gradientUnits="userSpaceOnUse">
<stop stop-color="#FF97B3"/>
<stop offset="1" stop-color="#FF7565"/>
</linearGradient>
</defs>
</svg>
