<svg viewBox="0 0 146 146" fill="none" xmlns="http://www.w3.org/2000/svg">
<g clip-path="url(#clip0)">
<g filter="url(#filter0_d)">
<path d="M63.9476 3.93493C63.4042 3.89716 62.873 4.10799 62.5028 4.50679L16.1286 54.4997C15.5517 55.1215 15.487 56.0615 15.9729 56.7567L71.6966 136.486C72.3439 137.413 73.7248 137.508 74.4936 136.68L120.868 86.6867C121.445 86.0649 121.51 85.1248 121.024 84.4297L65.3001 4.7C64.9881 4.25355 64.4911 3.97239 63.9476 3.93493Z" fill="#DA6C84"/>
<path d="M81.3826 8.84406L16.4176 54.2486C15.6023 54.8185 15.4032 55.9416 15.9731 56.757L71.6968 136.487C72.2667 137.302 73.3898 137.501 74.2052 136.931L139.17 91.5268C139.986 90.9569 140.185 89.8338 139.615 89.0184L83.891 9.28862C83.3211 8.47323 82.198 8.27418 81.3826 8.84406Z" fill="#FFDCCE"/>
<path d="M76.1263 133.391L20.4025 53.6612C19.8326 52.8458 20.0317 51.7227 20.8471 51.1528L16.4176 54.2486C15.6023 54.8185 15.4032 55.9416 15.9731 56.757L71.6968 136.487C72.2667 137.302 73.3898 137.501 74.2052 136.931L78.6347 133.836C77.8191 134.406 76.6961 134.206 76.1263 133.391Z" fill="#F4A39B"/>
<path d="M85.5171 48.1373C81.9255 48.1798 78.7029 49.6829 76.1991 52.4845C73.7943 55.175 72.1614 58.9228 71.333 63.6441C66.6146 62.7994 62.534 63.045 59.1808 64.3787C55.6893 65.7673 53.1701 68.2766 51.8962 71.6352C49.0725 79.079 53.0874 88.2887 61.0364 92.6021C75.6849 100.551 92.2545 95.779 92.9528 95.5722C93.3244 95.462 93.6555 95.2306 93.8867 94.9195C94.321 94.335 104.496 80.4142 102.066 63.9263C100.747 54.9792 93.478 48.0438 85.5171 48.1373Z" fill="#F4A39B"/>
<path d="M65.3833 89.5638C57.4343 85.2504 53.4195 76.0408 56.2432 68.5969C56.8225 67.0698 57.6619 65.7203 58.7306 64.5698C55.4738 65.9911 53.1148 68.4233 51.8964 71.6349C49.0727 79.0787 53.0876 88.2884 61.0366 92.6017C75.6851 100.55 92.2547 95.7786 92.953 95.5719C93.3246 95.4616 93.6557 95.2302 93.8869 94.9192C93.9733 94.8027 94.4476 94.1551 95.1308 93.0647C90.0725 94.1374 77.113 95.9283 65.3833 89.5638Z" fill="#F66C83"/>
<path d="M71.0311 38.0558L47.4075 54.5665C46.5921 55.1364 45.469 54.9374 44.8991 54.122C44.3292 53.3066 44.5283 52.1835 45.3437 51.6136L68.9673 35.1028C69.7827 34.533 70.9058 34.732 71.4757 35.5474C72.0456 36.3628 71.8465 37.4859 71.0311 38.0558Z" fill="#C78686"/>
<path d="M67.7764 49.1213L58.9175 55.3129C58.1021 55.8828 56.979 55.6837 56.4091 54.8683C55.8392 54.0529 56.0383 52.9298 56.8537 52.3599L65.7125 46.1684C66.5279 45.5985 67.6511 45.7976 68.2209 46.613C68.7908 47.4283 68.5918 48.5515 67.7764 49.1213Z" fill="#C78686"/>
<path d="M106.847 98.7343L92.0821 109.053C91.2667 109.623 90.1435 109.424 89.5737 108.609C89.0038 107.794 89.2028 106.67 90.0182 106.101L104.783 95.7813C105.598 95.2114 106.722 95.4105 107.291 96.2259C107.861 97.0413 107.662 98.1644 106.847 98.7343Z" fill="#C78686"/>
</g>
</g>
<defs>
<filter id="filter0_d" x="2.68555" y="3.22351" width="141.961" height="142.74" filterUnits="userSpaceOnUse" color-interpolation-filters="sRGB">
<feFlood flood-opacity="0" result="BackgroundImageFix"/>
<feColorMatrix in="SourceAlpha" type="matrix" values="0 0 0 0 0 0 0 0 0 0 0 0 0 0 0 0 0 0 127 0"/>
<feOffset dy="4"/>
<feGaussianBlur stdDeviation="2"/>
<feColorMatrix type="matrix" values="0 0 0 0 0 0 0 0 0 0 0 0 0 0 0 0 0 0 0.25 0"/>
<feBlend mode="normal" in2="BackgroundImageFix" result="effect1_dropShadow"/>
<feBlend mode="normal" in="SourceGraphic" in2="effect1_dropShadow" result="shape"/>
</filter>
<clipPath id="clip0">
<rect width="146" height="146" fill="white"/>
</clipPath>
</defs>
</svg>
