<svg viewBox="0 0 205 205" fill="none" xmlns="http://www.w3.org/2000/svg">
<g clip-path="url(#clip0)" filter="url(#filter0_d)">
<path d="M89.958 22.1096C89.2651 22.0614 88.5878 22.3302 88.1158 22.8387L28.9839 86.5836C28.2484 87.3765 28.1658 88.575 28.7854 89.4615L99.8372 191.125C100.663 192.306 102.423 192.428 103.404 191.371L162.535 127.626C163.271 126.833 163.354 125.635 162.734 124.748L91.6826 23.0851C91.2847 22.5159 90.651 22.1574 89.958 22.1096Z" fill="#DA6C84"/>
<path d="M112.189 28.3683L29.3524 86.2624C28.3127 86.989 28.0589 88.4211 28.7855 89.4608L99.8373 191.124C100.564 192.164 101.996 192.417 103.036 191.691L185.872 133.797C186.912 133.07 187.166 131.638 186.439 130.598L115.387 28.9352C114.661 27.8955 113.229 27.6417 112.189 28.3683Z" fill="#FFDCCE"/>
<path d="M105.485 187.177L34.4335 85.5135C33.7068 84.4738 33.9606 83.0417 35.0003 82.315L29.3524 86.2624C28.3127 86.989 28.0589 88.4211 28.7855 89.4608L99.8373 191.124C100.564 192.164 101.996 192.417 103.036 191.691L108.684 187.743C107.644 188.47 106.212 188.216 105.485 187.177Z" fill="#F4A39B"/>
<path d="M117.461 78.4701C112.881 78.5242 108.772 80.4408 105.58 84.013C102.513 87.4437 100.431 92.2223 99.3747 98.2424C93.3584 97.1654 88.1552 97.4784 83.8796 99.1789C79.4275 100.95 76.2154 104.149 74.591 108.432C70.9905 117.923 76.1096 129.666 86.2453 135.166C104.923 145.302 126.051 139.217 126.942 138.954C127.415 138.813 127.837 138.518 128.132 138.122C128.686 137.376 141.66 119.626 138.562 98.6026C136.88 87.1943 127.612 78.3509 117.461 78.4701Z" fill="#F4A39B"/>
<path d="M91.7885 131.293C81.6528 125.793 76.5337 114.05 80.1342 104.559C80.8729 102.611 81.9433 100.891 83.3059 99.4238C79.1533 101.236 76.1453 104.337 74.5917 108.432C70.9912 117.924 76.1103 129.667 86.246 135.167C104.924 145.302 126.052 139.218 126.942 138.955C127.416 138.814 127.838 138.519 128.133 138.122C128.243 137.974 128.848 137.148 129.719 135.758C123.269 137.125 106.745 139.409 91.7885 131.293Z" fill="#F66C83"/>
<path d="M98.9901 65.6159L68.8677 86.6683C67.828 87.3949 66.3959 87.1411 65.6693 86.1014C64.9427 85.0617 65.1965 83.6296 66.2362 82.903L96.3586 61.8506C97.3983 61.124 98.8304 61.3778 99.557 62.4175C100.284 63.4572 100.03 64.8893 98.9901 65.6159Z" fill="#C78686"/>
<path d="M94.8404 79.7248L83.5445 87.6194C82.5048 88.3461 81.0727 88.0923 80.346 87.0526C79.6194 86.0129 79.8732 84.5808 80.9129 83.8541L92.2088 75.9595C93.2485 75.2329 94.6806 75.4867 95.4073 76.5264C96.1339 77.5661 95.8801 78.9982 94.8404 79.7248Z" fill="#C78686"/>
<path d="M144.657 142.987L125.831 156.145C124.791 156.871 123.359 156.618 122.632 155.578C121.906 154.538 122.159 153.106 123.199 152.38L142.026 139.222C143.065 138.495 144.497 138.749 145.224 139.789C145.951 140.828 145.697 142.26 144.657 142.987Z" fill="#C78686"/>
</g>
<defs>
<filter id="filter0_d" x="-4" y="0.149414" width="212.699" height="212.699" filterUnits="userSpaceOnUse" color-interpolation-filters="sRGB">
<feFlood flood-opacity="0" result="BackgroundImageFix"/>
<feColorMatrix in="SourceAlpha" type="matrix" values="0 0 0 0 0 0 0 0 0 0 0 0 0 0 0 0 0 0 127 0"/>
<feOffset dy="4"/>
<feGaussianBlur stdDeviation="2"/>
<feColorMatrix type="matrix" values="0 0 0 0 0 0 0 0 0 0 0 0 0 0 0 0 0 0 0.25 0"/>
<feBlend mode="normal" in2="BackgroundImageFix" result="effect1_dropShadow"/>
<feBlend mode="normal" in="SourceGraphic" in2="effect1_dropShadow" result="shape"/>
</filter>
<clipPath id="clip0">
<rect width="147" height="147" fill="white" transform="translate(0 84.3594) rotate(-34.9495)"/>
</clipPath>
</defs>
</svg>
