<svg viewBox="0 0 198 192" fill="none" xmlns="http://www.w3.org/2000/svg">
<g filter="url(#filter0_d)">
<path d="M151.898 111H139.102C137.389 111 136 111.713 136 112.593V154H155V112.593C155 111.713 153.611 111 151.898 111Z" fill="#D5AFAF"/>
<path d="M139 111H115C113.343 111 112 111.713 112 112.593V154H142V112.593C142 111.713 140.657 111 139 111Z" fill="#C78686"/>
<path d="M154.875 114C154.875 112.343 153.532 111 151.875 111H139.5C137.843 111 136.5 112.343 136.5 114V122.875H154.875V114Z" fill="#C78686"/>
<path d="M141.5 114C141.5 112.343 140.157 111 138.5 111H114.5C112.843 111 111.5 112.343 111.5 114V122.875H141.5V114Z" fill="#B46E6E"/>
<path d="M103.5 114H7.5C5.84325 114 4.5 112.657 4.5 111C4.5 109.343 5.84325 108 7.5 108H103.5C105.157 108 106.5 109.343 106.5 111C106.5 112.657 105.157 114 103.5 114Z" fill="#C78686"/>
<path d="M163.5 27H70.5C53.9314 27 40.5 40.4314 40.5 57V114H70.5H100.5H190.5C192.157 114 193.5 112.657 193.5 111V57C193.5 40.4314 180.069 27 163.5 27Z" fill="#C78686"/>
<path d="M100.5 45H28.5C26.8432 45 25.5 46.3432 25.5 48V105C25.5 106.657 26.8432 108 28.5 108H100.5C102.157 108 103.5 106.657 103.5 105V48C103.5 46.3432 102.157 45 100.5 45Z" fill="#FFDCCE"/>
<path d="M100.5 45H94.5V90C94.5 96.6274 89.1274 102 82.5 102H25.5V105C25.5 106.657 26.8432 108 28.5 108H100.5C102.157 108 103.5 106.657 103.5 105V48C103.5 46.3432 102.157 45 100.5 45Z" fill="#D5AFAF" fill-opacity="0.85"/>
<path d="M79.059 61.7345C75.6214 59.3915 70.1764 58.9063 64.4996 63.7884C58.8221 58.9063 53.3771 59.3923 49.9402 61.7345C44.8639 65.1943 43.29 72.7093 46.3567 78.8424C51.6086 89.3473 63.0656 93.2664 63.5509 93.4284C64.1632 93.6324 64.836 93.6324 65.4484 93.4284C65.9332 93.2664 77.3902 89.3473 82.6425 78.8428C85.7092 72.7093 84.135 65.1943 79.059 61.7345Z" fill="#F4A39B"/>
<path d="M163.5 27H70.5C87.0686 27 100.5 40.4314 100.5 57V114H190.5C192.157 114 193.5 112.657 193.5 111V57C193.5 40.4314 180.069 27 163.5 27Z" fill="white"/>
<path d="M121.5 102C116.529 102 112.5 97.9706 112.5 93V54C112.5 42.1241 105.598 31.8615 95.5875 27H70.5C87.0686 27 100.5 40.4314 100.5 57V114H190.5C192.157 114 193.5 112.657 193.5 111V102H121.5Z" fill="#E5E5E5"/>
<path d="M142.5 0H121.5C119.843 0 118.5 1.34325 118.5 3V96C118.5 97.6568 119.843 99 121.5 99H127.5C129.157 99 130.5 97.6568 130.5 96V12H142.5C144.157 12 145.5 10.6567 145.5 9V3C145.5 1.34325 144.157 0 142.5 0Z" fill="#FDE8A3"/>
<path d="M124.5 96V3C124.5 1.34325 125.843 0 127.5 0H121.5C119.843 0 118.5 1.34325 118.5 3V96C118.5 97.6568 119.843 99 121.5 99H127.5C125.843 99 124.5 97.6568 124.5 96Z" fill="#FDDA6B"/>
<path d="M178.5 99H139.5C137.843 99 136.5 97.6568 136.5 96C136.5 94.3432 137.843 93 139.5 93H178.5C180.157 93 181.5 94.3432 181.5 96C181.5 97.6568 180.157 99 178.5 99Z" fill="#C78686"/>
<path d="M169.5 84H139.5C137.843 84 136.5 82.6568 136.5 81C136.5 79.3432 137.843 78 139.5 78H169.5C171.157 78 172.5 79.3432 172.5 81C172.5 82.6568 171.157 84 169.5 84Z" fill="#C78686"/>
</g>
<defs>
<filter id="filter0_d" x="-1" y="0" width="200" height="200" filterUnits="userSpaceOnUse" color-interpolation-filters="sRGB">
<feFlood flood-opacity="0" result="BackgroundImageFix"/>
<feColorMatrix in="SourceAlpha" type="matrix" values="0 0 0 0 0 0 0 0 0 0 0 0 0 0 0 0 0 0 127 0"/>
<feOffset dy="4"/>
<feGaussianBlur stdDeviation="2"/>
<feColorMatrix type="matrix" values="0 0 0 0 0 0 0 0 0 0 0 0 0 0 0 0 0 0 0.25 0"/>
<feBlend mode="normal" in2="BackgroundImageFix" result="effect1_dropShadow"/>
<feBlend mode="normal" in="SourceGraphic" in2="effect1_dropShadow" result="shape"/>
</filter>
</defs>
</svg>
