<svg viewBox="0 0 146 146" fill="none" xmlns="http://www.w3.org/2000/svg">
<g clip-path="url(#clip0)">
<g filter="url(#filter0_d)">
<path d="M88.2579 137.87L53.2316 117.278L14.2278 105.896C13.3795 105.529 12.9838 104.539 13.3484 103.695L27.919 82.6705L33.8986 56.1147L87.04 39.0017L111.013 89.4213L95.7799 111.98L90.4631 137.001C90.0985 137.845 89.1061 138.236 88.2579 137.87Z" fill="#C78686"/>
<path d="M106.219 79.3374L97.9351 61.9189L62.8865 46.7811L44.5268 52.6921L21.0598 107.025L27.229 109.69L53.2315 117.278L76.5824 131.006L82.7515 133.67L106.219 79.3374Z" fill="#B46E6E"/>
<path d="M113.719 32.3131L65.908 11.663L33.4254 86.8698L88.9479 110.851L118.116 43.3179C119.947 39.0779 117.98 34.1532 113.719 32.3131Z" fill="#FFDCCE"/>
<path d="M33.4253 86.8701L68.0305 101.816L42.9878 64.7301L33.4253 86.8701Z" fill="#FFCBB6"/>
<path d="M97.1321 50.4856C96.0978 48.8551 92.1269 44.0669 83.0582 47.4801C79.3258 38.538 73.1176 38.9298 71.2215 39.2946C65.718 40.3322 61.6918 46.1055 62.0571 52.4097C62.7174 63.8039 71.4848 71.7337 71.8619 72.0787C71.9913 72.2029 72.1565 72.297 72.3107 72.3636C72.465 72.4302 72.6467 72.486 72.8258 72.495C73.3355 72.5331 85.1192 73.4794 93.8669 66.1486C98.6959 62.0652 100.13 55.1953 97.1321 50.4856Z" fill="#FFACAC"/>
<path d="M77.5159 82.2379L62.0929 75.5766C61.2447 75.2102 60.849 74.2198 61.2136 73.3757C61.5782 72.5315 62.5705 72.1406 63.4188 72.507L78.8417 79.1683C79.69 79.5346 80.0857 80.5251 79.7211 81.3692C79.3565 82.2134 78.3641 82.6043 77.5159 82.2379Z" fill="#999999"/>
<path d="M74.8643 88.3772L59.4413 81.7159C58.5931 81.3495 58.1973 80.3591 58.5619 79.5149C58.9265 78.6708 59.9189 78.2799 60.7671 78.6462L76.1901 85.3076C77.0383 85.6739 77.4341 86.6644 77.0695 87.5085C76.7049 88.3527 75.7125 88.7436 74.8643 88.3772Z" fill="#999999"/>
<path d="M65.9078 11.6628C61.6472 9.82262 56.713 11.7663 54.8817 16.0063L53.5559 19.076C53.1913 19.9202 53.587 20.9106 54.4353 21.277L99.1618 40.5948C100.01 40.9612 101.002 40.5702 101.367 39.7261L102.693 36.6564C104.524 32.4164 109.458 30.4727 113.719 32.3129L65.9078 11.6628Z" fill="#FFF5F2"/>
<path d="M13.3935 105.125C13.564 105.472 13.8613 105.737 14.2276 105.895L53.2314 117.278L88.2577 137.87C89.1059 138.236 90.0983 137.845 90.4629 137.001L111.013 89.4211L13.3935 105.125Z" fill="#F4A39B"/>
<path d="M64.6794 96.8632L13.3935 105.125C13.564 105.472 13.8613 105.737 14.2276 105.895L53.2313 117.278L88.2577 137.87C89.1059 138.236 90.0983 137.845 90.4629 137.001L91.0263 135.697L64.6794 96.8632Z" fill="#C78686"/>
<path d="M33.8987 56.1147L13.3485 103.695C12.9839 104.539 13.3796 105.529 14.2278 105.896L88.2579 137.87C88.6242 138.028 89.0292 138.044 89.3903 137.949L33.8987 56.1147Z" fill="#F4A39B"/>
</g>
</g>
<defs>
<filter id="filter0_d" x="8.68555" y="8.33215" width="120.912" height="138.204" filterUnits="userSpaceOnUse" color-interpolation-filters="sRGB">
<feFlood flood-opacity="0" result="BackgroundImageFix"/>
<feColorMatrix in="SourceAlpha" type="matrix" values="0 0 0 0 0 0 0 0 0 0 0 0 0 0 0 0 0 0 127 0"/>
<feOffset dy="4"/>
<feGaussianBlur stdDeviation="2"/>
<feColorMatrix type="matrix" values="0 0 0 0 0 0 0 0 0 0 0 0 0 0 0 0 0 0 0.25 0"/>
<feBlend mode="normal" in2="BackgroundImageFix" result="effect1_dropShadow"/>
<feBlend mode="normal" in="SourceGraphic" in2="effect1_dropShadow" result="shape"/>
</filter>
<clipPath id="clip0">
<rect width="146" height="146" fill="white"/>
</clipPath>
</defs>
</svg>
