<svg viewBox="0 0 173 193" fill="none" xmlns="http://www.w3.org/2000/svg">
<g clip-path="url(#clip0)" filter="url(#filter0_d)">
<path d="M107.319 184.339L59.3441 154.308L5.44679 137.032C4.27951 136.49 3.76868 135.09 4.3116 133.92L25.4856 104.991L34.9129 68.0229L109.688 45.8958L141.029 117.301L118.868 148.356L110.428 183.198C109.885 184.368 108.486 184.881 107.319 184.339Z" fill="#C78686"/>
<path d="M134.761 103.02L123.932 78.3519L75.7017 55.9551L49.8679 63.5979L14.9232 138.849L23.4125 142.791L59.344 154.308L91.327 174.329L99.8163 178.271L134.761 103.02Z" fill="#B46E6E"/>
<path d="M147.15 37.4507L81.3574 6.89844L32.9877 111.059L109.391 146.539L152.826 53.0072C155.553 47.1348 153.013 40.1733 147.15 37.4507Z" fill="#FFDCCE"/>
<path d="M32.9871 111.06L80.6068 133.174L47.2266 80.3965L32.9871 111.06Z" fill="#FFCBB6"/>
<path d="M123.282 62.3194C121.908 60.0014 116.57 53.1619 103.789 57.6279C98.9545 44.9817 90.285 45.3166 87.6271 45.762C79.9133 47.0251 74.0639 54.9684 74.3138 63.8058C74.7653 79.7787 86.6596 91.181 87.1711 91.677C87.3463 91.8552 87.5727 91.9927 87.7849 92.0912C87.9972 92.1898 88.2483 92.2741 88.4975 92.2929C89.2064 92.3637 105.592 94.094 118.087 84.133C124.986 78.5829 127.268 69.0154 123.282 62.3194Z" fill="#FFACAC"/>
<path d="M94.634 106.093L73.4107 96.237C72.2435 95.695 71.7326 94.2949 72.2756 93.1257C72.8185 91.9566 74.2177 91.4435 75.385 91.9856L96.6083 101.841C97.7756 102.383 98.2864 103.783 97.7435 104.952C97.2006 106.122 95.8013 106.635 94.634 106.093Z" fill="#999999"/>
<path d="M90.6858 114.596L69.4625 104.74C68.2952 104.198 67.7844 102.798 68.3273 101.629C68.8702 100.46 70.2695 99.9464 71.4368 100.488L92.6601 110.344C93.8273 110.886 94.3382 112.286 93.7953 113.455C93.2523 114.625 91.8531 115.138 90.6858 114.596Z" fill="#999999"/>
<path d="M81.3568 6.89849C75.4938 4.17589 68.5364 6.72702 65.8094 12.5993L63.8352 16.8508C63.2922 18.02 63.8031 19.42 64.9703 19.9621L126.518 48.5433C127.685 49.0853 129.084 48.5723 129.627 47.4031L131.602 43.1516C134.329 37.2793 141.286 34.7282 147.149 37.4508L81.3568 6.89849Z" fill="#FFF5F2"/>
<path d="M4.31535 135.926C4.53869 136.417 4.94218 136.798 5.44623 137.032L59.3435 154.309L107.318 184.339C108.485 184.881 109.885 184.368 110.427 183.199L141.029 117.301L4.31535 135.926Z" fill="#F4A39B"/>
<path d="M76.1405 126.124L4.31559 135.925C4.53893 136.417 4.94242 136.798 5.44647 137.032L59.3437 154.308L107.318 184.339C108.485 184.881 109.885 184.368 110.428 183.199L111.267 181.392L76.1405 126.124Z" fill="#C78686"/>
<path d="M34.9121 68.0234L4.31085 133.921C3.76793 135.09 4.27876 136.49 5.44604 137.032L107.318 184.339C107.822 184.573 108.386 184.609 108.893 184.489L34.9121 68.0234Z" fill="#F4A39B"/>
</g>
<defs>
<filter id="filter0_d" x="-0.675781" y="0" width="177.293" height="193.325" filterUnits="userSpaceOnUse" color-interpolation-filters="sRGB">
<feFlood flood-opacity="0" result="BackgroundImageFix"/>
<feColorMatrix in="SourceAlpha" type="matrix" values="0 0 0 0 0 0 0 0 0 0 0 0 0 0 0 0 0 0 127 0"/>
<feOffset dy="4"/>
<feGaussianBlur stdDeviation="2"/>
<feColorMatrix type="matrix" values="0 0 0 0 0 0 0 0 0 0 0 0 0 0 0 0 0 0 0.25 0"/>
<feBlend mode="normal" in2="BackgroundImageFix" result="effect1_dropShadow"/>
<feBlend mode="normal" in="SourceGraphic" in2="effect1_dropShadow" result="shape"/>
</filter>
<clipPath id="clip0">
<rect width="117" height="150" fill="white" transform="translate(66.501) rotate(24.909)"/>
</clipPath>
</defs>
</svg>
