<svg viewBox="0 0 146 146" fill="none" xmlns="http://www.w3.org/2000/svg">
<g clip-path="url(#clip0)">
<g filter="url(#filter0_d)">
<path d="M112.769 98.4062H103.039C101.736 98.4062 100.68 98.9485 100.68 99.6173V131.104H115.128V99.6173C115.128 98.9485 114.072 98.4062 112.769 98.4062Z" fill="#D5AFAF"/>
<path d="M102.961 98.4062H84.7114C83.4516 98.4062 82.4302 98.9485 82.4302 99.6173V131.104H105.243V99.6173C105.243 98.9485 104.221 98.4062 102.961 98.4062Z" fill="#C78686"/>
<path d="M115.033 100.688C115.033 99.4277 114.012 98.4062 112.752 98.4062H103.342C102.082 98.4062 101.061 99.4277 101.061 100.688V107.436H115.033V100.688Z" fill="#C78686"/>
<path d="M104.863 100.688C104.863 99.4277 103.841 98.4062 102.582 98.4062H84.3315C83.0717 98.4062 82.0503 99.4277 82.0503 100.688V107.436H104.863V100.688Z" fill="#B46E6E"/>
<path d="M75.9668 100.688H2.9668C1.70698 100.688 0.685547 99.6661 0.685547 98.4062C0.685547 97.1464 1.70698 96.125 2.9668 96.125H75.9668C77.2266 96.125 78.248 97.1464 78.248 98.4062C78.248 99.6661 77.2266 100.688 75.9668 100.688Z" fill="#C78686"/>
<path d="M121.592 34.5312H50.873C38.274 34.5312 28.0605 44.7447 28.0605 57.3438V100.688H50.873H73.6855H142.123C143.383 100.688 144.404 99.6661 144.404 98.4062V57.3438C144.404 44.7447 134.191 34.5312 121.592 34.5312Z" fill="#C78686"/>
<path d="M73.6855 48.2188H18.9355C17.6757 48.2188 16.6543 49.2402 16.6543 50.5V93.8438C16.6543 95.1036 17.6757 96.125 18.9355 96.125H73.6855C74.9454 96.125 75.9668 95.1036 75.9668 93.8438V50.5C75.9668 49.2402 74.9454 48.2188 73.6855 48.2188Z" fill="#FFDCCE"/>
<path d="M73.6855 48.2188H69.123V82.4375C69.123 87.4771 65.0376 91.5625 59.998 91.5625H16.6543V93.8438C16.6543 95.1036 17.6757 96.125 18.9355 96.125H73.6855C74.9454 96.125 75.9668 95.1036 75.9668 93.8438V50.5C75.9668 49.2402 74.9454 48.2188 73.6855 48.2188Z" fill="#D5AFAF" fill-opacity="0.85"/>
<path d="M57.3816 60.9438C54.7676 59.1621 50.6272 58.7931 46.3105 62.5056C41.9932 58.7931 37.8527 59.1627 35.2393 60.9438C31.3791 63.5746 30.1823 69.2891 32.5143 73.9529C36.5079 81.941 45.22 84.9211 45.589 85.0443C46.0547 85.1994 46.5662 85.1994 47.0319 85.0443C47.4006 84.9211 56.1127 81.941 60.1066 73.9532C62.4386 69.2891 61.2415 63.5746 57.3816 60.9438Z" fill="#F4A39B"/>
<path d="M121.592 34.5312H50.873C63.4721 34.5312 73.6855 44.7447 73.6855 57.3438V100.688H142.123C143.383 100.688 144.404 99.6661 144.404 98.4062V57.3438C144.404 44.7447 134.191 34.5312 121.592 34.5312Z" fill="white"/>
<path d="M89.6543 91.5625C85.8746 91.5625 82.8105 88.4985 82.8105 84.7188V55.0625C82.8105 46.0319 77.5622 38.228 69.95 34.5312H50.873C63.4721 34.5312 73.6855 44.7447 73.6855 57.3438V100.688H142.123C143.383 100.688 144.404 99.6661 144.404 98.4062V91.5625H89.6543Z" fill="#E5E5E5"/>
<path d="M105.623 14H89.6543C88.3945 14 87.373 15.0214 87.373 16.2812V87C87.373 88.2598 88.3945 89.2812 89.6543 89.2812H94.2168C95.4766 89.2812 96.498 88.2598 96.498 87V23.125H105.623C106.883 23.125 107.904 22.1036 107.904 20.8438V16.2812C107.904 15.0214 106.883 14 105.623 14Z" fill="#FDE8A3"/>
<path d="M91.9355 87V16.2812C91.9355 15.0214 92.957 14 94.2168 14H89.6543C88.3945 14 87.373 15.0214 87.373 16.2812V87C87.373 88.2598 88.3945 89.2812 89.6543 89.2812H94.2168C92.957 89.2812 91.9355 88.2598 91.9355 87Z" fill="#FDDA6B"/>
<path d="M132.998 89.2812H103.342C102.082 89.2812 101.061 88.2598 101.061 87C101.061 85.7402 102.082 84.7188 103.342 84.7188H132.998C134.258 84.7188 135.279 85.7402 135.279 87C135.279 88.2598 134.258 89.2812 132.998 89.2812Z" fill="#C78686"/>
<path d="M126.154 77.875H103.342C102.082 77.875 101.061 76.8536 101.061 75.5938C101.061 74.3339 102.082 73.3125 103.342 73.3125H126.154C127.414 73.3125 128.436 74.3339 128.436 75.5938C128.436 76.8536 127.414 77.875 126.154 77.875Z" fill="#C78686"/>
</g>
</g>
<defs>
<filter id="filter0_d" x="-3.31445" y="14" width="151.719" height="125.104" filterUnits="userSpaceOnUse" color-interpolation-filters="sRGB">
<feFlood flood-opacity="0" result="BackgroundImageFix"/>
<feColorMatrix in="SourceAlpha" type="matrix" values="0 0 0 0 0 0 0 0 0 0 0 0 0 0 0 0 0 0 127 0"/>
<feOffset dy="4"/>
<feGaussianBlur stdDeviation="2"/>
<feColorMatrix type="matrix" values="0 0 0 0 0 0 0 0 0 0 0 0 0 0 0 0 0 0 0.25 0"/>
<feBlend mode="normal" in2="BackgroundImageFix" result="effect1_dropShadow"/>
<feBlend mode="normal" in="SourceGraphic" in2="effect1_dropShadow" result="shape"/>
</filter>
<clipPath id="clip0">
<rect width="146" height="146" fill="white"/>
</clipPath>
</defs>
</svg>
