<svg viewBox="0 0 1920 390" fill="none" xmlns="http://www.w3.org/2000/svg">
<g clip-path="url(#clip0)">
<g clip-path="url(#clip1)">
<path opacity="0.2" d="M-141.983 314.649C-97.2568 289.499 -27.5075 258.891 59.049 256.235C167.166 252.992 210.822 296.746 295.25 312.211C477.615 345.505 516.123 185.492 744.153 153.036C969.101 120.839 1051.62 259.348 1267.05 185.774C1339.48 161.054 1349.67 138.751 1422.29 102.034C1537.11 43.8196 1720.47 -6.56124 2011.16 49.6459L2005.54 411.396L-141.983 411.396L-141.983 314.649Z" fill="white"/>
<path opacity="0.6" d="M-144.153 256.155C-96.1749 239.671 -22.6248 222.044 62.4615 234.751C182.566 252.616 201.912 315.377 294.772 342.972C471.3 395.252 545.844 214.569 807.981 206.334C978.016 200.976 980.548 275.782 1139.65 260.716C1324.04 243.273 1373.1 137.269 1561.23 76.5013C1659.95 44.4972 1807.16 21.5542 2010.83 71.1787L2005.06 442.157L-144.153 442.157L-144.153 256.155Z" fill="white"/>
<path d="M-141.683 374.652C-99.5648 339 -35.4823 296.612 46.2113 289.881C147.326 281.606 180.978 335.051 279.095 361.19C494.639 418.999 587.79 229.682 881.091 256.699C1001.3 267.797 985.721 299.554 1086.7 299.893C1291.13 300.607 1373.8 171.125 1560.61 116.491C1656.8 88.4474 1803.89 73.5022 2011.76 149.96L2004.44 482.146L-141.683 482.146L-141.683 374.652Z" fill="white"/>
</g>
</g>
<defs>
<clipPath id="clip0">
<rect width="1920" height="390" fill="white"/>
</clipPath>
<clipPath id="clip1">
<rect width="2154" height="527" fill="white" transform="translate(-140.101 -4.69824) rotate(0.890062)"/>
</clipPath>
</defs>
</svg>
