<svg viewBox="0 0 1920 4279" fill="none" xmlns="http://www.w3.org/2000/svg">
<rect x="0.675781" y="1610" width="1920" height="2669" fill="url(#paint0_linear)"/>
<path opacity="0.2" d="M-30.1673 267.945C16.5989 279.088 87.5638 292.134 173.755 292.405C450.545 293.221 522.87 160.862 793.679 113.028C1082.7 61.9323 1104.73 194.291 1348.35 115.746C1498.16 67.368 1581.36 -12.2648 1737.16 1.59624C1831.51 10.0215 1906.01 48.6149 1954.68 80.4137C1956.58 364.972 1952.77 1333.44 1954.68 1618C1290.43 1618 625.918 1618 -38.3242 1618C-37.5085 1395.95 -30.983 489.992 -30.1673 267.945Z" fill="url(#paint1_linear)"/>
<path opacity="0.6" d="M-32.8867 363.07C49.226 371.223 174.57 375.3 320.578 344.045C571.267 290.232 620.208 188.041 853.495 153.796C1064.76 122.812 1056.06 201.902 1264.06 164.395C1476.41 126.074 1558.25 30.4059 1737.16 50.5179C1832.05 61.1175 1906.55 99.1673 1954.68 129.335C1956.58 413.893 1958.21 1325.44 1960.11 1610C1295.87 1610 631.356 1610 -32.8867 1610C-32.8867 1403.44 -32.8867 569.626 -32.8867 363.07Z" fill="url(#paint2_linear)"/>
<path d="M-32.8867 362.798C44.0599 376.93 166.141 390.52 309.703 365.515C567.732 320.399 621.024 198.096 853.495 177.984C1057.96 160.318 1051.98 251.91 1264.06 229.623C1476.95 207.065 1558.52 107.049 1737.16 134.499C1838.3 149.991 1914.43 197.825 1960.11 232.341V1615.97H-32.8867V362.798Z" fill="url(#paint3_linear)"/>
<path d="M1330.22 534.96C1331.97 529.671 1336.38 529.583 1341.4 529.986C1337.81 517.28 1338.13 505.33 1347 494.992C1352.63 488.432 1360.1 484.969 1368.52 483.307C1384.19 480.222 1398.06 487.626 1404.37 499.777C1405.91 499.085 1407.41 498.014 1409.02 497.788C1410.52 497.574 1412.15 498.229 1413.96 498.543C1414.87 493.066 1417.02 487.764 1420.91 483.345C1429.91 473.107 1441.58 469.947 1454.76 471.294C1462.88 472.125 1470.08 475.311 1476.25 480.637C1485.89 488.936 1490.71 503.857 1482.94 518.099C1485.96 517.52 1488.81 516.84 1491.69 516.462C1498.59 515.568 1505.25 516.689 1511.45 519.761C1517.85 522.922 1519.88 527.681 1517.99 534.746C1519.53 535.35 1521.17 535.879 1522.68 536.622C1524.95 537.755 1526.68 539.417 1526.68 542.175C1526.66 545.059 1524.89 546.922 1522.41 547.816C1519.8 548.761 1517.01 549.453 1514.25 549.693C1501.87 550.775 1489.68 548.773 1477.48 547.174C1454.87 544.19 1432.22 541.671 1409.39 542.994C1394.01 543.888 1378.69 545.726 1363.3 546.658C1349.86 547.464 1336.39 547.716 1322.92 547.867C1320.78 547.892 1318.29 546.494 1316.51 545.084C1313.67 542.805 1312.99 538.851 1314.35 536.194C1315.68 533.587 1319.34 531.799 1322.86 532.492C1325.3 532.958 1327.61 534.053 1330.22 534.96Z" fill="white" fill-opacity="0.3"/>
<path d="M-290.08 709.566C-285.183 694.636 -272.871 694.387 -258.819 695.525C-268.861 659.655 -267.974 625.919 -243.171 596.733C-227.452 578.212 -206.553 568.436 -183.027 563.744C-139.241 555.034 -100.458 575.937 -82.8223 610.242C-78.5289 608.287 -74.3418 605.265 -69.8354 604.625C-65.6484 604.021 -61.0711 605.87 -56.0325 606.758C-53.4777 591.294 -47.481 576.328 -36.5876 563.85C-11.43 534.949 21.1792 526.026 58.0108 529.83C80.7201 532.176 100.839 541.17 118.084 556.207C145.016 579.634 158.499 621.76 136.784 661.966C145.229 660.331 153.177 658.411 161.232 657.345C180.535 654.821 199.128 657.985 216.479 666.659C234.363 675.581 240.04 689.019 234.753 708.962C239.047 710.669 243.624 712.162 247.846 714.259C254.198 717.458 259.024 722.151 259.024 729.936C258.988 738.077 254.02 743.338 247.101 745.862C239.792 748.528 232.021 750.484 224.285 751.159C189.689 754.216 155.625 748.564 121.526 744.049C58.3301 735.624 -4.97205 728.514 -68.8065 732.247C-111.777 734.771 -154.605 739.961 -197.611 742.592C-235.188 744.867 -272.835 745.578 -310.483 746.004C-316.48 746.076 -323.434 742.13 -328.402 738.148C-336.35 731.714 -338.231 720.551 -334.434 713.05C-330.709 705.692 -320.489 700.644 -310.66 702.599C-303.848 703.914 -297.39 707.007 -290.08 709.566Z" fill="white" fill-opacity="0.6"/>
<path d="M1370.31 841.777C1384.54 828.482 1395.32 825.851 1409.02 832.321C1421.12 838.009 1422.9 850.167 1412.04 858.059C1407.03 861.685 1400.26 864.849 1394.26 864.884C1362.36 865.204 1330.32 866.2 1298.56 863.711C1243.24 859.41 1188.14 852.478 1132.89 847.323C1121.96 846.292 1110.75 848.603 1099.68 848.923C1089.6 849.243 1085.13 846.043 1084.7 839.147C1084.21 831.077 1090.35 824.038 1099.25 823.825C1105.07 823.683 1110.89 825.247 1117.31 826.1C1124.59 807.544 1138.96 800.718 1158.01 803.953C1160 796.275 1160.82 788.809 1163.8 782.375C1171.35 765.916 1186.19 758.877 1202.72 754.611C1233.27 746.755 1264.46 756.993 1280.11 780.42C1282.95 784.65 1285.22 789.414 1286.89 794.248C1288.52 799.047 1289.05 804.238 1290.19 809.819C1299.2 804.131 1309.38 800.896 1318.22 807.33C1325.88 812.912 1331.38 821.479 1338.76 829.726C1350.54 825.105 1362.15 828.269 1370.31 841.777Z" fill="white" fill-opacity="0.6"/>
<path d="M1527.03 605.394C1545.94 576.264 1558.1 573.238 1590.54 588.901C1608.57 493.974 1702.03 457.131 1777.05 499.67C1777.82 499.314 1779.07 499.076 1779.3 498.542C1792.83 460.156 1848.69 444.137 1885.81 484.778C1893.35 492.965 1900.05 502.814 1904.08 513.078C1908.41 523.995 1914.64 525.715 1925.25 526.427C1944.53 527.732 1964.45 529.216 1982.54 535.208C2021.09 547.904 2038.4 572.823 2046.35 620.167C2053.17 621.117 2060.52 621.235 2067.23 623.371C2077.07 626.456 2084.48 633.457 2082.29 644.433C2079.92 656.002 2069.66 661.342 2059.34 658.435C1999.09 641.704 1940.67 654.222 1882.49 668.402C1820.46 683.531 1757.54 689.167 1693.91 687.803C1645.99 686.794 1598.01 685.133 1550.21 681.573C1532.54 680.268 1515.28 672.674 1497.91 667.809C1494.88 666.978 1491.98 665.554 1489.19 664.13C1470.27 654.638 1460.13 633.398 1466.65 617.023C1472.59 602.072 1493.58 594.537 1513.74 600.292C1517.95 601.36 1522.04 603.377 1527.03 605.394Z" fill="white" fill-opacity="0.5"/>
<defs>
<linearGradient id="paint0_linear" x1="960.676" y1="1610" x2="960.676" y2="4279" gradientUnits="userSpaceOnUse">
<stop stop-color="#F0F0F0"/>
<stop offset="1" stop-color="#D5AFAF"/>
</linearGradient>
<linearGradient id="paint1_linear" x1="958.451" y1="0" x2="958.451" y2="1618" gradientUnits="userSpaceOnUse">
<stop stop-color="#E3C8C8"/>
<stop offset="1" stop-color="#F0F0F0"/>
</linearGradient>
<linearGradient id="paint2_linear" x1="963.613" y1="47.7715" x2="963.613" y2="1610" gradientUnits="userSpaceOnUse">
<stop stop-color="#E3C8C8"/>
<stop offset="1" stop-color="#F0F0F0"/>
</linearGradient>
<linearGradient id="paint3_linear" x1="963.613" y1="129.769" x2="963.613" y2="1615.97" gradientUnits="userSpaceOnUse">
<stop stop-color="#E3C8C8"/>
<stop offset="1" stop-color="#F0F0F0"/>
</linearGradient>
</defs>
</svg>
