<svg viewBox="0 0 1920 2352" fill="none" xmlns="http://www.w3.org/2000/svg">
<g clip-path="url(#clip0)">
<path d="M-61.3242 405H2078.68V2364H-61.3242V405Z" fill="url(#paint0_linear)"/>
<path opacity="0.2" d="M-114.473 198.196C-68.4031 175.601 2.95724 148.964 89.526 151.182C197.655 154.024 238.78 200.164 322.205 220.353C502.409 263.851 549.856 106.257 779.35 86.6769C1005.75 67.1827 1080.35 210.114 1299.57 148.772C1373.28 128.164 1384.72 106.471 1459.28 73.8959C1577.19 22.2312 1763.1 -17.7575 2050.17 54.7098L2050.17 415.571L-114.473 415.571L-114.473 198.196Z" fill="white"/>
<path opacity="0.6" d="M-113.35 139.674C-64.5209 125.913 9.90405 112.452 94.141 129.923C213.051 154.515 228.836 218.264 319.997 251.039C493.306 313.164 577.894 136.96 840.078 143.481C1010.15 147.694 1008.47 222.525 1168.16 216.431C1353.24 209.386 1408.18 106.309 1599.44 56.2183C1699.8 29.8167 1848.07 15.1898 2048.62 76.1901L2048.62 446.257L-113.35 446.257L-113.35 139.674Z" fill="white"/>
<path d="M-117.548 258.122C-73.4916 224.894 -7.12655 186.178 74.8163 184.052C176.236 181.477 206.83 236.73 303.321 268.346C515.272 338.186 618.923 154.407 910.241 197.878C1029.64 215.719 1012.3 246.55 1113.1 252.567C1317.16 264.777 1406.98 140.151 1596.57 96.1091C1694.18 73.52 1841.88 66.8713 2045.12 154.899L2045.12 486.148L-117.548 486.148L-117.548 258.122Z" fill="url(#paint1_linear)"/>
<path opacity="0.3" d="M-118.148 295.583C-71.3693 274.494 0.817603 250.187 87.2689 255.211C195.248 261.56 234.856 309.01 317.581 331.895C496.279 381.216 548.814 225.245 778.823 213.12C1005.74 200.981 1075.66 346.257 1296.76 292.059C1371.09 273.854 1383.23 252.543 1458.81 222.404C1578.34 174.592 1765.44 140.655 2050.01 222.397L2050.01 2360L-118.149 2360L-118.148 295.583Z" fill="white"/>
</g>
<defs>
<linearGradient id="paint0_linear" x1="1008.68" y1="405" x2="1008.68" y2="1245" gradientUnits="userSpaceOnUse">
<stop offset="0.497238" stop-color="#D5AFAF"/>
<stop offset="1" stop-color="#D5AFAF"/>
</linearGradient>
<linearGradient id="paint1_linear" x1="976.765" y1="26.0782" x2="990.676" y2="375" gradientUnits="userSpaceOnUse">
<stop stop-color="white"/>
<stop offset="1" stop-color="#D5AFAF"/>
</linearGradient>
<clipPath id="clip0">
<rect width="1920" height="2352" fill="white"/>
</clipPath>
</defs>
</svg>
