<svg width="1920" height="788" viewBox="0 0 1920 788" fill="none" xmlns="http://www.w3.org/2000/svg">
<path opacity="0.2" d="M1985.52 362.113C1872.1 396.926 1785.95 393.298 1726.63 382.187C1677 372.803 1644.65 358.259 1575.43 352.532C1509.27 347.153 1472.54 354.745 1407.49 361.277C1341.19 367.975 1189.99 381.731 1040.83 350.448C950.562 331.466 944.888 313.453 871.071 293.867C661.312 238.304 528.697 335.734 306.028 368.933C198.782 384.914 36.3791 391.19 -174.853 329.567L-174.852 513.5L1985.51 513.5L1985.52 362.113Z" fill="white"/>
<path opacity="0.6" d="M1721.72 398.063C1781.22 407.643 1867.55 409.741 1980.02 372.34L1980.03 517L-180.637 517L-180.635 385.655C32.0357 442.791 194.214 433.078 301.093 414.885C523.066 376.955 653.518 276.797 864.412 327.839C938.404 345.894 944.722 363.67 1035.2 380.816C1185.01 409.073 1335.98 391.88 1402.12 383.922C1466.97 376.438 1503.54 367.586 1569.84 371.74C1639.23 375.937 1671.65 389.869 1721.72 398.063Z" fill="white"/>
<path d="M1996.69 459.204C1876.27 501.279 1792.04 491.668 1737.38 474.888C1677.94 456.632 1652.59 429.553 1580.3 418.204C1518.97 408.415 1490.1 420.315 1402.51 432.026C1327.78 442.105 1189.12 459.773 1052.3 431.448C966.809 413.941 955.956 392.546 883.499 371.875C674.769 312.708 540.568 407.787 317.402 437.208C209.756 451.283 47.3622 454.769 -162.84 389.543L-162.84 544.501L1996.69 544.5L1996.69 459.204Z" fill="white"/>
</svg>
