<svg viewBox="0 0 1920 237" fill="none" xmlns="http://www.w3.org/2000/svg">
<g clip-path="url(#clip0)">
<path opacity="0.2" d="M1985.52 97.113C1872.1 131.926 1785.95 128.298 1726.63 117.187C1677 107.803 1644.65 93.2588 1575.43 87.5316C1509.27 82.1527 1472.54 89.7453 1407.49 96.2768C1341.19 102.975 1189.99 116.731 1040.83 85.4485C950.562 66.4657 944.888 48.4534 871.071 28.8674C661.312 -26.6959 528.697 70.7342 306.028 103.933C198.782 119.914 36.379 126.19 -174.853 64.5675L-174.852 248.5L1985.51 248.5L1985.52 97.113Z" fill="white"/>
<path opacity="0.6" d="M1721.72 133.063C1781.22 142.643 1867.55 144.741 1980.02 107.34L1980.03 252L-180.637 252L-180.635 120.655C32.0357 177.791 194.214 168.078 301.093 149.885C523.066 111.955 653.518 11.7972 864.412 62.8386C938.404 80.8941 944.722 98.6699 1035.2 115.816C1185.01 144.073 1335.98 126.88 1402.12 118.922C1466.97 111.438 1503.54 102.586 1569.84 106.74C1639.23 110.937 1671.65 124.869 1721.72 133.063Z" fill="white"/>
<path d="M1996.69 194.204C1876.27 236.279 1792.04 226.668 1737.38 209.888C1677.94 191.632 1652.59 164.553 1580.3 153.204C1518.97 143.415 1490.1 155.315 1402.51 167.026C1327.78 177.105 1189.12 194.773 1052.3 166.448C966.809 148.941 955.956 127.546 883.499 106.875C674.769 47.7083 540.568 142.787 317.402 172.208C209.756 186.283 47.3622 189.769 -162.84 124.543L-162.84 279.501L1996.69 279.5L1996.69 194.204Z" fill="white"/>
</g>
<defs>
<clipPath id="clip0">
<rect width="1920" height="237" fill="white"/>
</clipPath>
</defs>
</svg>
