<svg viewBox="0 0 1920 561" fill="none" xmlns="http://www.w3.org/2000/svg">
<g clip-path="url(#clip0)">
<path opacity="0.2" d="M-48.0198 319.347C-3.29387 294.196 66.4554 263.588 153.012 260.933C261.129 257.69 304.785 301.444 389.212 316.909C571.578 350.203 610.086 190.19 838.116 157.734C1063.06 125.537 1145.58 264.046 1361.01 190.472C1433.44 165.752 1443.64 143.449 1516.25 106.732C1631.07 48.5173 1814.43 -1.86349 2105.12 54.3436L2105.12 416.093L-48.0198 416.093L-48.0198 319.347Z" fill="#F4DCDC"/>
<path opacity="0.6" d="M156.424 239.449C71.3381 226.743 -2.21199 244.369 -50.19 260.854L-50.19 446.855C-50.19 446.855 1383.91 460.052 2099.02 446.855L2104.79 75.8768C1901.12 26.2523 1753.91 49.1954 1655.2 81.1994C1467.06 141.967 1418 247.972 1233.61 265.414C1074.51 280.48 1071.98 205.674 901.944 211.032C639.807 219.267 565.263 399.95 388.734 347.671C295.874 320.075 276.529 257.314 156.424 239.449Z" fill="#F4DCDC"/>
<path d="M-47.7201 379.351C-5.60195 343.698 58.4805 301.31 140.174 294.58C241.289 286.305 274.941 339.749 373.058 365.888C588.602 423.697 681.753 234.38 975.054 261.397C1095.26 272.496 1079.68 304.253 1180.66 304.591C1385.09 305.305 1467.76 175.824 1654.58 121.189C1750.76 93.1456 1897.86 78.2005 2105.72 154.659L2098.4 486.844L-47.7201 486.844L-47.7201 379.351Z" fill="#F4DCDC"/>
</g>
<defs>
<clipPath id="clip0">
<rect width="2154" height="527" fill="white" transform="translate(-46.1377) rotate(0.890062)"/>
</clipPath>
</defs>
</svg>
