<svg viewBox="0 0 1920 797" fill="none" xmlns="http://www.w3.org/2000/svg">
<g clip-path="url(#clip0)">
<path opacity="0.2" d="M-129.14 571.392C-19.1887 506.715 65.3031 499.772 122.183 505.608C184.036 511.963 214.168 533.599 287.279 530.683C349.344 528.365 375.354 511.081 458.998 482.569C530.343 458.159 662.927 413.878 802.638 415.073C889.904 415.63 904.707 434.507 979.8 440.702C1196.05 458.173 1309.21 338.825 1522.4 266.591C1625.26 231.863 1783.88 196.881 2002.75 220.01L2002.75 719.286L-129.14 719.286L-129.14 571.392Z" fill="white"/>
<path d="M-99.3033 664.461C5.18112 608.269 90.3928 595.085 150.747 594.453C201.255 594.013 235.813 601.992 304.821 594.158C370.769 586.575 405.321 571.989 467.861 552.94C531.6 533.482 677.244 490.602 829.632 492.3C921.872 493.376 930.937 509.942 1007.15 514.808C1223.71 528.544 1334.86 407.198 1546.83 331.355C1648.93 294.835 1807.01 257.115 2026.2 276.509L2026.2 811.846L-99.304 811.846L-99.3033 664.461Z" fill="white"/>
<path opacity="0.6" d="M-95.8995 653.36C7.1585 594.813 92.244 580.094 152.473 577.927C203.186 576.233 237.693 583.598 306.575 574.229C372.422 565.418 406.567 549.629 468.725 529.683C532.056 509.023 676.81 462.815 829.253 461.417C921.341 460.651 930.994 476.86 1007.08 480.19C1223.88 489.271 1332.38 365.669 1542.74 285.321C1644.05 246.702 1801.25 205.654 2020.97 220.367L2020.97 800.47L-95.8999 800.47L-95.8995 653.36Z" fill="white"/>
</g>
<defs>
<clipPath id="clip0">
<rect width="2074" height="629" fill="white" transform="translate(-82.3242 169.85) rotate(-4.69748)"/>
</clipPath>
</defs>
</svg>
