<svg viewBox="0 0 1920 447" fill="none" xmlns="http://www.w3.org/2000/svg">
<g clip-path="url(#clip0)">
<g clip-path="url(#clip1)">
<path opacity="0.2" d="M-129.14 377.392C-19.1887 312.715 65.3031 305.772 122.183 311.608C184.036 317.963 214.168 339.599 287.279 336.683C349.344 334.365 375.354 317.081 458.998 288.569C530.343 264.159 662.927 219.878 802.638 221.073C889.904 221.63 904.707 240.507 979.8 246.702C1196.05 264.173 1309.21 144.825 1522.4 72.591C1625.26 37.8633 1783.88 2.88124 2002.75 26.0104L2002.75 525.286L-129.14 525.286L-129.14 377.392Z" fill="white"/>
<path d="M-99.3033 470.461C5.18112 414.269 90.3928 401.085 150.747 400.453C201.255 400.013 235.813 407.992 304.821 400.158C370.769 392.575 405.321 377.989 467.861 358.94C531.6 339.482 677.244 296.602 829.632 298.3C921.872 299.376 930.937 315.942 1007.15 320.808C1223.71 334.544 1334.86 213.198 1546.83 137.355C1648.93 100.835 1807.02 63.1147 2026.2 82.5089L2026.2 617.846L-99.304 617.846L-99.3033 470.461Z" fill="white"/>
<path opacity="0.6" d="M-95.8995 459.36C7.1585 400.813 92.244 386.094 152.473 383.927C203.186 382.233 237.693 389.598 306.575 380.229C372.422 371.418 406.567 355.629 468.725 335.683C532.056 315.023 676.81 268.815 829.253 267.417C921.341 266.651 930.994 282.86 1007.08 286.19C1223.88 295.271 1332.38 171.669 1542.74 91.3207C1644.05 52.7019 1801.25 11.6543 2020.97 26.3672L2020.97 606.47L-95.8999 606.47L-95.8995 459.36Z" fill="white"/>
</g>
</g>
<defs>
<clipPath id="clip0">
<rect width="1920" height="447" fill="white"/>
</clipPath>
<clipPath id="clip1">
<rect width="2074" height="629" fill="white" transform="translate(-82.3242 -24.1504) rotate(-4.69748)"/>
</clipPath>
</defs>
</svg>
