<svg viewBox="0 0 297 946" fill="none" xmlns="http://www.w3.org/2000/svg">
<path d="M154.762 219.587C163.371 212.135 220.774 161.206 212.194 102.766C210.687 92.4737 206.591 64.6075 185.123 53.1315C182.654 51.8441 168.968 44.8024 154.24 50.1258C137.471 56.1401 129.31 74.4434 128.478 87.9973C126.881 113.811 149.301 132.221 157.723 139.189C206.984 179.732 321.763 165.973 336 162.5M350 351C350 351 327.069 280.106 249.796 289.542C224.388 292.635 198.264 310.427 190.478 334.138C178.878 369.596 211.587 407.271 236 423.185C241.714 426.973 269.598 445.144 283.403 434.223C291.719 427.674 293.076 411.94 287.287 401.441C278.918 386.208 257.358 384.994 249.991 384.604C203.345 382.08 141.753 427.376 145.347 477.234C147.439 506.094 170.592 525.814 176.813 531.155C198.243 549.463 223.999 555.277 249.217 556.934C371.109 564.819 350 497 350 497" stroke="url(#paint0_linear)" stroke-width="5" stroke-miterlimit="10" stroke-linecap="round" stroke-linejoin="round" stroke-dasharray="15 15"/>
<path d="M385.5 737.499C385.5 737.499 304.372 745.254 282.47 801.986C278.948 811.03 271.286 831.01 281.123 846.587C288.633 858.506 304.88 865.495 319.502 862.631C334.911 859.605 345.492 846.166 349.268 835.705C362.718 798.275 314.561 726.834 249.479 710.891C175.309 692.743 149.287 742.966 146 746.5" stroke="url(#paint1_linear)" stroke-width="5" stroke-miterlimit="10" stroke-linecap="round" stroke-linejoin="round" stroke-dasharray="15 15"/>
<path d="M226.591 880.486C219.954 875.225 208.96 873.467 196.749 882.589C185.925 871.858 174.869 872.076 167.564 876.363C156.772 882.614 152.526 897.622 157.871 910.483C166.992 932.516 189.699 942.097 190.663 942.469C191.849 942.932 193.212 943.028 194.527 942.739C195.533 942.504 219.275 936.168 231.447 915.622C238.452 903.624 236.334 888.171 226.591 880.486Z" fill="url(#paint2_linear)"/>
<path d="M202.297 938.609C201.333 938.237 178.702 928.661 169.506 906.623C164.551 894.703 167.88 880.849 177.047 873.875C173.459 874.005 170.268 875.001 167.57 876.563C156.772 882.891 152.526 897.899 157.871 910.759C166.992 932.792 189.699 942.373 190.663 942.745C191.849 943.209 193.212 943.304 194.527 943.015C194.917 942.89 199.26 941.747 204.933 939.021C204.013 939.109 203.109 938.97 202.297 938.609Z" fill="url(#paint3_linear)"/>
<defs>
<linearGradient id="paint0_linear" x1="137.763" y1="469.333" x2="912.206" y2="176.916" gradientUnits="userSpaceOnUse">
<stop stop-color="#FF97B3"/>
<stop offset="1" stop-color="#FF7565"/>
</linearGradient>
<linearGradient id="paint1_linear" x1="1084.38" y1="614.185" x2="502.208" y2="1202.69" gradientUnits="userSpaceOnUse">
<stop stop-color="#FF97B3"/>
<stop offset="1" stop-color="#FF7565"/>
</linearGradient>
<linearGradient id="paint2_linear" x1="154.976" y1="906.159" x2="234.861" y2="911.739" gradientUnits="userSpaceOnUse">
<stop stop-color="#FFACAC"/>
<stop offset="1" stop-color="#FF667A"/>
</linearGradient>
<linearGradient id="paint3_linear" x1="154.972" y1="906.49" x2="206.946" y2="910.12" gradientUnits="userSpaceOnUse">
<stop stop-color="#FF97B3"/>
<stop offset="1" stop-color="#FF7565"/>
</linearGradient>
</defs>
</svg>
